STARTFONT 2.1
COMMENT
COMMENT Converted from OpenType font "i.ttf" by "otf2bdf 3.0".
COMMENT
FONT -FreeType-IBM Plex Mono-Medium-R-Normal--64-640-72-72-P-296-ISO10646-1
SIZE 64 72 72
FONTBOUNDINGBOX 53 94 -12 -23
STARTPROPERTIES 19
FOUNDRY "FreeType"
FAMILY_NAME "IBM Plex Mono"
WEIGHT_NAME "Medium"
SLANT "R"
SETWIDTH_NAME "Normal"
ADD_STYLE_NAME ""
PIXEL_SIZE 64
POINT_SIZE 640
RESOLUTION_X 72
RESOLUTION_Y 72
SPACING "P"
AVERAGE_WIDTH 296
CHARSET_REGISTRY "ISO10646"
CHARSET_ENCODING "1"
FONT_ASCENT 65
FONT_DESCENT 17
COPYRIGHT "Copyright 2017 IBM Corp. All rights reserved."
_OTF_FONTFILE "i.ttf"
_OTF_PSNAME "IBMPlexMono-Regular"
ENDPROPERTIES
CHARS 930
STARTCHAR 0000
ENCODING 0
SWIDTH 0 0
DWIDTH 0 0
BBX 0 0 0 0
BITMAP
ENDCHAR
STARTCHAR 000D
ENCODING 13
SWIDTH 593 0
DWIDTH 38 0
BBX 0 0 0 0
BITMAP
ENDCHAR
STARTCHAR 0020
ENCODING 32
SWIDTH 593 0
DWIDTH 38 0
BBX 0 0 0 0
BITMAP
ENDCHAR
STARTCHAR 0021
ENCODING 33
SWIDTH 593 0
DWIDTH 38 0
BBX 10 46 14 -1
BITMAP
3F00
3F00
3F00
3F00
3F00
3F00
3F00
3F00
3F00
3F00
3F00
3F00
3F00
3F00
1F00
1F00
1F00
1F00
1E00
1E00
1E00
1E00
1E00
1E00
0E00
0E00
0E00
0C00
0C00
0C00
0000
0000
0000
0000
0000
0000
0000
3F00
7F80
7FC0
FFC0
FFC0
FFC0
7FC0
7F80
3F00
ENDCHAR
STARTCHAR 0022
ENCODING 34
SWIDTH 593 0
DWIDTH 38 0
BBX 16 18 11 29
BITMAP
F81F
F81F
F81F
F81F
F81F
F81F
F81F
F81F
F81F
F81F
F81F
F81F
F81F
F81F
F81F
F81F
F81F
F81F
ENDCHAR
STARTCHAR 0023
ENCODING 35
SWIDTH 593 0
DWIDTH 38 0
BBX 36 45 1 0
BITMAP
0003E03C00
0003C07C00
0007C07C00
0007C07C00
0007C07C00
0007C07800
0007807800
000F80F800
000F80F800
000F80F800
000F80F000
000F80F000
000F01F000
3FFF01FFF0
3FFF01FFF0
3FFF01FFF0
3FFF01FFF0
3FFF01FFF0
001E03E000
003E03E000
003E03E000
003E03E000
003E03C000
003C03C000
003C07C000
007C07C000
007C07C000
FFFC07FFC0
FFFC07FFC0
FFF807FFC0
FFF80FFFC0
FFF80FFFC0
00F80F8000
00F80F8000
00F80F0000
00F01F0000
00F01F0000
01F01F0000
01F01F0000
01F01F0000
01F01E0000
01E03E0000
03E03E0000
03E03E0000
03E03E0000
ENDCHAR
STARTCHAR 0024
ENCODING 36
SWIDTH 593 0
DWIDTH 38 0
BBX 32 60 3 -8
BITMAP
0001E000
0001E000
0001E000
0001E000
0001E000
0001E000
0001E000
000FFC00
007FFF80
01FFFFE0
07FFFFF0
0FFFFFF8
0FF1E7FC
1FC1E0FE
1F81E07F
3F01E03E
3E01E01C
3E01E010
3E01E000
3E01E000
3E01E000
3E01E000
3F01E000
3F01E000
1FC1E000
1FE1E000
0FFFE000
07FFF800
03FFFF80
01FFFFE0
007FFFF0
0007FFF8
0001FFFC
0001E3FE
0001E0FE
0001E03F
0001E03F
0001E01F
0001E01F
0001E01F
0001E01F
0001E01F
1801E01F
3C01E03F
7E01E03F
FF01E07E
3FC1E0FE
3FF1E7FC
0FFFFFF8
07FFFFF0
03FFFFE0
00FFFF80
001FFC00
0001E000
0001E000
0001E000
0001E000
0001E000
0001E000
0001E000
ENDCHAR
STARTCHAR 0025
ENCODING 37
SWIDTH 593 0
DWIDTH 38 0
BBX 36 46 1 -1
BITMAP
01F80001F0
0FFE0001E0
1FFF0003E0
3F0F8003C0
3C07C007C0
7803C00780
7801E00F80
7801E00F00
F801E01F00
F801E01E00
F801E03E00
F801E07C00
F801E07C00
F801E0F800
7801E0F800
7801E1F000
7803C1E000
3C07C3E000
3F0F83C000
1FFF040000
0FFE000000
01F8000000
0000000000
000001FC00
000007FF00
00000FFF80
003E1F07C0
007C1E03E0
007C3C01E0
00F83C01E0
00F87C00F0
01F07800F0
01E07800F0
03E07800F0
03C07800F0
07C07800F0
07807800F0
0F807800F0
0F007C00F0
1F003C01E0
1E003C01E0
3E001E03E0
7C001F07C0
7C000FFF80
F80007FF00
000001FC00
ENDCHAR
STARTCHAR 0026
ENCODING 38
SWIDTH 593 0
DWIDTH 38 0
BBX 35 46 2 -1
BITMAP
000FE00000
007FF80000
00FFFC0000
01FFFE0000
03FFFF0000
07F03F8000
07E01F8000
0FC00FC000
0F80070000
0F80040000
0F80000000
0F80000000
0F80000000
0F80000000
0F80000000
07C0000000
07E0000000
03E0000000
03F0000000
01F8000000
00FC007FC0
03FE007FC0
07FE007FC0
0FFF007FC0
1FDF807FC0
3F1FC07800
7E0FE07800
7C07F07800
FC03F0F800
F801F8F000
F800FCF000
F8007EF000
F8007FF000
F8003FF000
F8001FE000
F8000FE000
F80007E000
FC0007F000
FE000FF800
7F001CFC00
7FC07CFE00
3FFFF87F00
1FFFF83F00
0FFFF01F80
03FFC00FC0
00FF000020
ENDCHAR
STARTCHAR 0027
ENCODING 39
SWIDTH 593 0
DWIDTH 38 0
BBX 5 18 17 29
BITMAP
F8
F8
F8
F8
F8
F8
F8
F8
F8
F8
F8
F8
F8
F8
F8
F8
F8
F8
ENDCHAR
STARTCHAR 0028
ENCODING 40
SWIDTH 593 0
DWIDTH 38 0
BBX 19 58 13 -9
BITMAP
0007E0
000F80
001F00
003E00
007C00
00F800
01F000
03E000
03E000
07C000
078000
0F8000
0F0000
1F0000
1E0000
3E0000
3E0000
3C0000
3C0000
7C0000
780000
780000
780000
F80000
F80000
F80000
F80000
F80000
F80000
F80000
F80000
F80000
F80000
F80000
F80000
780000
780000
780000
7C0000
3C0000
3C0000
3E0000
3E0000
1E0000
1F0000
0F0000
0F8000
078000
07C000
03E000
03E000
01F000
00F800
007C00
003E00
001F00
000F80
0007E0
ENDCHAR
STARTCHAR 0029
ENCODING 41
SWIDTH 593 0
DWIDTH 38 0
BBX 18 58 7 -9
BITMAP
FC0000
3E0000
1F0000
0F8000
07C000
03C000
03E000
01F000
00F800
00F800
007C00
003C00
003E00
001E00
001F00
001F00
000F00
000F80
000F80
000780
000780
0007C0
0007C0
0007C0
0007C0
0007C0
0007C0
0007C0
0007C0
0007C0
0007C0
0007C0
0007C0
0007C0
0007C0
0007C0
0007C0
000780
000780
000F80
000F80
000F00
001F00
001F00
001E00
003E00
003C00
007C00
00F800
00F800
01F000
03E000
03C000
07C000
0F8000
1F0000
3E0000
FC0000
ENDCHAR
STARTCHAR 002A
ENCODING 42
SWIDTH 593 0
DWIDTH 38 0
BBX 33 32 3 4
BITMAP
0003E00000
0003E00000
0003E00000
0003E00000
0003E00000
0003E00000
0003E00000
0003E00000
0003E00000
0003E00000
7003E00700
7E03E03F00
FFC3E1FF00
FFFBEFFF80
7FFFFFFE00
0FFFFFF000
01FFFF8000
003FFC0000
000FF00000
000FF80000
001FFC0000
003F7C0000
007E7E0000
007C3F0000
00F81F8000
01F80F8000
03F00FC000
03E007E000
07E003E000
07C001F000
038001C000
0100008000
ENDCHAR
STARTCHAR 002B
ENCODING 43
SWIDTH 593 0
DWIDTH 38 0
BBX 30 31 4 4
BITMAP
0007C000
0007C000
0007C000
0007C000
0007C000
0007C000
0007C000
0007C000
0007C000
0007C000
0007C000
0007C000
0007C000
FFFFFFFC
FFFFFFFC
FFFFFFFC
FFFFFFFC
FFFFFFFC
0007C000
0007C000
0007C000
0007C000
0007C000
0007C000
0007C000
0007C000
0007C000
0007C000
0007C000
0007C000
0007C000
ENDCHAR
STARTCHAR 002C
ENCODING 44
SWIDTH 593 0
DWIDTH 38 0
BBX 12 18 13 -9
BITMAP
1FF0
1FE0
1FE0
1FC0
1FC0
3F80
3F80
3F80
3F00
3F00
7E00
7E00
7E00
7C00
7C00
7800
F800
F800
ENDCHAR
STARTCHAR 002D
ENCODING 45
SWIDTH 593 0
DWIDTH 38 0
BBX 18 5 10 17
BITMAP
FFFFC0
FFFFC0
FFFFC0
FFFFC0
FFFFC0
ENDCHAR
STARTCHAR 002E
ENCODING 46
SWIDTH 593 0
DWIDTH 38 0
BBX 10 9 14 -1
BITMAP
3F00
7F80
7FC0
FFC0
FFC0
FFC0
7FC0
7F80
3F00
ENDCHAR
STARTCHAR 002F
ENCODING 47
SWIDTH 593 0
DWIDTH 38 0
BBX 27 58 6 -9
BITMAP
000003E0
000007C0
000007C0
00000780
00000F80
00000F80
00000F00
00001F00
00001E00
00003E00
00003E00
00003C00
00007C00
00007800
0000F800
0000F800
0000F000
0001F000
0001F000
0001E000
0003E000
0003C000
0007C000
0007C000
00078000
000F8000
000F0000
001F0000
001F0000
001E0000
003E0000
003E0000
003C0000
007C0000
00780000
00F80000
00F80000
00F00000
01F00000
01E00000
03E00000
03E00000
03C00000
07C00000
07C00000
07800000
0F800000
0F000000
1F000000
1F000000
1E000000
3E000000
3E000000
7C000000
7C000000
78000000
F8000000
F8000000
ENDCHAR
STARTCHAR 0030
ENCODING 48
SWIDTH 593 0
DWIDTH 38 0
BBX 31 46 4 -1
BITMAP
001FE000
00FFFC00
01FFFF00
07FFFF80
0FFFFFC0
0FF03FE0
1FC007E0
3F8003F0
3F0001F0
3E0001F8
7E0000F8
7C0000F8
7C0000FC
FC00007C
FC00007C
F800007C
F800007C
F800007E
F800007E
F807C07E
F80FE07E
F81FE07E
F81FE07E
F81FE07E
F81FE07E
F80FE07E
F807C07E
F800007E
F800007E
F800007C
F800007C
FC00007C
FC00007C
7C0000FC
7C0000F8
7E0000F8
3E0001F8
3F0001F0
3F8003F0
1FC007E0
0FF01FE0
0FFFFFC0
07FFFF80
01FFFF00
00FFFC00
001FF000
ENDCHAR
STARTCHAR 0031
ENCODING 49
SWIDTH 593 0
DWIDTH 38 0
BBX 32 45 3 0
BITMAP
000FF800
001FF800
003FF800
007FF800
00FFF800
01FDF800
03F9F800
07F1F800
0FE1F800
1FC1F800
3F81F800
7E01F800
FC01F800
3801F800
1001F800
0001F800
0001F800
0001F800
0001F800
0001F800
0001F800
0001F800
0001F800
0001F800
0001F800
0001F800
0001F800
0001F800
0001F800
0001F800
0001F800
0001F800
0001F800
0001F800
0001F800
0001F800
0001F800
0001F800
0001F800
0001F800
3FFFFFFF
3FFFFFFF
3FFFFFFF
3FFFFFFF
3FFFFFFF
ENDCHAR
STARTCHAR 0032
ENCODING 50
SWIDTH 593 0
DWIDTH 38 0
BBX 30 45 4 0
BITMAP
003FE000
00FFFC00
03FFFF00
07FFFF80
0FFFFFC0
1FE03FE0
3F800FE0
3F0007F0
7E0003F0
7C0003F0
FC0001F0
380001F8
080001F8
000001F8
000001F8
000001F0
000001F0
000003F0
000003F0
000007E0
000007E0
00000FC0
00001F80
00003F80
00007F00
0000FE00
0001FC00
0003F800
0007F000
000FE000
003FC000
007F0000
00FE0000
01FC0000
03F80000
07F00000
0FC00000
1F800000
3F000000
7E000000
7FFFFFFC
7FFFFFFC
7FFFFFFC
7FFFFFFC
7FFFFFFC
ENDCHAR
STARTCHAR 0033
ENCODING 51
SWIDTH 593 0
DWIDTH 38 0
BBX 30 46 3 -1
BITMAP
001FF000
007FFE00
01FFFF80
07FFFFC0
0FFFFFE0
0FF01FF0
1FC007F0
3F8003F8
1F0001F8
0E0001F8
040000F8
000000F8
000000F8
000001F8
000001F8
000001F0
000003F0
000007E0
00003FC0
007FFF80
007FFE00
007FF800
007FFF00
007FFF80
00001FE0
000007F0
000003F0
000001F8
000000F8
000000FC
000000FC
000000FC
0000007C
000000FC
000000FC
100000FC
380000FC
7C0001F8
FE0003F8
7F8007F0
3FE01FF0
1FFFFFE0
0FFFFFC0
07FFFF00
01FFFC00
003FE000
ENDCHAR
STARTCHAR 0034
ENCODING 52
SWIDTH 593 0
DWIDTH 38 0
BBX 34 45 2 0
BITMAP
00001FE000
00001FE000
00003FE000
00007FE000
00007FE000
0000FBE000
0001F3E000
0001F3E000
0003E3E000
0003E3E000
0007C3E000
000F83E000
000F83E000
001F03E000
001E03E000
003E03E000
007C03E000
007C03E000
00F803E000
01F003E000
01F003E000
03E003E000
03C003E000
07C003E000
0F8003E000
0F0003E000
1F0003E000
3E0003E000
3E0003E000
7C0003E000
780003E000
FFFFFFFFC0
FFFFFFFFC0
FFFFFFFFC0
FFFFFFFFC0
FFFFFFFFC0
000003E000
000003E000
000003E000
000003E000
000003E000
000003E000
000003E000
000003E000
000003E000
ENDCHAR
STARTCHAR 0035
ENCODING 53
SWIDTH 593 0
DWIDTH 38 0
BBX 29 46 5 -1
BITMAP
1FFFFFE0
1FFFFFE0
1FFFFFE0
1FFFFFE0
3FFFFFE0
3E000000
3E000000
3E000000
3E000000
3E000000
3E000000
3E000000
3E000000
3C000000
3C000000
3C000000
3C000000
3C0FF000
3C3FFC00
7CFFFF00
7DFFFF80
7DFFFFC0
7FC07FE0
7F000FE0
7E0007F0
0C0003F0
000001F8
000001F8
000001F8
000001F8
000000F8
000000F8
000000F8
000001F8
000001F8
100001F8
380001F0
FC0003F0
FE0007E0
7F000FE0
3FC03FC0
1FFFFF80
0FFFFF00
07FFFE00
01FFF800
003FC000
ENDCHAR
STARTCHAR 0036
ENCODING 54
SWIDTH 593 0
DWIDTH 38 0
BBX 30 46 4 -1
BITMAP
0000FE00
0003F800
0007F000
000FE000
001FC000
003F0000
007E0000
00FC0000
01FC0000
03F80000
03F00000
07E00000
07C00000
0FC00000
1F800000
1F800000
1F000000
3F07F800
3E1FFE00
7E3FFF80
7EFFFFC0
7CFFFFE0
7DF01FF0
FF8007F8
FF0003F8
FE0001F8
FE0000FC
FC0000FC
FC00007C
FC00007C
FC00007C
FC00007C
FC00007C
7C00007C
7C00007C
7C0000FC
7E0000F8
3E0001F8
3F0003F8
1F8007F0
1FF01FE0
0FFFFFC0
07FFFF80
01FFFF00
00FFFC00
001FE000
ENDCHAR
STARTCHAR 0037
ENCODING 55
SWIDTH 593 0
DWIDTH 38 0
BBX 30 45 4 0
BITMAP
FFFFFFFC
FFFFFFFC
FFFFFFFC
FFFFFFFC
FFFFFFFC
F80000FC
F80000F8
F80001F8
F80001F0
F80001F0
F80003F0
F80003E0
F80007E0
000007C0
00000FC0
00000F80
00000F80
00001F80
00001F00
00003F00
00003E00
00007E00
00007C00
0000FC00
0000FC00
0000F800
0001F800
0001F000
0003F000
0003E000
0007E000
0007E000
0007C000
000FC000
000F8000
001F8000
001F0000
003F0000
003F0000
007E0000
007E0000
007C0000
00FC0000
00F80000
01F80000
ENDCHAR
STARTCHAR 0038
ENCODING 56
SWIDTH 593 0
DWIDTH 38 0
BBX 31 46 4 -1
BITMAP
003FF000
01FFFE00
07FFFF80
0FFFFFC0
1FFFFFE0
3FE01FF0
3F8007F8
7F0001F8
7E0001F8
7E0000F8
7C0000FC
7C0000FC
7C0000F8
7C0000F8
7E0000F8
3E0001F8
3F0001F0
1F8007E0
0FE01FC0
07FFFF80
01FFFF00
007FFC00
01FFFF00
07FFFFC0
1FE01FE0
3F8003F0
7E0001F8
7C0000FC
FC00007C
F800007C
F800007E
F800007E
F800007E
F800007E
F800007E
F800007E
FC00007C
FC0000FC
7E0001FC
7F8003F8
3FE01FF8
1FFFFFF0
0FFFFFE0
07FFFF80
01FFFE00
003FF000
ENDCHAR
STARTCHAR 0039
ENCODING 57
SWIDTH 593 0
DWIDTH 38 0
BBX 30 45 4 0
BITMAP
001FE000
00FFFC00
03FFFF00
07FFFF80
0FFFFFC0
1FF01FE0
3F8007F0
3F0003F0
7E0001F8
7E0000F8
7C0000F8
FC00007C
FC00007C
FC00007C
FC00007C
FC00007C
FC00007C
FC00007C
FC0000FC
7E0000FC
7E0001FC
7F0003FC
3F80077C
3FF01FFC
1FFFFEF8
0FFFFCF8
07FFF9F8
01FFE1F0
007F81F0
000003F0
000003E0
000007E0
00000FC0
00000F80
00001F80
00003F00
00007E00
0000FE00
0001FC00
0003F800
0007F000
000FE000
001FC000
007F0000
01FE0000
ENDCHAR
STARTCHAR 003A
ENCODING 58
SWIDTH 593 0
DWIDTH 38 0
BBX 10 34 14 -1
BITMAP
3F00
7F80
7FC0
FFC0
FFC0
FFC0
7FC0
7F80
3F00
0000
0000
0000
0000
0000
0000
0000
0000
0000
0000
0000
0000
0000
0000
0000
0000
3F00
7F80
7FC0
FFC0
FFC0
FFC0
7FC0
7F80
3F00
ENDCHAR
STARTCHAR 003B
ENCODING 59
SWIDTH 593 0
DWIDTH 38 0
BBX 12 42 13 -9
BITMAP
1F80
3FC0
3FE0
7FE0
7FE0
7FE0
3FE0
3FC0
1F80
0000
0000
0000
0000
0000
0000
0000
0000
0000
0000
0000
0000
0000
0000
0000
1FF0
1FE0
1FE0
1FC0
1FC0
3F80
3F80
3F80
3F00
3F00
7E00
7E00
7E00
7C00
7C00
7800
F800
F800
ENDCHAR
STARTCHAR 003C
ENCODING 60
SWIDTH 593 0
DWIDTH 38 0
BBX 28 37 5 1
BITMAP
00000010
00000070
000000F0
000003F0
00000FF0
00003FF0
00007FC0
0001FF00
0007FC00
000FF800
003FE000
00FF8000
03FE0000
07FC0000
1FF00000
7FC00000
FF000000
FC000000
F8000000
FE000000
FF000000
7FC00000
1FF00000
07FC0000
03FF0000
00FF8000
003FE000
000FF800
0007FE00
0001FF00
00007FC0
00003FF0
00000FF0
000003F0
000000F0
00000070
00000010
ENDCHAR
STARTCHAR 003D
ENCODING 61
SWIDTH 593 0
DWIDTH 38 0
BBX 30 17 4 11
BITMAP
FFFFFFFC
FFFFFFFC
FFFFFFFC
FFFFFFFC
FFFFFFFC
00000000
00000000
00000000
00000000
00000000
00000000
00000000
FFFFFFFC
FFFFFFFC
FFFFFFFC
FFFFFFFC
FFFFFFFC
ENDCHAR
STARTCHAR 003E
ENCODING 62
SWIDTH 593 0
DWIDTH 38 0
BBX 28 37 5 1
BITMAP
80000000
E0000000
F8000000
FE000000
FF000000
7FC00000
3FF00000
0FF80000
03FE0000
00FF8000
007FE000
001FF000
0007FC00
0001FF00
0000FFC0
00003FE0
00000FF0
000003F0
000001F0
000003F0
00000FF0
00003FE0
00007F80
0001FF00
0007FC00
001FF000
003FE000
00FF8000
03FE0000
0FF80000
1FF00000
7FC00000
FF000000
FE000000
F8000000
E0000000
80000000
ENDCHAR
STARTCHAR 003F
ENCODING 63
SWIDTH 593 0
DWIDTH 38 0
BBX 28 46 5 -1
BITMAP
003FE000
01FFF800
03FFFE00
0FFFFF00
1FFFFF80
1FE03FC0
3F800FC0
7F0007E0
7E0007E0
FC0003E0
F80003F0
380003F0
000003F0
000003F0
000003E0
000003E0
000007E0
000007C0
00000FC0
00003F80
0000FF00
003FFE00
003FF800
003FE000
003F0000
003E0000
003E0000
003E0000
003E0000
003E0000
003E0000
00000000
00000000
00000000
00000000
00000000
00000000
003F0000
007F8000
007FC000
00FFC000
00FFC000
00FFC000
007FC000
007F8000
003F0000
ENDCHAR
STARTCHAR 0040
ENCODING 64
SWIDTH 593 0
DWIDTH 38 0
BBX 30 52 4 -7
BITMAP
001FF000
00FFFC00
01FFFF00
03FFFF80
07FFFFC0
0FF01FE0
1FC007F0
1F0003F0
3F0001F8
3E0000F8
3E0000F8
7C0000F8
7C000078
7C00F878
7803FE7C
7807FF7C
F80FFF7C
F81FC3FC
F81F00FC
F81E007C
F83E007C
F83E007C
F83E007C
F83E007C
F83E007C
F83E007C
F83E007C
F83E007C
F83E007C
F83E007C
F83E007C
F83E007C
F83E007C
F81F00FC
F81F00FC
781FE3FC
780FFF7C
7807FE7C
7C03FC7C
7C00F000
3C000000
3E000000
3E000000
1F000000
1F800000
0FE00000
0FF80000
07FFFF80
03FFFF80
01FFFF80
007FFF80
000FFF80
ENDCHAR
STARTCHAR 0041
ENCODING 65
SWIDTH 593 0
DWIDTH 38 0
BBX 34 45 2 0
BITMAP
0003F80000
0007F80000
0007FC0000
0007FC0000
000FFC0000
000FFC0000
000FBE0000
001F3E0000
001F3E0000
001F1F0000
003E1F0000
003E1F0000
003E1F8000
003E0F8000
007C0F8000
007C0FC000
007C07C000
00F807C000
00F807C000
00F803E000
01F803E000
01F003E000
01F003F000
01F001F000
03E001F000
03E001F800
03E000F800
07FFFFF800
07FFFFF800
07FFFFFC00
0FFFFFFC00
0FFFFFFC00
0F80007E00
1F80007E00
1F80003E00
1F00003F00
1F00003F00
3F00001F00
3E00001F80
3E00001F80
7E00001F80
7E00000F80
7C00000FC0
FC00000FC0
FC000007C0
ENDCHAR
STARTCHAR 0042
ENCODING 66
SWIDTH 593 0
DWIDTH 38 0
BBX 29 45 6 0
BITMAP
FFFFE000
FFFFFC00
FFFFFE00
FFFFFF00
FFFFFF80
F8003FC0
F8000FC0
F8000FE0
F80007E0
F80007E0
F80007E0
F80007E0
F80007E0
F80007E0
F80007E0
F80007C0
F80007C0
F8000F80
F8003F00
FFFFFE00
FFFFF800
FFFFF800
FFFFFF00
FFFFFF80
F8001FC0
F80007E0
F80003F0
F80003F0
F80001F0
F80001F8
F80001F8
F80001F8
F80001F8
F80001F8
F80001F8
F80001F0
F80003F0
F80003F0
F80007E0
F8001FE0
FFFFFFC0
FFFFFF80
FFFFFF00
FFFFFC00
FFFFF000
ENDCHAR
STARTCHAR 0043
ENCODING 67
SWIDTH 593 0
DWIDTH 38 0
BBX 30 46 4 -1
BITMAP
000FF800
007FFE00
00FFFF80
01FFFFC0
03FFFFE0
07F80FF0
0FE003F0
0FC001F8
1F8000FC
1F00007C
3F00007C
3E000020
3E000000
7E000000
7E000000
7C000000
7C000000
7C000000
7C000000
7C000000
7C000000
FC000000
FC000000
FC000000
FC000000
7C000000
7C000000
7C000000
7C000000
7C000000
7C000000
7E000000
7E000000
3E000000
3E000020
3F00007C
1F00007C
1F8000FC
0FC001F8
0FE003F0
07F80FF0
03FFFFE0
01FFFFC0
00FFFF80
007FFE00
000FF800
ENDCHAR
STARTCHAR 0044
ENCODING 68
SWIDTH 593 0
DWIDTH 38 0
BBX 29 45 6 0
BITMAP
FFFF8000
FFFFF000
FFFFFC00
FFFFFE00
FFFFFF00
F800FF80
F8003F80
F8001FC0
F8000FC0
F80007E0
F80007E0
F80003E0
F80003F0
F80001F0
F80001F0
F80001F0
F80001F0
F80001F8
F80001F8
F80001F8
F80001F8
F80001F8
F80001F8
F80001F8
F80001F8
F80001F8
F80001F8
F80001F8
F80001F0
F80001F0
F80001F0
F80001F0
F80003F0
F80003E0
F80007E0
F80007E0
F8000FC0
F8001FC0
F8003F80
F800FF80
FFFFFF00
FFFFFE00
FFFFFC00
FFFFF000
FFFF8000
ENDCHAR
STARTCHAR 0045
ENCODING 69
SWIDTH 593 0
DWIDTH 38 0
BBX 27 45 6 0
BITMAP
FFFFFFE0
FFFFFFE0
FFFFFFE0
FFFFFFE0
FFFFFFE0
F8000000
F8000000
F8000000
F8000000
F8000000
F8000000
F8000000
F8000000
F8000000
F8000000
F8000000
F8000000
F8000000
F8000000
F8000000
FFFFFFE0
FFFFFFE0
FFFFFFE0
FFFFFFE0
FFFFFFE0
F8000000
F8000000
F8000000
F8000000
F8000000
F8000000
F8000000
F8000000
F8000000
F8000000
F8000000
F8000000
F8000000
F8000000
F8000000
FFFFFFE0
FFFFFFE0
FFFFFFE0
FFFFFFE0
FFFFFFE0
ENDCHAR
STARTCHAR 0046
ENCODING 70
SWIDTH 593 0
DWIDTH 38 0
BBX 28 45 6 0
BITMAP
FFFFFFF0
FFFFFFF0
FFFFFFF0
FFFFFFF0
FFFFFFF0
F8000000
F8000000
F8000000
F8000000
F8000000
F8000000
F8000000
F8000000
F8000000
F8000000
F8000000
F8000000
F8000000
F8000000
F8000000
FFFFFFC0
FFFFFFC0
FFFFFFC0
FFFFFFC0
FFFFFFC0
F8000000
F8000000
F8000000
F8000000
F8000000
F8000000
F8000000
F8000000
F8000000
F8000000
F8000000
F8000000
F8000000
F8000000
F8000000
F8000000
F8000000
F8000000
F8000000
F8000000
ENDCHAR
STARTCHAR 0047
ENCODING 71
SWIDTH 593 0
DWIDTH 38 0
BBX 29 46 4 -1
BITMAP
001FF000
00FFFC00
01FFFF00
03FFFF80
07FFFFC0
0FF01FE0
1FC007F0
1F8003F0
3F0001F8
3E0000F8
7E0000F8
7E0000C0
7C000000
FC000000
FC000000
FC000000
F8000000
F8000000
F8000000
F8000000
F8000000
F8000000
F8000000
F801FFF8
F801FFF8
F801FFF8
F801FFF8
F801FFF8
F80000F8
F80000F8
FC0000F8
FC0000F8
FC0000F8
7C0000F8
7C0000F8
7E0000F8
7E0001F8
3F0001F8
3F8003F8
1FC007F8
1FF01EF8
0FFFFEF8
07FFFCF8
03FFF8F8
00FFF0F8
003FC000
ENDCHAR
STARTCHAR 0048
ENCODING 72
SWIDTH 593 0
DWIDTH 38 0
BBX 28 45 5 0
BITMAP
FC0001F0
FC0001F0
FC0001F0
FC0001F0
FC0001F0
FC0001F0
FC0001F0
FC0001F0
FC0001F0
FC0001F0
FC0001F0
FC0001F0
FC0001F0
FC0001F0
FC0001F0
FC0001F0
FC0001F0
FC0001F0
FC0001F0
FC0001F0
FFFFFFF0
FFFFFFF0
FFFFFFF0
FFFFFFF0
FFFFFFF0
FC0001F0
FC0001F0
FC0001F0
FC0001F0
FC0001F0
FC0001F0
FC0001F0
FC0001F0
FC0001F0
FC0001F0
FC0001F0
FC0001F0
FC0001F0
FC0001F0
FC0001F0
FC0001F0
FC0001F0
FC0001F0
FC0001F0
FC0001F0
ENDCHAR
STARTCHAR 0049
ENCODING 73
SWIDTH 593 0
DWIDTH 38 0
BBX 28 45 5 0
BITMAP
FFFFFFF0
FFFFFFF0
FFFFFFF0
FFFFFFF0
FFFFFFF0
000F8000
000F8000
000F8000
000F8000
000F8000
000F8000
000F8000
000F8000
000F8000
000F8000
000F8000
000F8000
000F8000
000F8000
000F8000
000F8000
000F8000
000F8000
000F8000
000F8000
000F8000
000F8000
000F8000
000F8000
000F8000
000F8000
000F8000
000F8000
000F8000
000F8000
000F8000
000F8000
000F8000
000F8000
000F8000
FFFFFFF0
FFFFFFF0
FFFFFFF0
FFFFFFF0
FFFFFFF0
ENDCHAR
STARTCHAR 004A
ENCODING 74
SWIDTH 593 0
DWIDTH 38 0
BBX 26 46 5 -1
BITMAP
0FFFFFC0
0FFFFFC0
0FFFFFC0
0FFFFFC0
0FFFFFC0
00000FC0
00000FC0
00000FC0
00000FC0
00000FC0
00000FC0
00000FC0
00000FC0
00000FC0
00000FC0
00000FC0
00000FC0
00000FC0
00000FC0
00000FC0
00000FC0
00000FC0
00000FC0
00000FC0
00000FC0
00000FC0
00000FC0
00000FC0
00000FC0
00000FC0
00000FC0
00000FC0
00000FC0
00000FC0
00000FC0
F8000FC0
F8000F80
FC001F80
7E001F80
7F003F00
3FC0FF00
3FFFFE00
1FFFFC00
0FFFF800
03FFE000
007F8000
ENDCHAR
STARTCHAR 004B
ENCODING 75
SWIDTH 593 0
DWIDTH 38 0
BBX 32 45 5 0
BITMAP
FC00007F
FC0000FC
FC0001FC
FC0003F8
FC0007F0
FC0007E0
FC000FC0
FC001F80
FC003F80
FC007F00
FC00FE00
FC00FC00
FC01F800
FC03F000
FC07F000
FC0FE000
FC1FC000
FC1F8000
FC3F0000
FC7F0000
FCFF8000
FCFF8000
FDFFC000
FFF7E000
FFE7E000
FFC3F000
FF83F800
FF01F800
FF00FC00
FE00FC00
FC007E00
FC007F00
FC003F00
FC001F80
FC001F80
FC000FC0
FC0007E0
FC0007E0
FC0003F0
FC0003F8
FC0001F8
FC0000FC
FC0000FC
FC00007E
FC00007F
ENDCHAR
STARTCHAR 004C
ENCODING 76
SWIDTH 593 0
DWIDTH 38 0
BBX 26 45 8 0
BITMAP
F8000000
F8000000
F8000000
F8000000
F8000000
F8000000
F8000000
F8000000
F8000000
F8000000
F8000000
F8000000
F8000000
F8000000
F8000000
F8000000
F8000000
F8000000
F8000000
F8000000
F8000000
F8000000
F8000000
F8000000
F8000000
F8000000
F8000000
F8000000
F8000000
F8000000
F8000000
F8000000
F8000000
F8000000
F8000000
F8000000
F8000000
F8000000
F8000000
F8000000
FFFFFFC0
FFFFFFC0
FFFFFFC0
FFFFFFC0
FFFFFFC0
ENDCHAR
STARTCHAR 004D
ENCODING 77
SWIDTH 593 0
DWIDTH 38 0
BBX 30 45 4 0
BITMAP
FE0001FC
FF0001FC
FF0003FC
FF8003FC
FF8003FC
FF8007FC
FFC007FC
FFC00FFC
FBE00F7C
FBE00F7C
F9E01F7C
F9F01E7C
F8F03E7C
F8F83C7C
F8F83C7C
F8787C7C
F87C787C
F83CF87C
F83EF07C
F83EF07C
F81FF07C
F81FE07C
F80FE07C
F80FC07C
F807C07C
F807807C
F807807C
F803807C
F803007C
F801007C
F802007C
F800007C
F800007C
F800007C
F800007C
F800007C
F800007C
F800007C
F800007C
F800007C
F800007C
F800007C
F800007C
F800007C
F800007C
ENDCHAR
STARTCHAR 004E
ENCODING 78
SWIDTH 593 0
DWIDTH 38 0
BBX 28 45 5 0
BITMAP
FF0001F0
FF0001F0
FF8001F0
FF8001F0
FFC001F0
FFC001F0
FFC001F0
FBE001F0
FBE001F0
FBF001F0
F9F001F0
F9F001F0
F8F801F0
F8F801F0
F8FC01F0
F87C01F0
F87C01F0
F83E01F0
F83E01F0
F83F01F0
F81F01F0
F81F01F0
F80F81F0
F80F81F0
F80FC1F0
F807C1F0
F807C1F0
F803E1F0
F803E1F0
F803F1F0
F801F1F0
F801F1F0
F800F9F0
F800F9F0
F800FDF0
F8007DF0
F8007DF0
F8003FF0
F8003FF0
F8003FF0
F8001FF0
F8001FF0
F8000FF0
F8000FF0
F8000FF0
ENDCHAR
STARTCHAR 004F
ENCODING 79
SWIDTH 593 0
DWIDTH 38 0
BBX 31 46 4 -1
BITMAP
001FE000
00FFFC00
01FFFF00
07FFFF80
0FFFFFC0
0FF03FE0
1FC00FE0
3F8003F0
3F0003F0
3E0001F8
7E0000F8
7C0000F8
7C0000FC
FC00007C
FC00007C
F800007C
F800007C
F800007E
F800007E
F800007E
F800007E
F800007E
F800007E
F800007E
F800007E
F800007E
F800007E
F800007E
F800007E
F800007C
F800007C
FC00007C
FC00007C
7C0000FC
7C0000F8
7E0000F8
3E0001F8
3F0003F0
3F8003F0
1FC00FE0
0FF03FE0
0FFFFFC0
07FFFF80
01FFFF00
00FFFC00
001FF000
ENDCHAR
STARTCHAR 0050
ENCODING 80
SWIDTH 593 0
DWIDTH 38 0
BBX 29 45 6 0
BITMAP
FFFFF000
FFFFFE00
FFFFFF00
FFFFFFC0
FFFFFFC0
F8001FE0
F80007F0
F80003F0
F80003F0
F80001F0
F80001F8
F80001F8
F80001F8
F80001F8
F80001F8
F80001F8
F80001F0
F80003F0
F80003F0
F80007F0
F8001FE0
FFFFFFC0
FFFFFFC0
FFFFFF00
FFFFFE00
FFFFF000
F8000000
F8000000
F8000000
F8000000
F8000000
F8000000
F8000000
F8000000
F8000000
F8000000
F8000000
F8000000
F8000000
F8000000
F8000000
F8000000
F8000000
F8000000
F8000000
ENDCHAR
STARTCHAR 0051
ENCODING 81
SWIDTH 593 0
DWIDTH 38 0
BBX 31 57 4 -12
BITMAP
001FE000
00FFFC00
01FFFF00
07FFFF80
0FFFFFC0
0FF03FE0
1FC00FE0
3F8003F0
3F0003F0
3E0001F8
7E0000F8
7C0000F8
7C0000FC
FC00007C
FC00007C
F800007C
F800007C
F800007E
F800007E
F800007E
F800007E
F800007E
F800007E
F800007E
F800007E
F800007E
F800007E
F800007E
F800007E
F800007C
F800007C
FC00007C
FC00007C
7C0000FC
7C0000F8
7E0000F8
3E0001F8
3F0003F0
3F8003F0
1FC00FE0
0FF03FE0
0FFFFFC0
07FFFF80
03FFFF00
00FFFE00
003FF000
0007C000
0007C000
0007C000
0007C000
0007C000
0007C000
0007FFE0
0003FFE0
0003FFE0
0001FFE0
00007FE0
ENDCHAR
STARTCHAR 0052
ENCODING 82
SWIDTH 593 0
DWIDTH 38 0
BBX 29 45 6 0
BITMAP
FFFFF000
FFFFFE00
FFFFFF00
FFFFFFC0
FFFFFFC0
F8001FE0
F80007F0
F80003F0
F80003F0
F80001F0
F80001F8
F80001F8
F80001F8
F80001F8
F80001F8
F80001F8
F80001F0
F80003F0
F80003F0
F80007E0
F8001FE0
FFFFFFC0
FFFFFF80
FFFFFF00
FFFFFE00
FFFFE000
F807C000
F807E000
F803E000
F803F000
F801F800
F801F800
F800FC00
F8007C00
F8007E00
F8003F00
F8003F00
F8001F80
F8001F80
F8000FC0
F80007C0
F80007E0
F80003F0
F80003F0
F80001F8
ENDCHAR
STARTCHAR 0053
ENCODING 83
SWIDTH 593 0
DWIDTH 38 0
BBX 32 46 3 -1
BITMAP
001FF800
00FFFF00
03FFFFC0
07FFFFF0
0FFFFFF8
1FF00FFC
1FC001FE
3F8000FE
3F00003C
3E000018
3E000010
7E000000
7E000000
7E000000
3E000000
3F000000
3F000000
3F800000
1FE00000
1FFE0000
0FFFF000
07FFFF00
01FFFFC0
007FFFF0
000FFFF8
00003FFC
000003FC
000000FE
0000007E
0000003E
0000003F
0000003F
0000003F
0000003F
0000003F
1800003E
7C00007E
FE00007E
FF0000FE
7FC001FC
3FF00FF8
1FFFFFF8
07FFFFF0
03FFFFC0
00FFFF00
001FF800
ENDCHAR
STARTCHAR 0054
ENCODING 84
SWIDTH 593 0
DWIDTH 38 0
BBX 35 45 2 0
BITMAP
FFFFFFFFE0
FFFFFFFFE0
FFFFFFFFE0
FFFFFFFFE0
FFFFFFFFE0
0001F00000
0001F00000
0001F00000
0001F00000
0001F00000
0001F00000
0001F00000
0001F00000
0001F00000
0001F00000
0001F00000
0001F00000
0001F00000
0001F00000
0001F00000
0001F00000
0001F00000
0001F00000
0001F00000
0001F00000
0001F00000
0001F00000
0001F00000
0001F00000
0001F00000
0001F00000
0001F00000
0001F00000
0001F00000
0001F00000
0001F00000
0001F00000
0001F00000
0001F00000
0001F00000
0001F00000
0001F00000
0001F00000
0001F00000
0001F00000
ENDCHAR
STARTCHAR 0055
ENCODING 85
SWIDTH 593 0
DWIDTH 38 0
BBX 28 46 5 -1
BITMAP
FC0001F0
FC0001F0
FC0001F0
FC0001F0
FC0001F0
FC0001F0
FC0001F0
FC0001F0
FC0001F0
FC0001F0
FC0001F0
FC0001F0
FC0001F0
FC0001F0
FC0001F0
FC0001F0
FC0001F0
FC0001F0
FC0001F0
FC0001F0
FC0001F0
FC0001F0
FC0001F0
FC0001F0
FC0001F0
FC0001F0
FC0001F0
FC0001F0
FC0001F0
FC0001F0
FC0001F0
FC0001F0
FC0001F0
FC0001F0
7C0003F0
7C0003F0
7C0003E0
7E0003E0
7E0007E0
3F000FE0
3FC03FC0
1FFFFF80
0FFFFF80
07FFFF00
03FFFC00
007FE000
ENDCHAR
STARTCHAR 0056
ENCODING 86
SWIDTH 593 0
DWIDTH 38 0
BBX 34 45 2 0
BITMAP
FC00000FC0
7C00000FC0
7E00000F80
7E00000F80
3E00001F80
3F00001F00
3F00001F00
3F00003F00
1F00003F00
1F80003E00
1F80003E00
0F80007E00
0FC0007C00
0FC0007C00
07C0007C00
07C000FC00
07E000F800
07E000F800
03E001F800
03E001F000
03F001F000
01F001F000
01F003E000
01F803E000
00F803E000
00F807E000
00F807C000
00FC07C000
007C07C000
007C0F8000
007E0F8000
003E0F8000
003E1F8000
003E1F0000
003F1F0000
001F1F0000
001F3E0000
001FBE0000
000FBE0000
000FFC0000
000FFC0000
0007FC0000
0007FC0000
0007F80000
0007F80000
ENDCHAR
STARTCHAR 0057
ENCODING 87
SWIDTH 593 0
DWIDTH 38 0
BBX 34 45 2 0
BITMAP
F8000007C0
F8000007C0
F8000007C0
78000007C0
78000007C0
78000007C0
7C000007C0
7C000007C0
7C00000780
7C00000780
7C00000780
7C00000780
7C03F00780
7C03F80F80
7C03F80F80
7C07F80F80
3C07F80F80
3C07F80F80
3C07FC0F80
3C07BC0F80
3E0FBC0F80
3E0F3C0F00
3E0F3E0F00
3E0F3E0F00
3E0F1E0F00
3E1E1E0F00
3E1E1E0F00
3E1E1F1F00
3E1E0F1F00
1E3E0F1F00
1E3C0F1F00
1E3C0F1F00
1E3C0F9F00
1E3C079F00
1F7C079E00
1F78079E00
1F7807DE00
1F7807DE00
1F7803DE00
1FF803FE00
1FF003FE00
1FF003FE00
0FF003FE00
0FF001FE00
0FF001FE00
ENDCHAR
STARTCHAR 0058
ENCODING 88
SWIDTH 593 0
DWIDTH 38 0
BBX 35 45 2 0
BITMAP
FE00000FC0
7E00000F80
3F00001F80
1F80003F00
1F80003F00
0FC0007E00
07C000FC00
07E000FC00
03F001F800
03F001F000
01F803F000
00F807E000
00FC07E000
007E0FC000
003E0F8000
003F1F8000
001FBF0000
001FBE0000
000FFE0000
0007FC0000
0007F80000
0003F80000
0003F80000
0007F80000
0007FC0000
000FFE0000
001FBE0000
001F3F0000
003F1F8000
007E1F8000
007E0FC000
00FC07C000
00F807E000
01F803F000
03F003F000
03F001F800
07E000FC00
0FC000FC00
0FC0007E00
1F80007E00
3F00003F00
3F00001F80
7E00001F80
7E00000FC0
FC00000FE0
ENDCHAR
STARTCHAR 0059
ENCODING 89
SWIDTH 593 0
DWIDTH 38 0
BBX 36 45 1 0
BITMAP
FE000003F0
7E000007E0
7F000007E0
3F00000FC0
1F80000FC0
1F80001F80
0FC0001F80
0FC0003F00
07E0003F00
07E0007E00
03F0007C00
01F800FC00
01F801F800
00FC01F800
00FC03F000
007E03F000
007E07E000
003F07C000
001F0FC000
001F8F8000
000F9F8000
000FDF0000
0007FF0000
0007FE0000
0003FC0000
0003FC0000
0001F80000
0000F80000
0000F80000
0000F80000
0000F80000
0000F80000
0000F80000
0000F80000
0000F80000
0000F80000
0000F80000
0000F80000
0000F80000
0000F80000
0000F80000
0000F80000
0000F80000
0000F80000
0000F80000
ENDCHAR
STARTCHAR 005A
ENCODING 90
SWIDTH 593 0
DWIDTH 38 0
BBX 32 45 3 0
BITMAP
7FFFFFFE
7FFFFFFE
7FFFFFFE
7FFFFFFE
7FFFFFFE
0000007E
000000FC
000000FC
000001F8
000003F0
000007E0
000007E0
00000FC0
00001F80
00003F00
00003F00
00007E00
0000FC00
0000FC00
0001F800
0003F000
0007E000
0007E000
000FC000
001F8000
003F0000
003F0000
007E0000
00FC0000
00FC0000
01F80000
03F00000
07E00000
07E00000
0FC00000
1F800000
1F000000
3F000000
7E000000
FC000000
FFFFFFFF
FFFFFFFF
FFFFFFFF
FFFFFFFF
FFFFFFFF
ENDCHAR
STARTCHAR 005B
ENCODING 91
SWIDTH 593 0
DWIDTH 38 0
BBX 18 58 14 -9
BITMAP
FFFFC0
FFFFC0
FFFFC0
FFFFC0
FFFFC0
F80000
F80000
F80000
F80000
F80000
F80000
F80000
F80000
F80000
F80000
F80000
F80000
F80000
F80000
F80000
F80000
F80000
F80000
F80000
F80000
F80000
F80000
F80000
F80000
F80000
F80000
F80000
F80000
F80000
F80000
F80000
F80000
F80000
F80000
F80000
F80000
F80000
F80000
F80000
F80000
F80000
F80000
F80000
F80000
F80000
F80000
F80000
F80000
FFFFC0
FFFFC0
FFFFC0
FFFFC0
FFFFC0
ENDCHAR
STARTCHAR 005C
ENCODING 92
SWIDTH 593 0
DWIDTH 38 0
BBX 27 58 6 -9
BITMAP
F8000000
F8000000
78000000
7C000000
7C000000
3C000000
3E000000
1E000000
1F000000
1F000000
0F000000
0F800000
07800000
07C00000
07C00000
03C00000
03E00000
03E00000
01E00000
01F00000
00F00000
00F80000
00F80000
00780000
007C0000
003C0000
003E0000
003E0000
001E0000
001F0000
001F0000
000F0000
000F8000
00078000
0007C000
0007C000
0003C000
0003E000
0001E000
0001F000
0001F000
0000F000
0000F800
0000F800
00007800
00007C00
00003C00
00003E00
00003E00
00001E00
00001F00
00000F00
00000F80
00000F80
00000780
000007C0
000007C0
000003E0
ENDCHAR
STARTCHAR 005D
ENCODING 93
SWIDTH 593 0
DWIDTH 38 0
BBX 18 58 6 -9
BITMAP
FFFFC0
FFFFC0
FFFFC0
FFFFC0
FFFFC0
0003C0
0003C0
0003C0
0003C0
0003C0
0003C0
0003C0
0003C0
0003C0
0003C0
0003C0
0003C0
0003C0
0003C0
0003C0
0003C0
0003C0
0003C0
0003C0
0003C0
0003C0
0003C0
0003C0
0003C0
0003C0
0003C0
0003C0
0003C0
0003C0
0003C0
0003C0
0003C0
0003C0
0003C0
0003C0
0003C0
0003C0
0003C0
0003C0
0003C0
0003C0
0003C0
0003C0
0003C0
0003C0
0003C0
0003C0
0003C0
FFFFC0
FFFFC0
FFFFC0
FFFFC0
FFFFC0
ENDCHAR
STARTCHAR 005E
ENCODING 94
SWIDTH 593 0
DWIDTH 38 0
BBX 33 26 3 19
BITMAP
0007E00000
000FF00000
000FF00000
001FF80000
001FFC0000
003E7C0000
003E7E0000
007C3E0000
007C3F0000
00F81F0000
01F80F8000
01F00F8000
03E007C000
03E007E000
07C003E000
07C003F000
0F8001F000
0F8001F800
1F0000F800
1F00007C00
3E00007C00
7E00003E00
7C00003F00
F800001F00
F800001F80
3000000C00
ENDCHAR
STARTCHAR 005F
ENCODING 95
SWIDTH 593 0
DWIDTH 38 0
BBX 31 5 4 -11
BITMAP
FFFFFFFE
FFFFFFFE
FFFFFFFE
FFFFFFFE
FFFFFFFE
ENDCHAR
STARTCHAR 0060
ENCODING 96
SWIDTH 593 0
DWIDTH 38 0
BBX 10 12 12 37
BITMAP
1800
7C00
FC00
7E00
3E00
3F00
1F00
0F80
0F80
07C0
03C0
0300
ENDCHAR
STARTCHAR 0061
ENCODING 97
SWIDTH 593 0
DWIDTH 38 0
BBX 31 35 4 -1
BITMAP
003FC000
01FFF800
07FFFE00
0FFFFF00
1FFFFF80
3FC07F80
3F001FC0
7E000FC0
1C0007C0
080007E0
000007E0
000007E0
000007E0
000007E0
000007E0
007FFFE0
07FFFFE0
0FFFFFE0
3FFFFFE0
3FC007E0
7E0007E0
7C0007E0
FC0007E0
FC0007E0
FC0007E0
FC0007E0
FC0007E0
FC000FE0
7E001BE0
7F80FBFE
3FFFF3FE
1FFFF1FE
0FFFE0FE
07FFC07E
01FE0000
ENDCHAR
STARTCHAR 0062
ENCODING 98
SWIDTH 593 0
DWIDTH 38 0
BBX 29 48 6 -1
BITMAP
F8000000
F8000000
F8000000
F8000000
F8000000
F8000000
F8000000
F8000000
F8000000
F8000000
F8000000
F8000000
F8000000
F80FE000
F83FFC00
F8FFFE00
F9FFFF00
F9FFFF80
FBC07FC0
FF001FC0
FE000FE0
FC0007E0
FC0003F0
F80003F0
F80001F0
F80001F0
F80001F0
F80001F0
F80001F8
F80001F8
F80001F8
F80001F8
F80001F8
F80001F0
F80001F0
F80001F0
F80001F0
F80003F0
FC0003F0
FC0007E0
FE000FE0
FF001FC0
FBC07FC0
F9FFFF80
F9FFFF00
F8FFFE00
F83FFC00
000FE000
ENDCHAR
STARTCHAR 0063
ENCODING 99
SWIDTH 593 0
DWIDTH 38 0
BBX 28 35 5 -1
BITMAP
001FE000
00FFFC00
01FFFE00
03FFFF00
07FFFF80
0FF03FC0
1FC007E0
1F8003E0
3F0003F0
3E000180
7E000000
7C000000
7C000000
7C000000
7C000000
FC000000
FC000000
FC000000
FC000000
FC000000
7C000000
7C000000
7C000000
7C000000
7E000080
3E0000C0
3F0001F0
3F8003F0
1FC007E0
0FF01FC0
07FFFFC0
03FFFF80
01FFFF00
00FFFC00
001FF000
ENDCHAR
STARTCHAR 0064
ENCODING 100
SWIDTH 593 0
DWIDTH 38 0
BBX 28 48 4 -1
BITMAP
000001F0
000001F0
000001F0
000001F0
000001F0
000001F0
000001F0
000001F0
000001F0
000001F0
000001F0
000001F0
000001F0
007F01F0
01FFE1F0
07FFF1F0
0FFFF9F0
1FFFFDF0
1FE03DF0
3F800FF0
3F0003F0
7E0003F0
7C0001F0
7C0001F0
FC0001F0
FC0001F0
F80001F0
F80001F0
F80001F0
F80001F0
F80001F0
F80001F0
F80001F0
F80001F0
F80001F0
FC0001F0
FC0001F0
7C0001F0
7E0001F0
7E0003F0
3F0003F0
3F800FF0
1FE03DF0
1FFFFDF0
0FFFF9F0
07FFF1F0
01FFE1F0
007F0000
ENDCHAR
STARTCHAR 0065
ENCODING 101
SWIDTH 593 0
DWIDTH 38 0
BBX 30 35 4 -1
BITMAP
001FE000
007FFC00
01FFFF00
03FFFF80
07FFFFC0
0FF01FE0
1FC007E0
1F8003F0
3F0001F8
3E0001F8
7E0000F8
7C0000FC
7C0000FC
7C00007C
FC00007C
FFFFFFFC
FFFFFFFC
FFFFFFFC
FFFFFFFC
FC000000
FC000000
7C000000
7C000000
7C000000
7C000000
3E000040
3F0000F0
1F8001F8
1FC003F8
0FF01FF0
07FFFFE0
03FFFFC0
01FFFF80
007FFE00
000FF000
ENDCHAR
STARTCHAR 0066
ENCODING 102
SWIDTH 593 0
DWIDTH 38 0
BBX 30 47 5 0
BITMAP
0000FFFC
0003FFFC
0007FFFC
000FFFFC
000FFFFC
000F8000
001F8000
001F8000
001F8000
001F8000
001F8000
001F8000
001F8000
001F8000
FFFFFFFC
FFFFFFFC
FFFFFFFC
FFFFFFFC
FFFFFFFC
001F8000
001F8000
001F8000
001F8000
001F8000
001F8000
001F8000
001F8000
001F8000
001F8000
001F8000
001F8000
001F8000
001F8000
001F8000
001F8000
001F8000
001F8000
001F8000
001F8000
001F8000
001F8000
001F8000
FFFFFFF0
FFFFFFF0
FFFFFFF0
FFFFFFF0
FFFFFFF0
ENDCHAR
STARTCHAR 0067
ENCODING 103
SWIDTH 593 0
DWIDTH 38 0
BBX 32 52 4 -14
BITMAP
000001FF
000003FF
000003FF
000003FF
001FE3FF
00FFFF00
01FFFF00
07FFFF00
0FFFFF80
0FE01FC0
1F8007E0
1F8003E0
1F0003E0
3F0003F0
3F0003F0
3F0003F0
3F0003F0
3F0003F0
1F0003F0
1F8003E0
1F8007E0
0FE01FC0
0FFFFFC0
07FFFF80
03FFFF00
00FFFC00
01FFE000
07C00000
0F000000
1E000000
1E000000
1E000000
1F800000
1FFFFF80
1FFFFFF0
0FFFFFF8
03FFFFFC
07FFFFFE
1E0000FE
3C00003F
7800001F
7800001F
F800001F
F800001F
FC00003F
FE00007E
7F8003FE
7FFFFFFC
3FFFFFF8
1FFFFFF0
07FFFFC0
00FFFC00
ENDCHAR
STARTCHAR 0068
ENCODING 104
SWIDTH 593 0
DWIDTH 38 0
BBX 27 47 6 0
BITMAP
F8000000
F8000000
F8000000
F8000000
F8000000
F8000000
F8000000
F8000000
F8000000
F8000000
F8000000
F8000000
F8000000
F80FE000
F83FF800
F8FFFE00
F9FFFF00
F9FFFF00
FBC07F80
FB001F80
FE000FC0
FC000FC0
FC0007C0
F80007C0
F80007C0
F80007E0
F80007E0
F80007E0
F80007E0
F80007E0
F80007E0
F80007E0
F80007E0
F80007E0
F80007E0
F80007E0
F80007E0
F80007E0
F80007E0
F80007E0
F80007E0
F80007E0
F80007E0
F80007E0
F80007E0
F80007E0
F80007E0
ENDCHAR
STARTCHAR 0069
ENCODING 105
SWIDTH 593 0
DWIDTH 38 0
BBX 28 48 7 0
BITMAP
000F8000
001FC000
003FC000
003FC000
003FC000
003FC000
001FC000
000F8000
00000000
00000000
00000000
00000000
00000000
00000000
00000000
FFFF8000
FFFF8000
FFFF8000
FFFF8000
FFFF8000
000F8000
000F8000
000F8000
000F8000
000F8000
000F8000
000F8000
000F8000
000F8000
000F8000
000F8000
000F8000
000F8000
000F8000
000F8000
000F8000
000F8000
000F8000
000F8000
000F8000
000F8000
000F8000
000F8000
FFFFFFF0
FFFFFFF0
FFFFFFF0
FFFFFFF0
FFFFFFF0
ENDCHAR
STARTCHAR 006A
ENCODING 106
SWIDTH 593 0
DWIDTH 38 0
BBX 23 61 6 -13
BITMAP
00007C
0000FE
0001FE
0001FE
0001FE
0001FE
0000FE
00007C
000000
000000
000000
000000
000000
000000
000000
FFFFFC
FFFFFC
FFFFFC
FFFFFC
FFFFFC
00007C
00007C
00007C
00007C
00007C
00007C
00007C
00007C
00007C
00007C
00007C
00007C
00007C
00007C
00007C
00007C
00007C
00007C
00007C
00007C
00007C
00007C
00007C
00007C
00007C
00007C
00007C
00007C
00007C
00007C
00007C
00007C
00007C
00007C
00007C
000078
7FFFF8
7FFFF8
7FFFF0
7FFFE0
7FFFC0
ENDCHAR
STARTCHAR 006B
ENCODING 107
SWIDTH 593 0
DWIDTH 38 0
BBX 30 47 7 0
BITMAP
F8000000
F8000000
F8000000
F8000000
F8000000
F8000000
F8000000
F8000000
F8000000
F8000000
F8000000
F8000000
F8000000
F8000000
F80007F0
F8000FE0
F8001FC0
F8003F00
F8007E00
F800FC00
F801F800
F803F000
F807E000
F80FC000
F83F8000
F87F0000
F8FE0000
F9FE0000
FBFF0000
FFFF0000
FFDF8000
FF8FC000
FF07E000
FE07E000
F803F000
F801F800
F800FC00
F800FE00
F8007E00
F8003F00
F8001F80
F8001FC0
F8000FC0
F80007E0
F80003F0
F80003F8
F80001FC
ENDCHAR
STARTCHAR 006C
ENCODING 108
SWIDTH 593 0
DWIDTH 38 0
BBX 28 47 5 0
BITMAP
FFFF8000
FFFF8000
FFFF8000
FFFF8000
FFFF8000
000F8000
000F8000
000F8000
000F8000
000F8000
000F8000
000F8000
000F8000
000F8000
000F8000
000F8000
000F8000
000F8000
000F8000
000F8000
000F8000
000F8000
000F8000
000F8000
000F8000
000F8000
000F8000
000F8000
000F8000
000F8000
000F8000
000F8000
000F8000
000F8000
000F8000
000F8000
000F8000
000F8000
000F8000
000F8000
000F8000
000F8000
FFFFFFF0
FFFFFFF0
FFFFFFF0
FFFFFFF0
FFFFFFF0
ENDCHAR
STARTCHAR 006D
ENCODING 109
SWIDTH 593 0
DWIDTH 38 0
BBX 32 34 3 0
BITMAP
007C03F0
F8FF07FC
F9FF8FFC
FBFF9FFE
FBFF9FFE
FB0FF87E
FC07F03F
FC07E01F
F803E01F
F803E01F
F803E01F
F803E01F
F803E01F
F803E01F
F803E01F
F803E01F
F803E01F
F803E01F
F803E01F
F803E01F
F803E01F
F803E01F
F803E01F
F803E01F
F803E01F
F803E01F
F803E01F
F803E01F
F803E01F
F803E01F
F803E01F
F803E01F
F803E01F
F803E01F
ENDCHAR
STARTCHAR 006E
ENCODING 110
SWIDTH 593 0
DWIDTH 38 0
BBX 27 34 6 0
BITMAP
000FE000
F83FF800
F8FFFE00
F9FFFF00
F9FFFF00
FBC07F80
FB001F80
FE000FC0
FC000FC0
FC0007C0
F80007C0
F80007C0
F80007E0
F80007E0
F80007E0
F80007E0
F80007E0
F80007E0
F80007E0
F80007E0
F80007E0
F80007E0
F80007E0
F80007E0
F80007E0
F80007E0
F80007E0
F80007E0
F80007E0
F80007E0
F80007E0
F80007E0
F80007E0
F80007E0
ENDCHAR
STARTCHAR 006F
ENCODING 111
SWIDTH 593 0
DWIDTH 38 0
BBX 30 35 4 -1
BITMAP
001FE000
00FFFC00
01FFFF00
07FFFF80
0FFFFFC0
0FF01FE0
1FC007E0
3F0003F0
3E0001F0
7E0000F8
7C0000F8
7C0000F8
7C00007C
FC00007C
FC00007C
FC00007C
FC00007C
FC00007C
FC00007C
FC00007C
FC00007C
FC00007C
7C00007C
7C0000F8
7C0000F8
7E0000F8
3E0001F0
3F0003F0
1FC007E0
0FF01FE0
0FFFFFC0
07FFFF80
01FFFF00
00FFFC00
001FE000
ENDCHAR
STARTCHAR 0070
ENCODING 112
SWIDTH 593 0
DWIDTH 38 0
BBX 29 47 6 -13
BITMAP
000FE000
F83FFC00
F8FFFE00
F9FFFF00
F9FFFF80
FBC07FC0
FF001FC0
FE000FE0
FC0007E0
FC0003F0
F80003F0
F80001F0
F80001F0
F80001F0
F80001F0
F80001F8
F80001F8
F80001F8
F80001F8
F80001F8
F80001F0
F80001F0
F80001F0
F80001F0
F80003F0
FC0003F0
FC0007E0
FE000FE0
FF001FC0
FBC07FC0
F9FFFF80
F9FFFF00
F8FFFE00
F83FFC00
F80FE000
F8000000
F8000000
F8000000
F8000000
F8000000
F8000000
F8000000
F8000000
F8000000
F8000000
F8000000
F8000000
ENDCHAR
STARTCHAR 0071
ENCODING 113
SWIDTH 593 0
DWIDTH 38 0
BBX 28 47 4 -13
BITMAP
007F0000
01FFE1F0
07FFF1F0
0FFFF9F0
1FFFFDF0
1FE03DF0
3F800FF0
3F0003F0
7E0003F0
7C0001F0
7C0001F0
FC0001F0
FC0001F0
F80001F0
F80001F0
F80001F0
F80001F0
F80001F0
F80001F0
F80001F0
F80001F0
F80001F0
FC0001F0
FC0001F0
7C0001F0
7E0001F0
7E0003F0
3F0003F0
3F800FF0
1FE03DF0
1FFFFDF0
0FFFF9F0
07FFF1F0
01FFE1F0
007F01F0
000001F0
000001F0
000001F0
000001F0
000001F0
000001F0
000001F0
000001F0
000001F0
000001F0
000001F0
000001F0
ENDCHAR
STARTCHAR 0072
ENCODING 114
SWIDTH 593 0
DWIDTH 38 0
BBX 31 33 5 0
BITMAP
FFFE01FE
FFFE0FFE
FFFE1FFE
FFFE3FFE
FFFE7FFE
003EF800
003EE000
003F8000
003F0000
003F0000
003E0000
003E0000
003E0000
003E0000
003E0000
003E0000
003E0000
003E0000
003E0000
003E0000
003E0000
003E0000
003E0000
003E0000
003E0000
003E0000
003E0000
003E0000
FFFFFFF0
FFFFFFF0
FFFFFFF0
FFFFFFF0
FFFFFFF0
ENDCHAR
STARTCHAR 0073
ENCODING 115
SWIDTH 593 0
DWIDTH 38 0
BBX 30 35 4 -1
BITMAP
001FF000
00FFFE00
03FFFF80
07FFFFE0
0FFFFFF0
1FE00FF8
1F8003F0
3F0000E0
3E000040
3E000000
3E000000
3F000000
3F000000
1FC00000
1FFE0000
0FFFF800
07FFFF00
03FFFFC0
00FFFFE0
0007FFF0
00000FF8
000001F8
000000F8
000000F8
000000FC
100000F8
380000F8
7E0000F8
FF0003F8
7FE00FF0
3FFFFFF0
0FFFFFE0
07FFFF80
01FFFF00
003FF000
ENDCHAR
STARTCHAR 0074
ENCODING 116
SWIDTH 593 0
DWIDTH 38 0
BBX 32 45 2 0
BITMAP
000F8000
000F8000
000F8000
000F8000
000F8000
000F8000
000F8000
000F8000
000F8000
000F8000
001F8000
001F8000
FFFFFFFF
FFFFFFFF
FFFFFFFF
FFFFFFFF
FFFFFFFF
001F8000
001F8000
001F8000
001F8000
001F8000
001F8000
001F8000
001F8000
001F8000
001F8000
001F8000
001F8000
001F8000
001F8000
001F8000
001F8000
001F8000
001F8000
001F8000
001F8000
001F8000
000F8000
000F8000
000FFFFF
000FFFFF
0007FFFF
0003FFFF
0000FFFF
ENDCHAR
STARTCHAR 0075
ENCODING 117
SWIDTH 593 0
DWIDTH 38 0
BBX 26 34 6 -1
BITMAP
F80007C0
F80007C0
F80007C0
F80007C0
F80007C0
F80007C0
F80007C0
F80007C0
F80007C0
F80007C0
F80007C0
F80007C0
F80007C0
F80007C0
F80007C0
F80007C0
F80007C0
F80007C0
F80007C0
F80007C0
F80007C0
F80007C0
F80007C0
F80007C0
FC0007C0
FC000FC0
7E000FC0
7F003FC0
7FC0F7C0
3FFFF7C0
1FFFE7C0
0FFFC7C0
07FF87C0
00FE0000
ENDCHAR
STARTCHAR 0076
ENCODING 118
SWIDTH 593 0
DWIDTH 38 0
BBX 30 33 4 0
BITMAP
F800007C
7C00007C
7C0000F8
7C0000F8
3E0000F8
3E0001F0
3F0001F0
1F0001F0
1F0003E0
1F8003E0
0F8003E0
0F8007C0
07C007C0
07C00780
07C00F80
03E00F80
03E00F00
03E01F00
01F01F00
01F01E00
01F03E00
00F83E00
00F83C00
00787C00
007C7C00
007CF800
003CF800
003EF000
003FF000
001FF000
001FE000
001FE000
000FE000
ENDCHAR
STARTCHAR 0077
ENCODING 119
SWIDTH 593 0
DWIDTH 38 0
BBX 34 33 2 0
BITMAP
F803F003C0
F803F003C0
F803F803C0
F803F803C0
7803F807C0
7807B807C0
7807B807C0
7807BC0780
7C073C0780
7C073C0780
3C0F3C0780
3C0F1C0780
3C0F1E0F80
3C0E1E0F00
3C0E1E0F00
3C1E1E0F00
3E1E0E0F00
1E1E0E0F00
1E1C0F0F00
1E1C0F0F00
1E3C0F1E00
1E3C071E00
1E3C071E00
0F38079E00
0F38079E00
0F78079E00
0F78039C00
0F7803BC00
0F7803FC00
0FF003FC00
07F003FC00
07F003FC00
07F001FC00
ENDCHAR
STARTCHAR 0078
ENCODING 120
SWIDTH 593 0
DWIDTH 38 0
BBX 31 33 4 0
BITMAP
FE0000FC
7E0001F8
3F0001F0
1F8003F0
0FC007E0
0FC00FC0
07E00F80
03F01F80
03F03F00
01F83E00
00FC7C00
007EFC00
007FF800
003FF000
001FE000
000FE000
000FC000
001FE000
001FF000
003FF800
007DF800
00FCFC00
00F87E00
01F03F00
03F03F00
07E01F80
07C00FC0
0FC00FE0
1F8007E0
3F0003F0
3F0001F8
7E0001F8
FC0000FE
ENDCHAR
STARTCHAR 0079
ENCODING 121
SWIDTH 593 0
DWIDTH 38 0
BBX 32 46 3 -13
BITMAP
FC00001F
7C00003E
7E00003E
3E00007E
3E00007C
1F00007C
1F0000F8
1F8000F8
0F8001F8
0F8001F0
07C001F0
07C003E0
03E003E0
03E007E0
03E007C0
01F007C0
01F00F80
00F80F80
00F81F80
00F81F00
007C1F00
007C3E00
003E3E00
003E3C00
003E7C00
001F7C00
001FF800
000FF800
000FF000
000FF000
0007F000
0007E000
0003E000
0007C000
0007C000
000FC000
000F8000
001F8000
001F0000
001F0000
003F0000
3FFE0000
3FFE0000
3FFC0000
3FF80000
3FE00000
ENDCHAR
STARTCHAR 007A
ENCODING 122
SWIDTH 593 0
DWIDTH 38 0
BBX 28 33 5 0
BITMAP
7FFFFFE0
7FFFFFE0
7FFFFFE0
7FFFFFE0
7FFFFFE0
000007E0
00000FC0
00001F80
00003F80
00007F00
00007E00
0000FC00
0001F800
0003F000
0007E000
000FC000
001F8000
003F0000
007E0000
00FC0000
01F80000
03F00000
07E00000
0FC00000
1F800000
3F000000
7E000000
FE000000
FFFFFFF0
FFFFFFF0
FFFFFFF0
FFFFFFF0
FFFFFFF0
ENDCHAR
STARTCHAR 007B
ENCODING 123
SWIDTH 593 0
DWIDTH 38 0
BBX 25 58 7 -9
BITMAP
001FFF80
007FFF80
007FFF80
00FFFF80
00FFFF80
00F00000
00F00000
00F00000
00F00000
00F00000
00F00000
00F80000
00780000
00780000
007C0000
003E0000
001E0000
000F0000
000F8000
00078000
0007C000
0003C000
0007C000
0007C000
000FC000
003F8000
FFFF0000
FFFC0000
FFE00000
FFFC0000
FFFF0000
007F8000
000FC000
0007C000
0007C000
0003C000
0007C000
0007C000
00078000
000F0000
001F0000
003E0000
003C0000
007C0000
00780000
00F80000
00F80000
00F00000
00F00000
00F00000
00F00000
00F00000
00F00000
00FFFF80
00FFFF80
007FFF80
007FFF80
001FFF80
ENDCHAR
STARTCHAR 007C
ENCODING 124
SWIDTH 593 0
DWIDTH 38 0
BBX 4 58 17 -9
BITMAP
F0
F0
F0
F0
F0
F0
F0
F0
F0
F0
F0
F0
F0
F0
F0
F0
F0
F0
F0
F0
F0
F0
F0
F0
F0
F0
F0
F0
F0
F0
F0
F0
F0
F0
F0
F0
F0
F0
F0
F0
F0
F0
F0
F0
F0
F0
F0
F0
F0
F0
F0
F0
F0
F0
F0
F0
F0
F0
ENDCHAR
STARTCHAR 007D
ENCODING 125
SWIDTH 593 0
DWIDTH 38 0
BBX 25 58 7 -9
BITMAP
FFFC0000
FFFE0000
FFFF0000
FFFF0000
FFFF0000
000F0000
000F0000
000F0000
000F0000
000F0000
000F0000
000F0000
000F0000
001E0000
001E0000
003C0000
007C0000
00F80000
00F00000
01E00000
01E00000
03E00000
03E00000
03E00000
01F00000
01FE0000
00FFFF80
003FFF80
0007FF80
003FFF80
007FFF80
00FE0000
01F80000
01F00000
03E00000
03E00000
03E00000
01E00000
01F00000
00F00000
00780000
007C0000
003E0000
001E0000
001F0000
000F0000
000F0000
000F0000
000F0000
000F0000
000F0000
000F0000
000F0000
FFFF0000
FFFF0000
FFFF0000
FFFE0000
FFFC0000
ENDCHAR
STARTCHAR 007E
ENCODING 126
SWIDTH 593 0
DWIDTH 38 0
BBX 32 15 3 12
BITMAP
01F0000C
07FC000F
0FFE000F
0FFF001F
1FFF801E
1F1FC01E
3E0FC03E
3C07E03C
3C03F07C
7C01F8FC
7800FFF8
7800FFF8
78007FF0
F8001FE0
30000F80
ENDCHAR
STARTCHAR 00A0
ENCODING 160
SWIDTH 593 0
DWIDTH 38 0
BBX 0 0 0 0
BITMAP
ENDCHAR
STARTCHAR 00A1
ENCODING 161
SWIDTH 593 0
DWIDTH 38 0
BBX 10 46 14 -12
BITMAP
3F00
7F80
7FC0
FFC0
FFC0
FFC0
7FC0
7F80
3F00
0000
0000
0000
0000
0000
0000
0000
0C00
0C00
0C00
0E00
0E00
0E00
1E00
1E00
1E00
1E00
1E00
1E00
1F00
1F00
1F00
1F00
3F00
3F00
3F00
3F00
3F00
3F00
3F00
3F00
3F00
3F00
3F00
3F00
3F00
3F00
ENDCHAR
STARTCHAR 00A2
ENCODING 162
SWIDTH 593 0
DWIDTH 38 0
BBX 28 49 5 -8
BITMAP
00078000
00078000
00078000
00078000
00078000
00078000
00078000
001FF000
00FFFC00
01FFFF00
07FFFF80
0FFFFF80
0FE79FC0
1F8787E0
3F0783E0
3F0781D0
3E078180
7E078000
7C078000
7C078000
7C078000
FC078000
FC078000
FC078000
FC078000
FC078000
FC078000
7C078000
7C078000
7C078000
7C078000
7E078100
3E0780C0
3F0781E0
3F0783F0
1F8787E0
0FE78FE0
0FFFFFC0
07FFFF80
03FFFF00
00FFFC00
001FF000
00078000
00078000
00078000
00078000
00078000
00078000
00078000
ENDCHAR
STARTCHAR 00A3
ENCODING 163
SWIDTH 593 0
DWIDTH 38 0
BBX 32 45 3 0
BITMAP
0003FE00
001FFFC0
007FFFE0
01FFFFF8
03FFFFFC
03FC03FE
07F000FE
0FE0007F
0FC0001E
0F80001C
1F800010
1F800000
1F800000
1F800000
1F800000
1F800000
0F800000
0F800000
0FC00000
0FC00000
07C00000
07E00000
FFFFFF00
FFFFFF00
FFFFFF00
FFFFFF00
FFFFFF00
01F00000
01F00000
01F00000
01F00000
01F00000
01F00000
03E00000
03E00000
07E00000
07C00000
0F800000
3F000000
3E000000
3FFFFFFE
3FFFFFFE
3FFFFFFE
3FFFFFFE
3FFFFFFE
ENDCHAR
STARTCHAR 00A4
ENCODING 164
SWIDTH 593 0
DWIDTH 38 0
BBX 29 41 5 2
BITMAP
300000C0
780000F0
F80001F8
7C0003F0
7E0003E0
3E0007C0
1F3FC7C0
1FFFFF80
0FFFFF80
0FFFFF00
0FFFFF00
1FE07F80
1F801FC0
3F000FC0
3E0007C0
3E0007E0
7E0003E0
7E0003E0
7E0003E0
7E0003E0
7E0003E0
7E0003E0
7E0003E0
7E0003E0
7E0003E0
3E0007E0
3E0007C0
3F000FC0
1F801FC0
1FE07F80
0FFFFF00
0FFFFF00
0FFFFF80
1FFFFF80
1F3FC7C0
3E0007C0
7E0003E0
7C0003F0
F80001F0
780000F8
300000C0
ENDCHAR
STARTCHAR 00A5
ENCODING 165
SWIDTH 593 0
DWIDTH 38 0
BBX 36 45 1 0
BITMAP
FE000003F0
7E000007E0
3F000007E0
3F00000FC0
1F80000FC0
1F80001F80
0FC0001F80
0FC0003F00
07E0003F00
07E0007E00
03F0007E00
03F0007C00
01F800FC00
01F800F800
00F801F000
00FC01F000
007C03E000
007E03E000
003E07C000
003F07C000
001F0F8000
000F8F8000
000F9F0000
0007DF0000
0FFFFFFF80
0FFFFFFF80
0FFFFFFF80
0FFFFFFF80
0FFFFFFF80
0000F80000
0000F80000
0000F80000
0000F80000
0000F80000
0000F80000
0000F80000
0000F80000
0000F80000
0000F80000
0000F80000
0FFFFFFF80
0FFFFFFF80
0FFFFFFF80
0FFFFFFF80
0FFFFFFF80
ENDCHAR
STARTCHAR 00A6
ENCODING 166
SWIDTH 593 0
DWIDTH 38 0
BBX 4 58 17 -9
BITMAP
F0
F0
F0
F0
F0
F0
F0
F0
F0
F0
F0
F0
F0
F0
F0
F0
F0
F0
F0
F0
F0
F0
F0
00
00
00
00
00
00
00
00
00
00
00
00
F0
F0
F0
F0
F0
F0
F0
F0
F0
F0
F0
F0
F0
F0
F0
F0
F0
F0
F0
F0
F0
F0
F0
ENDCHAR
STARTCHAR 00A7
ENCODING 167
SWIDTH 593 0
DWIDTH 38 0
BBX 28 55 5 -10
BITMAP
001FF000
00FFFE00
03FFFF00
07FFFFC0
0FFFFFC0
0FF01F80
1F800700
1F000200
1F000000
3F000000
3F000000
1F000000
1F000000
1F800000
1FC00000
0FF80000
07FF0000
03FFF000
01FFFC00
03FFFF00
0F9FFF80
1F01FFC0
3E003FE0
7C0007F0
7C0003F0
780001F0
F80001F0
F80001F0
FC0001F0
FC0001F0
7E0001F0
7F0001E0
7FC003C0
3FFC0780
1FFF8F00
0FFFFC00
03FFFC00
007FFE00
000FFF00
0000FF80
00003F80
00000FC0
00000FC0
000007C0
000007C0
000007C0
000007C0
04000FC0
0E001F80
0FC07F80
1FFFFF00
3FFFFE00
0FFFFC00
03FFF800
007FC000
ENDCHAR
STARTCHAR 00A8
ENCODING 168
SWIDTH 593 0
DWIDTH 38 0
BBX 19 7 10 39
BITMAP
7C07C0
FE0FC0
FE0FE0
FE1FE0
FE0FE0
FE0FC0
7C0780
ENDCHAR
STARTCHAR 00A9
ENCODING 169
SWIDTH 593 0
DWIDTH 38 0
BBX 38 43 0 1
BITMAP
0001FF0000
000FFFE000
003FFFF800
00FE01FC00
01F8003E00
03E0001F80
07C0000780
0F800003C0
0F000001E0
1E00FE01E0
3C03FF80F0
3C07FFC070
380F83E078
780F01E078
781E01F03C
701E00803C
F03E00003C
F03C00003C
F03C00003C
F03C00003C
F03C00003C
F03C00003C
F03C00003C
F03C00003C
F03C00003C
F03C00003C
F03E00003C
701E00C03C
781E00E03C
781F01F078
380F83E078
3C07FFC070
3C03FF80F0
1E00FE01F0
1F000001E0
0F800003C0
07C0000780
03E0001F80
01F8003F00
00FE01FC00
003FFFF800
000FFFE000
0001FF0000
ENDCHAR
STARTCHAR 00AA
ENCODING 170
SWIDTH 593 0
DWIDTH 38 0
BBX 21 22 9 23
BITMAP
03F800
1FFE00
3FFF00
7C0F80
7807C0
3003C0
0003C0
0003C0
0003C0
0003C0
07FFC0
3FFFC0
7FFFC0
FC03C0
F003C0
F003C0
F003C0
F007C0
F81FC0
7FFFF8
3FF9F8
0FE0F8
ENDCHAR
STARTCHAR 00AB
ENCODING 171
SWIDTH 593 0
DWIDTH 38 0
BBX 29 27 5 4
BITMAP
00080010
001C0030
003C0078
007C01F8
00FE03F0
03F807E0
07F00FC0
0FE01F80
1FC07F80
7F80FF00
FF01FE00
FE03FC00
FC03F800
F803F000
FC03F800
FE03FC00
FF01FE00
7F80FF00
1FC07F80
0FE01F80
07F00FC0
03F807E0
01FC03F0
007E01F8
003C0078
001C0030
00080010
ENDCHAR
STARTCHAR 00AC
ENCODING 172
SWIDTH 593 0
DWIDTH 38 0
BBX 29 17 4 5
BITMAP
FFFFFFF8
FFFFFFF8
FFFFFFF8
FFFFFFF8
FFFFFFF8
00000078
00000078
00000078
00000078
00000078
00000078
00000078
00000078
00000078
00000078
00000078
00000078
ENDCHAR
STARTCHAR 00AD
ENCODING 173
SWIDTH 593 0
DWIDTH 38 0
BBX 18 5 10 17
BITMAP
FFFFC0
FFFFC0
FFFFC0
FFFFC0
FFFFC0
ENDCHAR
STARTCHAR 00AE
ENCODING 174
SWIDTH 593 0
DWIDTH 38 0
BBX 24 22 7 23
BITMAP
007F00
03FFC0
0781F0
1E0078
1C001C
38FE1C
70FF0E
70C38E
70C387
70C387
F0C387
F0FF07
70FE07
70CE07
70C70E
70C38E
38C39C
1C005C
1E0078
0781F0
03FFC0
007F00
ENDCHAR
STARTCHAR 00AF
ENCODING 175
SWIDTH 593 0
DWIDTH 38 0
BBX 18 4 10 41
BITMAP
FFFFC0
FFFFC0
FFFFC0
FFFFC0
ENDCHAR
STARTCHAR 00B0
ENCODING 176
SWIDTH 593 0
DWIDTH 38 0
BBX 22 21 8 24
BITMAP
00FE00
07FF80
0FFFC0
1FFFE0
3F83F0
7E01F8
7C00F8
78007C
F8007C
F8003C
F8003C
F8003C
F8007C
78007C
7C00F8
7E01F8
3F83F0
1FFFE0
0FFFC0
07FF80
00FE00
ENDCHAR
STARTCHAR 00B1
ENCODING 177
SWIDTH 593 0
DWIDTH 38 0
BBX 30 40 4 0
BITMAP
0007C000
0007C000
0007C000
0007C000
0007C000
0007C000
0007C000
0007C000
0007C000
0007C000
0007C000
0007C000
0007C000
FFFFFFFC
FFFFFFFC
FFFFFFFC
FFFFFFFC
FFFFFFFC
0007C000
0007C000
0007C000
0007C000
0007C000
0007C000
0007C000
0007C000
0007C000
0007C000
0007C000
0007C000
00000000
00000000
00000000
00000000
00000000
FFFFFFFC
FFFFFFFC
FFFFFFFC
FFFFFFFC
FFFFFFFC
ENDCHAR
STARTCHAR 00B2
ENCODING 178
SWIDTH 593 0
DWIDTH 38 0
BBX 18 24 10 21
BITMAP
07F800
1FFE00
3FFF00
7C1F00
780F80
F00780
100780
000780
000780
000F80
000F00
001F00
003E00
007C00
00F800
01F000
03C000
0F8000
1F0000
3E0000
7C0000
7FFFC0
7FFFC0
7FFFC0
ENDCHAR
STARTCHAR 00B3
ENCODING 179
SWIDTH 593 0
DWIDTH 38 0
BBX 18 24 10 21
BITMAP
07F000
1FFE00
3FFF00
7C1F80
380F80
100780
000780
000780
000F00
001F00
07FC00
07F000
07FE00
001F00
000780
000780
000780
0007C0
200780
F00F80
FC1F80
7FFF00
3FFE00
07F000
ENDCHAR
STARTCHAR 00B4
ENCODING 180
SWIDTH 593 0
DWIDTH 38 0
BBX 10 12 16 37
BITMAP
0700
07C0
0FC0
0F80
1F80
1F00
3E00
3E00
7C00
7800
F800
1000
ENDCHAR
STARTCHAR 00B5
ENCODING 181
SWIDTH 593 0
DWIDTH 38 0
BBX 26 46 6 -13
BITMAP
F80007C0
F80007C0
F80007C0
F80007C0
F80007C0
F80007C0
F80007C0
F80007C0
F80007C0
F80007C0
F80007C0
F80007C0
F80007C0
F80007C0
F80007C0
F80007C0
F80007C0
F80007C0
F80007C0
F80007C0
F80007C0
F80007C0
FC0007C0
FC0007C0
FC0007C0
FC000FC0
FE000FC0
FF003FC0
FFC0F7C0
FFFFF7C0
FFFFE7C0
FBFFC7C0
F9FF87C0
F87E0000
F8000000
F8000000
F8000000
F8000000
F8000000
F8000000
F8000000
F8000000
F8000000
F8000000
F8000000
F8000000
ENDCHAR
STARTCHAR 00B6
ENCODING 182
SWIDTH 593 0
DWIDTH 38 0
BBX 29 55 3 -10
BITMAP
003FFFF8
00FFFFF8
03FFFFF8
07FFFFF8
0FFFFFF8
1FFFE078
3FFFE078
3FFFE078
7FFFE078
7FFFE078
FFFFE078
FFFFE078
FFFFE078
FFFFE078
FFFFE078
FFFFE078
FFFFE078
FFFFE078
FFFFE078
FFFFE078
7FFFE078
7FFFE078
3FFFE078
3FFFE078
1FFFE078
0FFFE078
07FFE078
03FFE078
00FFE078
003FE078
0003E078
0003E078
0003E078
0003E078
0003E078
0003E078
0003E078
0003E078
0003E078
0003E078
0003E078
0003E078
0003E078
0003E078
0003E078
0003E078
0003E078
0003E078
0003E078
0003E078
0003E078
0003E078
0003E078
0003E078
0003E078
ENDCHAR
STARTCHAR 00B7
ENCODING 183
SWIDTH 593 0
DWIDTH 38 0
BBX 10 9 14 15
BITMAP
3F00
7F80
7FC0
FFC0
FFC0
FFC0
7FC0
7F80
3F00
ENDCHAR
STARTCHAR 00B8
ENCODING 184
SWIDTH 593 0
DWIDTH 38 0
BBX 13 14 14 -13
BITMAP
0E00
0E00
1E00
1C00
1C00
1FE0
07F0
00F8
0078
0078
60F8
FFF8
FFF0
7FC0
ENDCHAR
STARTCHAR 00B9
ENCODING 185
SWIDTH 593 0
DWIDTH 38 0
BBX 19 24 10 21
BITMAP
01F000
07F000
3FF000
FEF000
F8F000
70F000
40F000
00F000
00F000
00F000
00F000
00F000
00F000
00F000
00F000
00F000
00F000
00F000
00F000
00F000
00F000
7FFFE0
7FFFE0
7FFFE0
ENDCHAR
STARTCHAR 00BA
ENCODING 186
SWIDTH 593 0
DWIDTH 38 0
BBX 20 23 9 22
BITMAP
01FC00
0FFF00
1FFF80
3F07C0
3C03E0
7801E0
7801F0
F800F0
F000F0
F000F0
F000F0
F000F0
F000F0
F000F0
F000F0
F800F0
7801F0
7801E0
3C03E0
3F07C0
1FFF80
0FFF00
01FC00
ENDCHAR
STARTCHAR 00BB
ENCODING 187
SWIDTH 593 0
DWIDTH 38 0
BBX 30 27 4 4
BITMAP
40008000
7000C000
7801F000
FC01F800
7E00FC00
3F007E00
1FC03F00
0FE01FC0
07F00FE0
03F807F0
01FC03F8
00FE03FC
007E01FC
003E00FC
007E01FC
00FE03FC
01FC03F8
03F807F0
07F00FE0
0FE01FC0
1FC03F00
3F807E00
7E00FC00
FC01F800
7801F000
7000C000
20008000
ENDCHAR
STARTCHAR 00BC
ENCODING 188
SWIDTH 593 0
DWIDTH 38 0
BBX 36 45 1 0
BITMAP
03F00001F0
0FF00001E0
3FF00003E0
FEF00003C0
78F00007C0
20F0000780
00F0000F80
00F0000F00
00F0001F00
00F0001E00
00F0003E00
00F0007C00
00F0007C00
00F000F800
00F000F000
00F001F000
00F001E000
00F003E000
00F003C000
3FFF840000
3FFF800000
3FFF800000
0000000000
0000000000
0000000F80
0000001F80
003E003F80
003C003B80
007C007380
00F800F380
00F800E380
01F001C380
01F003C380
03E0038380
03C0070380
07C00F0380
07800E0380
0F801C0380
0F001FFFF0
1F001FFFF0
1E001FFFF0
3E00000380
7C00000380
7C00000380
F800000380
ENDCHAR
STARTCHAR 00BD
ENCODING 189
SWIDTH 593 0
DWIDTH 38 0
BBX 36 45 1 0
BITMAP
03F00001F0
0FF00001E0
3FF00003E0
FEF00003C0
78F00007C0
20F0000780
00F0000F80
00F0000F00
00F0001F00
00F0001E00
00F0003E00
00F0007C00
00F0007C00
00F000F800
00F000F000
00F001F000
00F001E000
00F003E000
00F003C000
3FFF840000
3FFF800000
3FFF800000
0000000000
000000FE00
000003FF80
000007FFC0
003E0F87C0
003C0F03E0
007C0701E0
00F80201E0
00F80001E0
01F00003E0
01F00003C0
03E00007C0
03C0000F80
07C0001F00
0780003E00
0F80007C00
0F0000F000
1F0003E000
1E0007C000
3E000F8000
7C000FFFF0
7C000FFFF0
F8000FFFF0
ENDCHAR
STARTCHAR 00BE
ENCODING 190
SWIDTH 593 0
DWIDTH 38 0
BBX 36 45 1 0
BITMAP
07F00001F0
1FFC0001E0
3FFE0003E0
7C3F0003C0
381F0007C0
100F000780
000F000F80
001E000F00
003E001F00
03FC001E00
03E0003E00
03FC007C00
003E007C00
000F00F800
000F00F000
000F01F000
300F01E000
F00F03E000
7C1F03C000
3FFE040000
1FFC000000
07F0000000
0000000000
0000000000
0000000F80
0000001F80
003E003F80
003C003B80
007C007380
00F800F380
00F800E380
01F001C380
01F003C380
03E0038380
03C0070380
07C00F0380
07800E0380
0F801C0380
0F001FFFF0
1F001FFFF0
1E001FFFF0
3E00000380
7C00000380
7C00000380
F800000380
ENDCHAR
STARTCHAR 00BF
ENCODING 191
SWIDTH 593 0
DWIDTH 38 0
BBX 27 46 6 -12
BITMAP
000F8000
003FC000
003FE000
003FE000
003FE000
003FE000
003FE000
003FC000
000F8000
00000000
00000000
00000000
00000000
00000000
00000000
000F8000
000F8000
000F8000
000F8000
000F8000
000F8000
001F8000
00FF8000
03FF8000
07FF8000
1FF00000
3F800000
3F000000
7E000000
7C000000
FC000000
F8000000
F8000000
F8000200
F8000380
F80003E0
FC0007E0
FC0007E0
FE000FC0
7F001FC0
7FC07F80
3FFFFF00
1FFFFE00
0FFFFC00
03FFF000
007F8000
ENDCHAR
STARTCHAR 00C0
ENCODING 192
SWIDTH 593 0
DWIDTH 38 0
BBX 34 60 2 0
BITMAP
0006000000
001F000000
003F000000
001F800000
000F800000
000FC00000
0007C00000
0003E00000
0003E00000
0001F00000
0000F00000
0000C00000
0000000000
0000000000
0000000000
0003F80000
0007F80000
0007FC0000
0007FC0000
000FFC0000
000FFC0000
000FBE0000
001F3E0000
001F3E0000
001F1F0000
003E1F0000
003E1F0000
003E1F8000
003E0F8000
007C0F8000
007C0FC000
007C07C000
00F807C000
00F807C000
00F803E000
01F803E000
01F003E000
01F003F000
01F001F000
03E001F000
03E001F800
03E000F800
07FFFFF800
07FFFFF800
07FFFFFC00
0FFFFFFC00
0FFFFFFC00
0F80007E00
1F80007E00
1F80003E00
1F00003F00
1F00003F00
3F00001F00
3E00001F80
3E00001F80
7E00001F80
7E00000F80
7C00000FC0
FC00000FC0
FC000007C0
ENDCHAR
STARTCHAR 00C1
ENCODING 193
SWIDTH 593 0
DWIDTH 38 0
BBX 34 60 2 0
BITMAP
00001C0000
00001F0000
00003F0000
00003E0000
00007E0000
00007C0000
0000F80000
0000F80000
0001F00000
0001E00000
0003E00000
0000400000
0000000000
0000000000
0000000000
0003F80000
0007F80000
0007FC0000
0007FC0000
000FFC0000
000FFC0000
000FBE0000
001F3E0000
001F3E0000
001F1F0000
003E1F0000
003E1F0000
003E1F8000
003E0F8000
007C0F8000
007C0FC000
007C07C000
00F807C000
00F807C000
00F803E000
01F803E000
01F003E000
01F003F000
01F001F000
03E001F000
03E001F800
03E000F800
07FFFFF800
07FFFFF800
07FFFFFC00
0FFFFFFC00
0FFFFFFC00
0F80007E00
1F80007E00
1F80003E00
1F00003F00
1F00003F00
3F00001F00
3E00001F80
3E00001F80
7E00001F80
7E00000F80
7C00000FC0
FC00000FC0
FC000007C0
ENDCHAR
STARTCHAR 00C2
ENCODING 194
SWIDTH 593 0
DWIDTH 38 0
BBX 34 60 2 0
BITMAP
0003F80000
0007FC0000
000FFC0000
001FFE0000
003F3F0000
003E1F8000
007C0FC000
00F807C000
01F003E000
01E001F000
0040008000
0000000000
0000000000
0000000000
0000000000
0003F80000
0007F80000
0007FC0000
0007FC0000
000FFC0000
000FFC0000
000FBE0000
001F3E0000
001F3E0000
001F1F0000
003E1F0000
003E1F0000
003E1F8000
003E0F8000
007C0F8000
007C0FC000
007C07C000
00F807C000
00F807C000
00F803E000
01F803E000
01F003E000
01F003F000
01F001F000
03E001F000
03E001F800
03E000F800
07FFFFF800
07FFFFF800
07FFFFFC00
0FFFFFFC00
0FFFFFFC00
0F80007E00
1F80007E00
1F80003E00
1F00003F00
1F00003F00
3F00001F00
3E00001F80
3E00001F80
7E00001F80
7E00000F80
7C00000FC0
FC00000FC0
FC000007C0
ENDCHAR
STARTCHAR 00C3
ENCODING 195
SWIDTH 593 0
DWIDTH 38 0
BBX 34 57 2 0
BITMAP
003E000000
00FFC04000
01FFF0E000
03FFFFF000
01C1FFE000
00807FC000
00001F8000
0000000000
0000000000
0000000000
0000000000
0000000000
0003F80000
0007F80000
0007FC0000
0007FC0000
000FFC0000
000FFC0000
000FBE0000
001F3E0000
001F3E0000
001F1F0000
003E1F0000
003E1F0000
003E1F8000
003E0F8000
007C0F8000
007C0FC000
007C07C000
00F807C000
00F807C000
00F803E000
01F803E000
01F003E000
01F003F000
01F001F000
03E001F000
03E001F800
03E000F800
07FFFFF800
07FFFFF800
07FFFFFC00
0FFFFFFC00
0FFFFFFC00
0F80007E00
1F80007E00
1F80003E00
1F00003F00
1F00003F00
3F00001F00
3E00001F80
3E00001F80
7E00001F80
7E00000F80
7C00000FC0
FC00000FC0
FC000007C0
ENDCHAR
STARTCHAR 00C4
ENCODING 196
SWIDTH 593 0
DWIDTH 38 0
BBX 34 57 2 0
BITMAP
007C07C000
00FE0FC000
00FE0FE000
00FE1FE000
00FE0FE000
00FE0FC000
007C078000
0000000000
0000000000
0000000000
0000000000
0000000000
0003F80000
0007F80000
0007FC0000
0007FC0000
000FFC0000
000FFC0000
000FBE0000
001F3E0000
001F3E0000
001F1F0000
003E1F0000
003E1F0000
003E1F8000
003E0F8000
007C0F8000
007C0FC000
007C07C000
00F807C000
00F807C000
00F803E000
01F803E000
01F003E000
01F003F000
01F001F000
03E001F000
03E001F800
03E000F800
07FFFFF800
07FFFFF800
07FFFFFC00
0FFFFFFC00
0FFFFFFC00
0F80007E00
1F80007E00
1F80003E00
1F00003F00
1F00003F00
3F00001F00
3E00001F80
3E00001F80
7E00001F80
7E00000F80
7C00000FC0
FC00000FC0
FC000007C0
ENDCHAR
STARTCHAR 00C5
ENCODING 197
SWIDTH 593 0
DWIDTH 38 0
BBX 34 63 2 0
BITMAP
0003F00000
0007FC0000
000FFE0000
001E1F0000
003C0F0000
003C070000
0038078000
0038078000
0038078000
003C070000
003C0F0000
001E1F0000
000FFE0000
0007FC0000
0003F00000
0000000000
0000000000
0000000000
0003F80000
0007F80000
0007FC0000
0007FC0000
000FFC0000
000FFC0000
000FBE0000
001F3E0000
001F3E0000
001F1F0000
003E1F0000
003E1F0000
003E1F8000
003E0F8000
007C0F8000
007C0FC000
007C07C000
00F807C000
00F807C000
00F803E000
01F803E000
01F003E000
01F003F000
01F001F000
03E001F000
03E001F800
03E000F800
07FFFFF800
07FFFFF800
07FFFFFC00
0FFFFFFC00
0FFFFFFC00
0F80007E00
1F80007E00
1F80003E00
1F00003F00
1F00003F00
3F00001F00
3E00001F80
3E00001F80
7E00001F80
7E00000F80
7C00000FC0
FC00000FC0
FC000007C0
ENDCHAR
STARTCHAR 00C6
ENCODING 198
SWIDTH 593 0
DWIDTH 38 0
BBX 35 45 1 0
BITMAP
0007FFFFE0
0007FFFFE0
0007FFFFE0
000FFFFFE0
000F9FFFE0
000F9F0000
000F1F0000
001F1F0000
001F1F0000
001F1F0000
003E1F0000
003E1F0000
003E1F0000
007C1F0000
007C1F0000
007C1F0000
007C1F0000
00F81F0000
00F81F0000
00F81F0000
01F81FFFC0
01F01FFFC0
01F01FFFC0
01F01FFFC0
03E01FFFC0
03E01F0000
03E01F0000
07E01F0000
07FFFF0000
07FFFF0000
07FFFF0000
0FFFFF0000
0FFFFF0000
0F801F0000
1F801F0000
1F001F0000
1F001F0000
3F001F0000
3F001F0000
3E001F0000
3E001FFFE0
7E001FFFE0
7C001FFFE0
7C001FFFE0
FC001FFFE0
ENDCHAR
STARTCHAR 00C7
ENCODING 199
SWIDTH 593 0
DWIDTH 38 0
BBX 30 58 4 -13
BITMAP
000FF800
007FFE00
00FFFF80
01FFFFC0
03FFFFE0
07F80FF0
0FE003F0
0FC001F8
1F8000FC
1F00007C
3F00007C
3E000020
3E000000
7E000000
7E000000
7C000000
7C000000
7C000000
7C000000
7C000000
7C000000
FC000000
FC000000
FC000000
FC000000
7C000000
7C000000
7C000000
7C000000
7C000000
7C000000
7E000000
7E000000
3E000000
3E000020
3F00007C
1F00007C
1F8000FC
1FC001F8
0FE003F0
07F80FF0
03FFFFE0
03FFFFC0
00FFFF80
007FFE00
000FF800
00038000
00038000
00078000
0007F800
00007E00
00001E00
00001F00
00081F00
001C3E00
003FFE00
001FFC00
0007F000
ENDCHAR
STARTCHAR 00C8
ENCODING 200
SWIDTH 593 0
DWIDTH 38 0
BBX 27 60 6 0
BITMAP
00600000
01F00000
03F00000
01F80000
00F80000
007C0000
007C0000
003E0000
001E0000
001F0000
000F0000
00040000
00000000
00000000
00000000
FFFFFFE0
FFFFFFE0
FFFFFFE0
FFFFFFE0
FFFFFFE0
F8000000
F8000000
F8000000
F8000000
F8000000
F8000000
F8000000
F8000000
F8000000
F8000000
F8000000
F8000000
F8000000
F8000000
F8000000
FFFFFFE0
FFFFFFE0
FFFFFFE0
FFFFFFE0
FFFFFFE0
F8000000
F8000000
F8000000
F8000000
F8000000
F8000000
F8000000
F8000000
F8000000
F8000000
F8000000
F8000000
F8000000
F8000000
F8000000
FFFFFFE0
FFFFFFE0
FFFFFFE0
FFFFFFE0
FFFFFFE0
ENDCHAR
STARTCHAR 00C9
ENCODING 201
SWIDTH 593 0
DWIDTH 38 0
BBX 27 60 6 0
BITMAP
0000C000
0001F000
0001F800
0003F000
0003E000
0007C000
0007C000
000F8000
000F0000
001F0000
001E0000
00040000
00000000
00000000
00000000
FFFFFFE0
FFFFFFE0
FFFFFFE0
FFFFFFE0
FFFFFFE0
F8000000
F8000000
F8000000
F8000000
F8000000
F8000000
F8000000
F8000000
F8000000
F8000000
F8000000
F8000000
F8000000
F8000000
F8000000
FFFFFFE0
FFFFFFE0
FFFFFFE0
FFFFFFE0
FFFFFFE0
F8000000
F8000000
F8000000
F8000000
F8000000
F8000000
F8000000
F8000000
F8000000
F8000000
F8000000
F8000000
F8000000
F8000000
F8000000
FFFFFFE0
FFFFFFE0
FFFFFFE0
FFFFFFE0
FFFFFFE0
ENDCHAR
STARTCHAR 00CA
ENCODING 202
SWIDTH 593 0
DWIDTH 38 0
BBX 27 60 6 0
BITMAP
003F8000
007FC000
00FFE000
00FFE000
01FBF000
03F1F800
07E0FC00
0FC07E00
0F803E00
1E001F00
04000C00
00000000
00000000
00000000
00000000
FFFFFFE0
FFFFFFE0
FFFFFFE0
FFFFFFE0
FFFFFFE0
F8000000
F8000000
F8000000
F8000000
F8000000
F8000000
F8000000
F8000000
F8000000
F8000000
F8000000
F8000000
F8000000
F8000000
F8000000
FFFFFFE0
FFFFFFE0
FFFFFFE0
FFFFFFE0
FFFFFFE0
F8000000
F8000000
F8000000
F8000000
F8000000
F8000000
F8000000
F8000000
F8000000
F8000000
F8000000
F8000000
F8000000
F8000000
F8000000
FFFFFFE0
FFFFFFE0
FFFFFFE0
FFFFFFE0
FFFFFFE0
ENDCHAR
STARTCHAR 00CB
ENCODING 203
SWIDTH 593 0
DWIDTH 38 0
BBX 27 57 6 0
BITMAP
07C07C00
0FE0FE00
0FE0FE00
0FE0FE00
0FE0FE00
0FE0FE00
07C07C00
00000000
00000000
00000000
00000000
00000000
FFFFFFE0
FFFFFFE0
FFFFFFE0
FFFFFFE0
FFFFFFE0
F8000000
F8000000
F8000000
F8000000
F8000000
F8000000
F8000000
F8000000
F8000000
F8000000
F8000000
F8000000
F8000000
F8000000
F8000000
FFFFFFE0
FFFFFFE0
FFFFFFE0
FFFFFFE0
FFFFFFE0
F8000000
F8000000
F8000000
F8000000
F8000000
F8000000
F8000000
F8000000
F8000000
F8000000
F8000000
F8000000
F8000000
F8000000
F8000000
FFFFFFE0
FFFFFFE0
FFFFFFE0
FFFFFFE0
FFFFFFE0
ENDCHAR
STARTCHAR 00CC
ENCODING 204
SWIDTH 593 0
DWIDTH 38 0
BBX 28 60 5 0
BITMAP
00300000
00F80000
01F80000
00FC0000
007C0000
007E0000
003E0000
001F0000
001F0000
000F8000
00078000
00060000
00000000
00000000
00000000
FFFFFFF0
FFFFFFF0
FFFFFFF0
FFFFFFF0
FFFFFFF0
000F8000
000F8000
000F8000
000F8000
000F8000
000F8000
000F8000
000F8000
000F8000
000F8000
000F8000
000F8000
000F8000
000F8000
000F8000
000F8000
000F8000
000F8000
000F8000
000F8000
000F8000
000F8000
000F8000
000F8000
000F8000
000F8000
000F8000
000F8000
000F8000
000F8000
000F8000
000F8000
000F8000
000F8000
000F8000
FFFFFFF0
FFFFFFF0
FFFFFFF0
FFFFFFF0
FFFFFFF0
ENDCHAR
STARTCHAR 00CD
ENCODING 205
SWIDTH 593 0
DWIDTH 38 0
BBX 28 60 5 0
BITMAP
0000E000
0000F800
0001F800
0001F000
0003F000
0003E000
0007C000
0007C000
000F8000
000F0000
001F0000
00020000
00000000
00000000
00000000
FFFFFFF0
FFFFFFF0
FFFFFFF0
FFFFFFF0
FFFFFFF0
000F8000
000F8000
000F8000
000F8000
000F8000
000F8000
000F8000
000F8000
000F8000
000F8000
000F8000
000F8000
000F8000
000F8000
000F8000
000F8000
000F8000
000F8000
000F8000
000F8000
000F8000
000F8000
000F8000
000F8000
000F8000
000F8000
000F8000
000F8000
000F8000
000F8000
000F8000
000F8000
000F8000
000F8000
000F8000
FFFFFFF0
FFFFFFF0
FFFFFFF0
FFFFFFF0
FFFFFFF0
ENDCHAR
STARTCHAR 00CE
ENCODING 206
SWIDTH 593 0
DWIDTH 38 0
BBX 28 60 5 0
BITMAP
001FC000
003FE000
007FE000
00FFF000
01F9F800
01F0FC00
03E07E00
07C03E00
0F801F00
0F000F80
02000400
00000000
00000000
00000000
00000000
FFFFFFF0
FFFFFFF0
FFFFFFF0
FFFFFFF0
FFFFFFF0
000F8000
000F8000
000F8000
000F8000
000F8000
000F8000
000F8000
000F8000
000F8000
000F8000
000F8000
000F8000
000F8000
000F8000
000F8000
000F8000
000F8000
000F8000
000F8000
000F8000
000F8000
000F8000
000F8000
000F8000
000F8000
000F8000
000F8000
000F8000
000F8000
000F8000
000F8000
000F8000
000F8000
000F8000
000F8000
FFFFFFF0
FFFFFFF0
FFFFFFF0
FFFFFFF0
FFFFFFF0
ENDCHAR
STARTCHAR 00CF
ENCODING 207
SWIDTH 593 0
DWIDTH 38 0
BBX 28 57 5 0
BITMAP
03E03E00
07F07E00
07F07F00
07F0FF00
07F07F00
07F07E00
03E03C00
00000000
00000000
00000000
00000000
00000000
FFFFFFF0
FFFFFFF0
FFFFFFF0
FFFFFFF0
FFFFFFF0
000F8000
000F8000
000F8000
000F8000
000F8000
000F8000
000F8000
000F8000
000F8000
000F8000
000F8000
000F8000
000F8000
000F8000
000F8000
000F8000
000F8000
000F8000
000F8000
000F8000
000F8000
000F8000
000F8000
000F8000
000F8000
000F8000
000F8000
000F8000
000F8000
000F8000
000F8000
000F8000
000F8000
000F8000
000F8000
FFFFFFF0
FFFFFFF0
FFFFFFF0
FFFFFFF0
FFFFFFF0
ENDCHAR
STARTCHAR 00D0
ENCODING 208
SWIDTH 593 0
DWIDTH 38 0
BBX 34 45 1 0
BITMAP
03FFFC0000
03FFFF8000
03FFFFE000
03FFFFF000
03FFFFF800
03E007FC00
03E001FC00
03E000FE00
03E0007E00
03E0003F00
03E0003F00
03E0001F00
03E0001F80
03E0000F80
03E0000F80
03E0000F80
03E0000F80
03E0000FC0
FFFFF00FC0
FFFFF00FC0
FFFFF00FC0
FFFFF00FC0
FFFFF00FC0
03E0000FC0
03E0000FC0
03E0000FC0
03E0000FC0
03E0000FC0
03E0000F80
03E0000F80
03E0000F80
03E0000F80
03E0001F80
03E0001F00
03E0003F00
03E0003F00
03E0007E00
03E000FE00
03E001FC00
03E007FC00
03FFFFF800
03FFFFF000
03FFFFE000
03FFFF8000
03FFFC0000
ENDCHAR
STARTCHAR 00D1
ENCODING 209
SWIDTH 593 0
DWIDTH 38 0
BBX 28 57 5 0
BITMAP
01F00000
07FE0200
0FFF8700
1FFFFF80
0E0FFF00
0403FE00
0000FC00
00000000
00000000
00000000
00000000
00000000
FF0001F0
FF0001F0
FF8001F0
FF8001F0
FFC001F0
FFC001F0
FFC001F0
FBE001F0
FBE001F0
FBF001F0
F9F001F0
F9F001F0
F8F801F0
F8F801F0
F8FC01F0
F87C01F0
F87C01F0
F83E01F0
F83E01F0
F83F01F0
F81F01F0
F81F01F0
F80F81F0
F80F81F0
F80FC1F0
F807C1F0
F807C1F0
F803E1F0
F803E1F0
F803F1F0
F801F1F0
F801F1F0
F800F9F0
F800F9F0
F800FDF0
F8007DF0
F8007DF0
F8003FF0
F8003FF0
F8003FF0
F8001FF0
F8001FF0
F8000FF0
F8000FF0
F8000FF0
ENDCHAR
STARTCHAR 00D2
ENCODING 210
SWIDTH 593 0
DWIDTH 38 0
BBX 31 61 4 -1
BITMAP
00180000
007C0000
00FC0000
007E0000
003E0000
003F0000
001F0000
000F8000
000F8000
0007C000
0003C000
00030000
00000000
00000000
00000000
001FE000
00FFFC00
01FFFF00
07FFFF80
0FFFFFC0
0FF03FE0
1FC00FE0
3F8003F0
3F0003F0
3E0001F8
7E0000F8
7C0000F8
7C0000FC
FC00007C
FC00007C
F800007C
F800007C
F800007E
F800007E
F800007E
F800007E
F800007E
F800007E
F800007E
F800007E
F800007E
F800007E
F800007E
F800007E
F800007C
F800007C
FC00007C
FC00007C
7C0000FC
7C0000F8
7E0000F8
3E0001F8
3F0003F0
3F8003F0
1FC00FE0
0FF03FE0
0FFFFFC0
07FFFF80
01FFFF00
00FFFC00
001FF000
ENDCHAR
STARTCHAR 00D3
ENCODING 211
SWIDTH 593 0
DWIDTH 38 0
BBX 31 61 4 -1
BITMAP
00007000
00007C00
0000FC00
0000F800
0001F800
0001F000
0003E000
0003E000
0007C000
00078000
000F8000
00010000
00000000
00000000
00000000
001FE000
00FFFC00
01FFFF00
07FFFF80
0FFFFFC0
0FF03FE0
1FC00FE0
3F8003F0
3F0003F0
3E0001F8
7E0000F8
7C0000F8
7C0000FC
FC00007C
FC00007C
F800007C
F800007C
F800007E
F800007E
F800007E
F800007E
F800007E
F800007E
F800007E
F800007E
F800007E
F800007E
F800007E
F800007E
F800007C
F800007C
FC00007C
FC00007C
7C0000FC
7C0000F8
7E0000F8
3E0001F8
3F0003F0
3F8003F0
1FC00FE0
0FF03FE0
0FFFFFC0
07FFFF80
01FFFF00
00FFFC00
001FF000
ENDCHAR
STARTCHAR 00D4
ENCODING 212
SWIDTH 593 0
DWIDTH 38 0
BBX 31 61 4 -1
BITMAP
000FE000
001FF000
003FF000
007FF800
00FCFC00
00F87E00
01F03F00
03E01F00
07C00F80
078007C0
01000200
00000000
00000000
00000000
00000000
001FE000
00FFFC00
01FFFF00
07FFFF80
0FFFFFC0
0FF03FE0
1FC00FE0
3F8003F0
3F0003F0
3E0001F8
7E0000F8
7C0000F8
7C0000FC
FC00007C
FC00007C
F800007C
F800007C
F800007E
F800007E
F800007E
F800007E
F800007E
F800007E
F800007E
F800007E
F800007E
F800007E
F800007E
F800007E
F800007C
F800007C
FC00007C
FC00007C
7C0000FC
7C0000F8
7E0000F8
3E0001F8
3F0003F0
3F8003F0
1FC00FE0
0FF03FE0
0FFFFFC0
07FFFF80
01FFFF00
00FFFC00
001FF000
ENDCHAR
STARTCHAR 00D5
ENCODING 213
SWIDTH 593 0
DWIDTH 38 0
BBX 31 58 4 -1
BITMAP
00F80000
03FF0100
07FFC380
0FFFFFC0
0707FF80
0201FF00
00007E00
00000000
00000000
00000000
00000000
00000000
001FE000
00FFFC00
01FFFF00
07FFFF80
0FFFFFC0
0FF03FE0
1FC00FE0
3F8003F0
3F0003F0
3E0001F8
7E0000F8
7C0000F8
7C0000FC
FC00007C
FC00007C
F800007C
F800007C
F800007E
F800007E
F800007E
F800007E
F800007E
F800007E
F800007E
F800007E
F800007E
F800007E
F800007E
F800007E
F800007C
F800007C
FC00007C
FC00007C
7C0000FC
7C0000F8
7E0000F8
3E0001F8
3F0003F0
3F8003F0
1FC00FE0
0FF03FE0
0FFFFFC0
07FFFF80
01FFFF00
00FFFC00
001FF000
ENDCHAR
STARTCHAR 00D6
ENCODING 214
SWIDTH 593 0
DWIDTH 38 0
BBX 31 58 4 -1
BITMAP
01F01F00
03F83F00
03F83F80
03F87F80
03F83F80
03F83F00
01F01E00
00000000
00000000
00000000
00000000
00000000
001FE000
00FFFC00
01FFFF00
07FFFF80
0FFFFFC0
0FF03FE0
1FC00FE0
3F8003F0
3F0003F0
3E0001F8
7E0000F8
7C0000F8
7C0000FC
FC00007C
FC00007C
F800007C
F800007C
F800007E
F800007E
F800007E
F800007E
F800007E
F800007E
F800007E
F800007E
F800007E
F800007E
F800007E
F800007E
F800007C
F800007C
FC00007C
FC00007C
7C0000FC
7C0000F8
7E0000F8
3E0001F8
3F0003F0
3F8003F0
1FC00FE0
0FF03FE0
0FFFFFC0
07FFFF80
01FFFF00
00FFFC00
001FF000
ENDCHAR
STARTCHAR 00D7
ENCODING 215
SWIDTH 593 0
DWIDTH 38 0
BBX 27 27 6 6
BITMAP
20000100
70000380
F80007C0
FC000FE0
7E001F80
3F003F00
1F807E00
0FC0FC00
07E1F800
03F3F000
01FFE000
00FFC000
007F8000
003F0000
007F8000
00FFC000
01FFE000
03F3F000
07E1F800
0FC0FC00
1F807E00
3F003F00
7E001F80
FC000FC0
F80007E0
70000380
20000100
ENDCHAR
STARTCHAR 00D8
ENCODING 216
SWIDTH 593 0
DWIDTH 38 0
BBX 32 50 3 -3
BITMAP
0000000C
0000000E
000FF01F
007FFE3F
00FFFFBE
03FFFFFC
07FFFFFC
07F81FF8
0FE007F8
1FC001F8
1F8001F8
1F0003FC
3F0007FC
3E0007FC
3E000FFE
7E000F3E
7E001F3E
7C003E3E
7C003E3E
7C007C3F
7C00783F
7C00F83F
7C01F03F
7C01F03F
7C03E03F
7C07C03F
7C07C03F
7C0F803F
7C0F003F
7C1F003F
7C3E003F
7C3E003E
7C7C003E
7E78003E
7EF8003E
3FF0007E
3FF0007E
3FE0007C
1FC000FC
1FC000F8
1FC001F8
0FE007F0
1FF81FF0
1FFFFFE0
3FFFFFC0
7EFFFF80
7C7FFE00
F80FF800
78000000
10000000
ENDCHAR
STARTCHAR 00D9
ENCODING 217
SWIDTH 593 0
DWIDTH 38 0
BBX 28 61 5 -1
BITMAP
00300000
00F80000
01F80000
00FC0000
007C0000
007E0000
003E0000
001F0000
001F0000
000F8000
00078000
00060000
00000000
00000000
00000000
FC0001F0
FC0001F0
FC0001F0
FC0001F0
FC0001F0
FC0001F0
FC0001F0
FC0001F0
FC0001F0
FC0001F0
FC0001F0
FC0001F0
FC0001F0
FC0001F0
FC0001F0
FC0001F0
FC0001F0
FC0001F0
FC0001F0
FC0001F0
FC0001F0
FC0001F0
FC0001F0
FC0001F0
FC0001F0
FC0001F0
FC0001F0
FC0001F0
FC0001F0
FC0001F0
FC0001F0
FC0001F0
FC0001F0
FC0001F0
7C0003F0
7C0003F0
7C0003E0
7E0003E0
7E0007E0
3F000FE0
3FC03FC0
1FFFFF80
0FFFFF80
07FFFF00
03FFFC00
007FE000
ENDCHAR
STARTCHAR 00DA
ENCODING 218
SWIDTH 593 0
DWIDTH 38 0
BBX 28 61 5 -1
BITMAP
0000E000
0000F800
0001F800
0001F000
0003F000
0003E000
0007C000
0007C000
000F8000
000F0000
001F0000
00020000
00000000
00000000
00000000
FC0001F0
FC0001F0
FC0001F0
FC0001F0
FC0001F0
FC0001F0
FC0001F0
FC0001F0
FC0001F0
FC0001F0
FC0001F0
FC0001F0
FC0001F0
FC0001F0
FC0001F0
FC0001F0
FC0001F0
FC0001F0
FC0001F0
FC0001F0
FC0001F0
FC0001F0
FC0001F0
FC0001F0
FC0001F0
FC0001F0
FC0001F0
FC0001F0
FC0001F0
FC0001F0
FC0001F0
FC0001F0
FC0001F0
FC0001F0
7C0003F0
7C0003F0
7C0003E0
7E0003E0
7E0007E0
3F000FE0
3FC03FC0
1FFFFF80
0FFFFF80
07FFFF00
03FFFC00
007FE000
ENDCHAR
STARTCHAR 00DB
ENCODING 219
SWIDTH 593 0
DWIDTH 38 0
BBX 28 61 5 -1
BITMAP
001FC000
003FE000
007FE000
00FFF000
01F9F800
01F0FC00
03E07E00
07C03E00
0F801F00
0F000F80
02000400
00000000
00000000
00000000
00000000
FC0001F0
FC0001F0
FC0001F0
FC0001F0
FC0001F0
FC0001F0
FC0001F0
FC0001F0
FC0001F0
FC0001F0
FC0001F0
FC0001F0
FC0001F0
FC0001F0
FC0001F0
FC0001F0
FC0001F0
FC0001F0
FC0001F0
FC0001F0
FC0001F0
FC0001F0
FC0001F0
FC0001F0
FC0001F0
FC0001F0
FC0001F0
FC0001F0
FC0001F0
FC0001F0
FC0001F0
FC0001F0
FC0001F0
FC0001F0
7C0003F0
7C0003F0
7C0003E0
7E0003E0
7E0007E0
3F000FE0
3FC03FC0
1FFFFF80
0FFFFF80
07FFFF00
03FFFC00
007FE000
ENDCHAR
STARTCHAR 00DC
ENCODING 220
SWIDTH 593 0
DWIDTH 38 0
BBX 28 58 5 -1
BITMAP
03E03E00
07F07E00
07F07F00
07F0FF00
07F07F00
07F07E00
03E03C00
00000000
00000000
00000000
00000000
00000000
FC0001F0
FC0001F0
FC0001F0
FC0001F0
FC0001F0
FC0001F0
FC0001F0
FC0001F0
FC0001F0
FC0001F0
FC0001F0
FC0001F0
FC0001F0
FC0001F0
FC0001F0
FC0001F0
FC0001F0
FC0001F0
FC0001F0
FC0001F0
FC0001F0
FC0001F0
FC0001F0
FC0001F0
FC0001F0
FC0001F0
FC0001F0
FC0001F0
FC0001F0
FC0001F0
FC0001F0
FC0001F0
FC0001F0
FC0001F0
7C0003F0
7C0003F0
7C0003E0
7E0003E0
7E0007E0
3F000FE0
3FC03FC0
1FFFFF80
0FFFFF80
07FFFF00
03FFFC00
007FE000
ENDCHAR
STARTCHAR 00DD
ENCODING 221
SWIDTH 593 0
DWIDTH 38 0
BBX 36 60 1 0
BITMAP
00000E0000
00000F8000
00001F8000
00001F0000
00003F0000
00003E0000
00007C0000
00007C0000
0000F80000
0000F00000
0001F00000
0000200000
0000000000
0000000000
0000000000
FE000003F0
7E000007E0
7F000007E0
3F00000FC0
1F80000FC0
1F80001F80
0FC0001F80
0FC0003F00
07E0003F00
07E0007E00
03F0007C00
01F800FC00
01F801F800
00FC01F800
00FC03F000
007E03F000
007E07E000
003F07C000
001F0FC000
001F8F8000
000F9F8000
000FDF0000
0007FF0000
0007FE0000
0003FC0000
0003FC0000
0001F80000
0000F80000
0000F80000
0000F80000
0000F80000
0000F80000
0000F80000
0000F80000
0000F80000
0000F80000
0000F80000
0000F80000
0000F80000
0000F80000
0000F80000
0000F80000
0000F80000
0000F80000
0000F80000
ENDCHAR
STARTCHAR 00DE
ENCODING 222
SWIDTH 593 0
DWIDTH 38 0
BBX 29 45 6 0
BITMAP
F8000000
F8000000
F8000000
F8000000
F8000000
F8000000
F8000000
F8000000
F8000000
FFFFF000
FFFFFE00
FFFFFF00
FFFFFF80
FFFFFFC0
F8001FE0
F80007E0
F80003F0
F80001F0
F80001F0
F80001F8
F80001F8
F80001F8
F80001F8
F80001F8
F80001F8
F80001F0
F80001F0
F80003F0
F80007F0
F8001FE0
FFFFFFC0
FFFFFFC0
FFFFFF00
FFFFFE00
FFFFF000
F8000000
F8000000
F8000000
F8000000
F8000000
F8000000
F8000000
F8000000
F8000000
F8000000
ENDCHAR
STARTCHAR 00DF
ENCODING 223
SWIDTH 593 0
DWIDTH 38 0
BBX 30 60 7 -13
BITMAP
0FFF0000
3FFF0000
7FFF0000
FFFF0000
FFFF0000
F8000000
F8000000
F8000000
F8000000
F8000000
F8000000
F8000000
F8000000
F8000000
FFFFFFE0
FFFFFFE0
FFFFFFE0
FFFFFFE0
FFFFFFE0
F80003C0
F80007C0
F8000F80
F8001F00
F8003E00
F8007C00
F8007C00
F800F800
F801F000
F803E000
F807E000
F807C000
F80F8000
F81F0000
F81F0000
F81FF800
F81FFE00
F81FFF80
F81FFFC0
F8003FE0
F80007F0
F80003F0
F80001F8
F80000F8
F80000F8
F80000FC
F80000FC
F80000FC
000000FC
000000F8
000000F8
000001F8
000001F8
000003F0
000007F0
00003FE0
007FFFC0
007FFF80
007FFF00
007FFC00
007FC000
ENDCHAR
STARTCHAR 00E0
ENCODING 224
SWIDTH 593 0
DWIDTH 38 0
BBX 31 50 4 -1
BITMAP
00300000
00F80000
01F80000
00FC0000
007C0000
007E0000
003E0000
001F0000
001F0000
000F8000
00078000
00060000
00000000
00000000
00000000
003FC000
01FFF800
07FFFE00
0FFFFF00
1FFFFF80
3FC07F80
3F001FC0
7E000FC0
1C0007C0
080007E0
000007E0
000007E0
000007E0
000007E0
000007E0
007FFFE0
07FFFFE0
0FFFFFE0
3FFFFFE0
3FC007E0
7E0007E0
7C0007E0
FC0007E0
FC0007E0
FC0007E0
FC0007E0
FC0007E0
FC000FE0
7E001BE0
7F80FBFE
3FFFF3FE
1FFFF1FE
0FFFE0FE
07FFC07E
01FE0000
ENDCHAR
STARTCHAR 00E1
ENCODING 225
SWIDTH 593 0
DWIDTH 38 0
BBX 31 50 4 -1
BITMAP
0000E000
0000F800
0001F800
0001F000
0003F000
0003E000
0007C000
0007C000
000F8000
000F0000
001F0000
00060000
00000000
00000000
00000000
003FC000
01FFF800
07FFFE00
0FFFFF00
1FFFFF80
3FC07F80
3F001FC0
7E000FC0
1C0007C0
080007E0
000007E0
000007E0
000007E0
000007E0
000007E0
007FFFE0
07FFFFE0
0FFFFFE0
3FFFFFE0
3FC007E0
7E0007E0
7C0007E0
FC0007E0
FC0007E0
FC0007E0
FC0007E0
FC0007E0
FC000FE0
7E001BE0
7F80FBFE
3FFFF3FE
1FFFF1FE
0FFFE0FE
07FFC07E
01FE0000
ENDCHAR
STARTCHAR 00E2
ENCODING 226
SWIDTH 593 0
DWIDTH 38 0
BBX 31 50 4 -1
BITMAP
001FC000
003FE000
007FE000
00FFF000
01F9F800
01F0FC00
03E07C00
07C03E00
0F801F00
0F000F00
02000400
00000000
00000000
00000000
00000000
003FC000
01FFF800
07FFFE00
0FFFFF00
1FFFFF80
3FC07F80
3F001FC0
7E000FC0
1C0007C0
080007E0
000007E0
000007E0
000007E0
000007E0
000007E0
007FFFE0
07FFFFE0
0FFFFFE0
3FFFFFE0
3FC007E0
7E0007E0
7C0007E0
FC0007E0
FC0007E0
FC0007E0
FC0007E0
FC0007E0
FC000FE0
7E001BE0
7F80FBFE
3FFFF3FE
1FFFF1FE
0FFFE0FE
07FFC07E
01FE0000
ENDCHAR
STARTCHAR 00E3
ENCODING 227
SWIDTH 593 0
DWIDTH 38 0
BBX 31 47 4 -1
BITMAP
01F00000
07FC0200
0FFF8700
1FFFFF80
0E0FFF00
0403FE00
0000F800
00000000
00000000
00000000
00000000
00000000
003FC000
01FFF800
07FFFE00
0FFFFF00
1FFFFF80
3FC07F80
3F001FC0
7E000FC0
1C0007C0
080007E0
000007E0
000007E0
000007E0
000007E0
000007E0
007FFFE0
07FFFFE0
0FFFFFE0
3FFFFFE0
3FC007E0
7E0007E0
7C0007E0
FC0007E0
FC0007E0
FC0007E0
FC0007E0
FC0007E0
FC000FE0
7E001BE0
7F80FBFE
3FFFF3FE
1FFFF1FE
0FFFE0FE
07FFC07E
01FE0000
ENDCHAR
STARTCHAR 00E4
ENCODING 228
SWIDTH 593 0
DWIDTH 38 0
BBX 31 47 4 -1
BITMAP
03E03C00
07E07E00
07F0FF00
07F0FF00
07F0FF00
07E07E00
03E03E00
00000000
00000000
00000000
00000000
00000000
003FC000
01FFF800
07FFFE00
0FFFFF00
1FFFFF80
3FC07F80
3F001FC0
7E000FC0
1C0007C0
080007E0
000007E0
000007E0
000007E0
000007E0
000007E0
007FFFE0
07FFFFE0
0FFFFFE0
3FFFFFE0
3FC007E0
7E0007E0
7C0007E0
FC0007E0
FC0007E0
FC0007E0
FC0007E0
FC0007E0
FC000FE0
7E001BE0
7F80FBFE
3FFFF3FE
1FFFF1FE
0FFFE0FE
07FFC07E
01FE0000
ENDCHAR
STARTCHAR 00E5
ENCODING 229
SWIDTH 593 0
DWIDTH 38 0
BBX 31 53 4 -1
BITMAP
001F8000
003FE000
007FF000
00F0F000
01E07800
01E03800
01C03C00
01C03C00
01C03C00
01E03800
01E07800
00F0F000
007FF000
003FE000
001F8000
00000000
00000000
00000000
003FC000
01FFF800
07FFFE00
0FFFFF00
1FFFFF80
3FC07F80
3F001FC0
7E000FC0
1C0007C0
080007E0
000007E0
000007E0
000007E0
000007E0
000007E0
007FFFE0
07FFFFE0
0FFFFFE0
3FFFFFE0
3FC007E0
7E0007E0
7C0007E0
FC0007E0
FC0007E0
FC0007E0
FC0007E0
FC0007E0
FC000FE0
7E001BE0
7F80FBFE
3FFFF3FE
1FFFF1FE
0FFFE0FE
07FFC07E
01FE0000
ENDCHAR
STARTCHAR 00E6
ENCODING 230
SWIDTH 593 0
DWIDTH 38 0
BBX 36 35 1 -1
BITMAP
01F801F800
07FE07FE00
1FFF0FFF80
3FFF9FFF80
3E0FDE0FC0
7C03FC03E0
7803F801E0
F801F801E0
1001F001F0
0001F000F0
0001F000F0
0001F000F0
0001F000F0
0001F000F0
0001F000F0
01FFFFFFF0
0FFFFFFFF0
1FFFFFFFF0
3FFFFFFFF0
7F01F00000
FC01F00000
F801F00000
F801F00000
F001F00000
F001F00000
F001F00100
F001F800E0
F803F801F0
F8037C03E0
F8077C03E0
7E1E3F0FC0
7FFE1FFF80
3FFC1FFF00
1FF807FE00
07E001F800
ENDCHAR
STARTCHAR 00E7
ENCODING 231
SWIDTH 593 0
DWIDTH 38 0
BBX 28 47 5 -13
BITMAP
001FE000
007FFC00
01FFFE00
03FFFF00
07FFFF80
0FF03FC0
1FC007E0
1F8003E0
3F0003F0
3E000180
7E000000
7C000000
7C000000
7C000000
7C000000
FC000000
FC000000
FC000000
FC000000
FC000000
FC000000
7C000000
7C000000
7C000000
7E000080
3E0000C0
3F0001F0
3F8003F0
1FC007E0
0FF01FC0
0FFFFFC0
07FFFF80
03FFFF00
00FFFC00
001FF000
00070000
000F0000
000E0000
000FF000
0000F800
00007C00
00003C00
00103C00
00387C00
007FFC00
003FF800
000FC000
ENDCHAR
STARTCHAR 00E8
ENCODING 232
SWIDTH 593 0
DWIDTH 38 0
BBX 30 50 4 -1
BITMAP
00180000
007C0000
00FC0000
007E0000
003E0000
001F0000
001F0000
000F8000
00078000
0007C000
0003C000
00010000
00000000
00000000
00000000
001FE000
007FFC00
01FFFF00
03FFFF80
07FFFFC0
0FF01FE0
1FC007E0
1F8003F0
3F0001F8
3E0001F8
7E0000F8
7C0000FC
7C0000FC
7C00007C
FC00007C
FFFFFFFC
FFFFFFFC
FFFFFFFC
FFFFFFFC
FC000000
FC000000
7C000000
7C000000
7C000000
7C000000
3E000040
3F0000F0
1F8001F8
1FC003F8
0FF01FF0
07FFFFE0
03FFFFC0
01FFFF80
007FFE00
000FF000
ENDCHAR
STARTCHAR 00E9
ENCODING 233
SWIDTH 593 0
DWIDTH 38 0
BBX 30 50 4 -1
BITMAP
00007000
00007C00
0000FE00
0000F800
0001F800
0001F000
0003E000
0003E000
0007C000
00078000
000F8000
00010000
00000000
00000000
00000000
001FE000
007FFC00
01FFFF00
03FFFF80
07FFFFC0
0FF01FE0
1FC007E0
1F8003F0
3F0001F8
3E0001F8
7E0000F8
7C0000FC
7C0000FC
7C00007C
FC00007C
FFFFFFFC
FFFFFFFC
FFFFFFFC
FFFFFFFC
FC000000
FC000000
7C000000
7C000000
7C000000
7C000000
3E000040
3F0000F0
1F8001F8
1FC003F8
0FF01FF0
07FFFFE0
03FFFFC0
01FFFF80
007FFE00
000FF000
ENDCHAR
STARTCHAR 00EA
ENCODING 234
SWIDTH 593 0
DWIDTH 38 0
BBX 30 50 4 -1
BITMAP
000FE000
001FF000
003FF800
007FF800
007CFC00
00F87E00
01F03F00
03E01F00
07C00F80
038007C0
01000200
00000000
00000000
00000000
00000000
001FE000
007FFC00
01FFFF00
03FFFF80
07FFFFC0
0FF01FE0
1FC007E0
1F8003F0
3F0001F8
3E0001F8
7E0000F8
7C0000FC
7C0000FC
7C00007C
FC00007C
FFFFFFFC
FFFFFFFC
FFFFFFFC
FFFFFFFC
FC000000
FC000000
7C000000
7C000000
7C000000
7C000000
3E000040
3F0000F0
1F8001F8
1FC003F8
0FF01FF0
07FFFFE0
03FFFFC0
01FFFF80
007FFE00
000FF000
ENDCHAR
STARTCHAR 00EB
ENCODING 235
SWIDTH 593 0
DWIDTH 38 0
BBX 30 47 4 -1
BITMAP
01F01F00
03F83F80
03F83F80
03F83F80
03F83F80
03F83F80
01F01F00
00000000
00000000
00000000
00000000
00000000
001FE000
007FFC00
01FFFF00
03FFFF80
07FFFFC0
0FF01FE0
1FC007E0
1F8003F0
3F0001F8
3E0001F8
7E0000F8
7C0000FC
7C0000FC
7C00007C
FC00007C
FFFFFFFC
FFFFFFFC
FFFFFFFC
FFFFFFFC
FC000000
FC000000
7C000000
7C000000
7C000000
7C000000
3E000040
3F0000F0
1F8001F8
1FC003F8
0FF01FF0
07FFFFE0
03FFFFC0
01FFFF80
007FFE00
000FF000
ENDCHAR
STARTCHAR 00EC
ENCODING 236
SWIDTH 593 0
DWIDTH 38 0
BBX 28 49 7 0
BITMAP
00300000
00F80000
01F80000
00FC0000
007C0000
007E0000
003E0000
001F0000
001F0000
000F8000
00078000
00060000
00000000
00000000
00000000
00000000
FFFF8000
FFFF8000
FFFF8000
FFFF8000
FFFF8000
000F8000
000F8000
000F8000
000F8000
000F8000
000F8000
000F8000
000F8000
000F8000
000F8000
000F8000
000F8000
000F8000
000F8000
000F8000
000F8000
000F8000
000F8000
000F8000
000F8000
000F8000
000F8000
000F8000
FFFFFFF0
FFFFFFF0
FFFFFFF0
FFFFFFF0
FFFFFFF0
ENDCHAR
STARTCHAR 00ED
ENCODING 237
SWIDTH 593 0
DWIDTH 38 0
BBX 28 49 7 0
BITMAP
0000E000
0000F800
0001F800
0001F000
0003F000
0003E000
0007C000
0007C000
000F8000
000F0000
001F0000
00020000
00000000
00000000
00000000
00000000
FFFF8000
FFFF8000
FFFF8000
FFFF8000
FFFF8000
000F8000
000F8000
000F8000
000F8000
000F8000
000F8000
000F8000
000F8000
000F8000
000F8000
000F8000
000F8000
000F8000
000F8000
000F8000
000F8000
000F8000
000F8000
000F8000
000F8000
000F8000
000F8000
000F8000
FFFFFFF0
FFFFFFF0
FFFFFFF0
FFFFFFF0
FFFFFFF0
ENDCHAR
STARTCHAR 00EE
ENCODING 238
SWIDTH 593 0
DWIDTH 38 0
BBX 28 49 7 0
BITMAP
001FC000
003FE000
007FE000
00FFF000
00F9F800
01F0FC00
03E07E00
07C03E00
0F801F00
07000F80
02000400
00000000
00000000
00000000
00000000
00000000
FFFF8000
FFFF8000
FFFF8000
FFFF8000
FFFF8000
000F8000
000F8000
000F8000
000F8000
000F8000
000F8000
000F8000
000F8000
000F8000
000F8000
000F8000
000F8000
000F8000
000F8000
000F8000
000F8000
000F8000
000F8000
000F8000
000F8000
000F8000
000F8000
000F8000
FFFFFFF0
FFFFFFF0
FFFFFFF0
FFFFFFF0
FFFFFFF0
ENDCHAR
STARTCHAR 00EF
ENCODING 239
SWIDTH 593 0
DWIDTH 38 0
BBX 28 46 7 0
BITMAP
03E03E00
07F07E00
07F07F00
07F07F00
07F07F00
07F07E00
03E03E00
00000000
00000000
00000000
00000000
00000000
00000000
FFFF8000
FFFF8000
FFFF8000
FFFF8000
FFFF8000
000F8000
000F8000
000F8000
000F8000
000F8000
000F8000
000F8000
000F8000
000F8000
000F8000
000F8000
000F8000
000F8000
000F8000
000F8000
000F8000
000F8000
000F8000
000F8000
000F8000
000F8000
000F8000
000F8000
FFFFFFF0
FFFFFFF0
FFFFFFF0
FFFFFFF0
FFFFFFF0
ENDCHAR
STARTCHAR 00F0
ENCODING 240
SWIDTH 593 0
DWIDTH 38 0
BBX 30 49 4 -1
BITMAP
00000200
0FF80700
01FC0F80
00FF3F80
003FFE00
001FFC00
0007F000
0007F000
001FF800
003FFC00
00FE7E00
01FC3F00
00F01F00
00600F80
00000FC0
000007C0
003FC3E0
00FFF3E0
03FFF9F0
07FFFDF0
0FFFFEF0
1FF01FF8
1F800778
3F0003F8
3E0001FC
7E0000FC
7C0000FC
7C0000FC
7C00007C
FC00007C
FC00007C
FC00007C
FC00007C
FC00007C
FC00007C
FC00007C
7C00007C
7C0000FC
7C0000F8
7E0000F8
3E0001F8
3F0003F0
1F8007F0
1FF01FE0
0FFFFFC0
07FFFF80
03FFFF00
00FFFC00
001FF000
ENDCHAR
STARTCHAR 00F1
ENCODING 241
SWIDTH 593 0
DWIDTH 38 0
BBX 27 46 6 0
BITMAP
03E00000
0FFC0400
1FFF0E00
1FFFFF00
0E1FFE00
0807FC00
0001F800
00000000
00000000
00000000
00000000
00000000
000FE000
F83FF800
F8FFFE00
F9FFFF00
F9FFFF00
FBC07F80
FB001F80
FE000FC0
FC000FC0
FC0007C0
F80007C0
F80007C0
F80007E0
F80007E0
F80007E0
F80007E0
F80007E0
F80007E0
F80007E0
F80007E0
F80007E0
F80007E0
F80007E0
F80007E0
F80007E0
F80007E0
F80007E0
F80007E0
F80007E0
F80007E0
F80007E0
F80007E0
F80007E0
F80007E0
ENDCHAR
STARTCHAR 00F2
ENCODING 242
SWIDTH 593 0
DWIDTH 38 0
BBX 30 50 4 -1
BITMAP
00180000
007C0000
00FC0000
007E0000
003E0000
003F0000
001F0000
000F8000
000F8000
0007C000
0003C000
00030000
00000000
00000000
00000000
001FE000
00FFFC00
01FFFF00
07FFFF80
0FFFFFC0
0FF01FE0
1FC007E0
3F0003F0
3E0001F0
7E0000F8
7C0000F8
7C0000F8
7C00007C
FC00007C
FC00007C
FC00007C
FC00007C
FC00007C
FC00007C
FC00007C
FC00007C
FC00007C
7C00007C
7C0000F8
7C0000F8
7E0000F8
3E0001F0
3F0003F0
1FC007E0
0FF01FE0
0FFFFFC0
07FFFF80
01FFFF00
00FFFC00
001FE000
ENDCHAR
STARTCHAR 00F3
ENCODING 243
SWIDTH 593 0
DWIDTH 38 0
BBX 30 50 4 -1
BITMAP
00007000
00007C00
0000FC00
0000F800
0001F800
0001F000
0003E000
0003E000
0007C000
00078000
000F8000
00010000
00000000
00000000
00000000
001FE000
00FFFC00
01FFFF00
07FFFF80
0FFFFFC0
0FF01FE0
1FC007E0
3F0003F0
3E0001F0
7E0000F8
7C0000F8
7C0000F8
7C00007C
FC00007C
FC00007C
FC00007C
FC00007C
FC00007C
FC00007C
FC00007C
FC00007C
FC00007C
7C00007C
7C0000F8
7C0000F8
7E0000F8
3E0001F0
3F0003F0
1FC007E0
0FF01FE0
0FFFFFC0
07FFFF80
01FFFF00
00FFFC00
001FE000
ENDCHAR
STARTCHAR 00F4
ENCODING 244
SWIDTH 593 0
DWIDTH 38 0
BBX 30 50 4 -1
BITMAP
000FE000
001FF000
003FF000
007FF800
00FCFC00
00F87E00
01F03F00
03E01F00
07C00F80
078007C0
01000200
00000000
00000000
00000000
00000000
001FE000
00FFFC00
01FFFF00
07FFFF80
0FFFFFC0
0FF01FE0
1FC007E0
3F0003F0
3E0001F0
7E0000F8
7C0000F8
7C0000F8
7C00007C
FC00007C
FC00007C
FC00007C
FC00007C
FC00007C
FC00007C
FC00007C
FC00007C
FC00007C
7C00007C
7C0000F8
7C0000F8
7E0000F8
3E0001F0
3F0003F0
1FC007E0
0FF01FE0
0FFFFFC0
07FFFF80
01FFFF00
00FFFC00
001FE000
ENDCHAR
STARTCHAR 00F5
ENCODING 245
SWIDTH 593 0
DWIDTH 38 0
BBX 30 47 4 -1
BITMAP
00F80000
03FF0100
07FFC380
0FFFFFC0
0707FF80
0201FF00
00007E00
00000000
00000000
00000000
00000000
00000000
001FE000
00FFFC00
01FFFF00
07FFFF80
0FFFFFC0
0FF01FE0
1FC007E0
3F0003F0
3E0001F0
7E0000F8
7C0000F8
7C0000F8
7C00007C
FC00007C
FC00007C
FC00007C
FC00007C
FC00007C
FC00007C
FC00007C
FC00007C
FC00007C
7C00007C
7C0000F8
7C0000F8
7E0000F8
3E0001F0
3F0003F0
1FC007E0
0FF01FE0
0FFFFFC0
07FFFF80
01FFFF00
00FFFC00
001FE000
ENDCHAR
STARTCHAR 00F6
ENCODING 246
SWIDTH 593 0
DWIDTH 38 0
BBX 30 47 4 -1
BITMAP
01F01F00
03F83F00
03F83F80
03F87F80
03F83F80
03F83F00
01F01E00
00000000
00000000
00000000
00000000
00000000
001FE000
00FFFC00
01FFFF00
07FFFF80
0FFFFFC0
0FF01FE0
1FC007E0
3F0003F0
3E0001F0
7E0000F8
7C0000F8
7C0000F8
7C00007C
FC00007C
FC00007C
FC00007C
FC00007C
FC00007C
FC00007C
FC00007C
FC00007C
FC00007C
7C00007C
7C0000F8
7C0000F8
7E0000F8
3E0001F0
3F0003F0
1FC007E0
0FF01FE0
0FFFFFC0
07FFFF80
01FFFF00
00FFFC00
001FE000
ENDCHAR
STARTCHAR 00F7
ENCODING 247
SWIDTH 593 0
DWIDTH 38 0
BBX 30 33 4 3
BITMAP
0007C000
000FE000
001FE000
001FE000
001FE000
001FE000
000FE000
0007C000
00000000
00000000
00000000
00000000
00000000
00000000
FFFFFFFC
FFFFFFFC
FFFFFFFC
FFFFFFFC
FFFFFFFC
00000000
00000000
00000000
00000000
00000000
00000000
0007C000
000FE000
001FE000
001FE000
001FE000
001FE000
000FE000
0007C000
ENDCHAR
STARTCHAR 00F8
ENCODING 248
SWIDTH 593 0
DWIDTH 38 0
BBX 32 39 3 -3
BITMAP
00000004
0000000E
000FF00F
007FFE1E
00FFFFBE
03FFFFFC
07FFFFF8
07F80FF0
0FE003F0
1F8003F8
1F0003F8
3F0007FC
3E000F7C
3E001F7C
3E003E7E
7E007C3E
7E00F83E
7E00F03E
7E01E03E
7E03E03E
7E07C03E
7E0F803E
7E1F003E
3E3E003E
3E3C003E
3E78007C
3EF8007C
1FF0007C
1FE000F8
1FC001F8
0FE003F0
0FF80FF0
1FFFFFE0
1FFFFFC0
3CFFFF80
7C3FFE00
F80FF000
70000000
20000000
ENDCHAR
STARTCHAR 00F9
ENCODING 249
SWIDTH 593 0
DWIDTH 38 0
BBX 26 50 6 -1
BITMAP
00600000
01E00000
03F00000
01F00000
00F80000
00F80000
007C0000
003C0000
003E0000
001E0000
000F0000
000C0000
00000000
00000000
00000000
00000000
F80007C0
F80007C0
F80007C0
F80007C0
F80007C0
F80007C0
F80007C0
F80007C0
F80007C0
F80007C0
F80007C0
F80007C0
F80007C0
F80007C0
F80007C0
F80007C0
F80007C0
F80007C0
F80007C0
F80007C0
F80007C0
F80007C0
F80007C0
F80007C0
FC0007C0
FC000FC0
7E000FC0
7F003FC0
7FC0F7C0
3FFFF7C0
1FFFE7C0
0FFFC7C0
07FF87C0
00FE0000
ENDCHAR
STARTCHAR 00FA
ENCODING 250
SWIDTH 593 0
DWIDTH 38 0
BBX 26 50 6 -1
BITMAP
0001C000
0001F000
0003F000
0003E000
0007E000
0007C000
000F8000
000F8000
001F0000
001E0000
003E0000
000C0000
00000000
00000000
00000000
00000000
F80007C0
F80007C0
F80007C0
F80007C0
F80007C0
F80007C0
F80007C0
F80007C0
F80007C0
F80007C0
F80007C0
F80007C0
F80007C0
F80007C0
F80007C0
F80007C0
F80007C0
F80007C0
F80007C0
F80007C0
F80007C0
F80007C0
F80007C0
F80007C0
FC0007C0
FC000FC0
7E000FC0
7F003FC0
7FC0F7C0
3FFFF7C0
1FFFE7C0
0FFFC7C0
07FF87C0
00FE0000
ENDCHAR
STARTCHAR 00FB
ENCODING 251
SWIDTH 593 0
DWIDTH 38 0
BBX 26 50 6 -1
BITMAP
007F8000
007F8000
00FFC000
01FFE000
03F3F000
03E1F800
07C0F800
0F807C00
1F003E00
1E001E00
04000800
00000000
00000000
00000000
00000000
00000000
F80007C0
F80007C0
F80007C0
F80007C0
F80007C0
F80007C0
F80007C0
F80007C0
F80007C0
F80007C0
F80007C0
F80007C0
F80007C0
F80007C0
F80007C0
F80007C0
F80007C0
F80007C0
F80007C0
F80007C0
F80007C0
F80007C0
F80007C0
F80007C0
FC0007C0
FC000FC0
7E000FC0
7F003FC0
7FC0F7C0
3FFFF7C0
1FFFE7C0
0FFFC7C0
07FF87C0
00FE0000
ENDCHAR
STARTCHAR 00FC
ENCODING 252
SWIDTH 593 0
DWIDTH 38 0
BBX 26 47 6 -1
BITMAP
07807800
0FC0FC00
1FE1FE00
1FE1FE00
1FE1FE00
0FC0FC00
07C07800
00000000
00000000
00000000
00000000
00000000
00000000
F80007C0
F80007C0
F80007C0
F80007C0
F80007C0
F80007C0
F80007C0
F80007C0
F80007C0
F80007C0
F80007C0
F80007C0
F80007C0
F80007C0
F80007C0
F80007C0
F80007C0
F80007C0
F80007C0
F80007C0
F80007C0
F80007C0
F80007C0
F80007C0
FC0007C0
FC000FC0
7E000FC0
7F003FC0
7FC0F7C0
3FFFF7C0
1FFFE7C0
0FFFC7C0
07FF87C0
00FE0000
ENDCHAR
STARTCHAR 00FD
ENCODING 253
SWIDTH 593 0
DWIDTH 38 0
BBX 32 62 3 -13
BITMAP
00003800
00003E00
00007E00
00007C00
0000FC00
0000F800
0001F000
0001F000
0003E000
0003C000
0007C000
00008000
00000000
00000000
00000000
00000000
FC00001F
7C00003E
7E00003E
3E00007E
3E00007C
1F00007C
1F0000F8
1F8000F8
0F8001F8
0F8001F0
07C001F0
07C003E0
03E003E0
03E007E0
03E007C0
01F007C0
01F00F80
00F80F80
00F81F80
00F81F00
007C1F00
007C3E00
003E3E00
003E3C00
003E7C00
001F7C00
001FF800
000FF800
000FF000
000FF000
0007F000
0007E000
0003E000
0007C000
0007C000
000FC000
000F8000
001F8000
001F0000
001F0000
003F0000
3FFE0000
3FFE0000
3FFC0000
3FF80000
3FE00000
ENDCHAR
STARTCHAR 00FE
ENCODING 254
SWIDTH 593 0
DWIDTH 38 0
BBX 29 60 6 -13
BITMAP
F8000000
F8000000
F8000000
F8000000
F8000000
F8000000
F8000000
F8000000
F8000000
F8000000
F8000000
F8000000
F8000000
F80FE000
F83FFC00
F8FFFE00
F9FFFF00
F9FFFF80
FBC07FC0
FF001FC0
FE000FE0
FC0007E0
FC0003F0
F80003F0
F80001F0
F80001F0
F80001F0
F80001F0
F80001F8
F80001F8
F80001F8
F80001F8
F80001F8
F80001F0
F80001F0
F80001F0
F80001F0
F80003F0
FC0003F0
FC0007E0
FE000FE0
FF001FC0
FBC07FC0
F9FFFF80
F9FFFF00
F8FFFE00
F83FFC00
F80FE000
F8000000
F8000000
F8000000
F8000000
F8000000
F8000000
F8000000
F8000000
F8000000
F8000000
F8000000
F8000000
ENDCHAR
STARTCHAR 00FF
ENCODING 255
SWIDTH 593 0
DWIDTH 38 0
BBX 32 59 3 -13
BITMAP
00F80F80
01FC1F80
01FC1FC0
01FC3FC0
01FC1FC0
01FC1F80
00F80F00
00000000
00000000
00000000
00000000
00000000
00000000
FC00001F
7C00003E
7E00003E
3E00007E
3E00007C
1F00007C
1F0000F8
1F8000F8
0F8001F8
0F8001F0
07C001F0
07C003E0
03E003E0
03E007E0
03E007C0
01F007C0
01F00F80
00F80F80
00F81F80
00F81F00
007C1F00
007C3E00
003E3E00
003E3C00
003E7C00
001F7C00
001FF800
000FF800
000FF000
000FF000
0007F000
0007E000
0003E000
0007C000
0007C000
000FC000
000F8000
001F8000
001F0000
001F0000
003F0000
3FFE0000
3FFE0000
3FFC0000
3FF80000
3FE00000
ENDCHAR
STARTCHAR 0100
ENCODING 256
SWIDTH 593 0
DWIDTH 38 0
BBX 34 56 2 0
BITMAP
00FFFFC000
00FFFFC000
00FFFFC000
00FFFFC000
0000000000
0000000000
0000000000
0000000000
0000000000
0000000000
0000000000
0003F80000
0007F80000
0007FC0000
0007FC0000
000FFC0000
000FFC0000
000FBE0000
001F3E0000
001F3E0000
001F1F0000
003E1F0000
003E1F0000
003E1F8000
003E0F8000
007C0F8000
007C0FC000
007C07C000
00F807C000
00F807C000
00F803E000
01F803E000
01F003E000
01F003F000
01F001F000
03E001F000
03E001F800
03E000F800
07FFFFF800
07FFFFF800
07FFFFFC00
0FFFFFFC00
0FFFFFFC00
0F80007E00
1F80007E00
1F80003E00
1F00003F00
1F00003F00
3F00001F00
3E00001F80
3E00001F80
7E00001F80
7E00000F80
7C00000FC0
FC00000FC0
FC000007C0
ENDCHAR
STARTCHAR 0101
ENCODING 257
SWIDTH 593 0
DWIDTH 38 0
BBX 31 46 4 -1
BITMAP
07FFFE00
07FFFE00
07FFFE00
07FFFE00
00000000
00000000
00000000
00000000
00000000
00000000
00000000
003FC000
01FFF800
07FFFE00
0FFFFF00
1FFFFF80
3FC07F80
3F001FC0
7E000FC0
1C0007C0
080007E0
000007E0
000007E0
000007E0
000007E0
000007E0
007FFFE0
07FFFFE0
0FFFFFE0
3FFFFFE0
3FC007E0
7E0007E0
7C0007E0
FC0007E0
FC0007E0
FC0007E0
FC0007E0
FC0007E0
FC000FE0
7E001BE0
7F80FBFE
3FFFF3FE
1FFFF1FE
0FFFE0FE
07FFC07E
01FE0000
ENDCHAR
STARTCHAR 0102
ENCODING 258
SWIDTH 593 0
DWIDTH 38 0
BBX 34 60 2 0
BITMAP
0040008000
01E001F000
01F001E000
00F003E000
00F807C000
00FC07C000
007E1F8000
003FFF8000
001FFF0000
000FFC0000
0003F00000
0000000000
0000000000
0000000000
0000000000
0003F80000
0007F80000
0007FC0000
0007FC0000
000FFC0000
000FFC0000
000FBE0000
001F3E0000
001F3E0000
001F1F0000
003E1F0000
003E1F0000
003E1F8000
003E0F8000
007C0F8000
007C0FC000
007C07C000
00F807C000
00F807C000
00F803E000
01F803E000
01F003E000
01F003F000
01F001F000
03E001F000
03E001F800
03E000F800
07FFFFF800
07FFFFF800
07FFFFFC00
0FFFFFFC00
0FFFFFFC00
0F80007E00
1F80007E00
1F80003E00
1F00003F00
1F00003F00
3F00001F00
3E00001F80
3E00001F80
7E00001F80
7E00000F80
7C00000FC0
FC00000FC0
FC000007C0
ENDCHAR
STARTCHAR 0103
ENCODING 259
SWIDTH 593 0
DWIDTH 38 0
BBX 31 50 4 -1
BITMAP
02000400
0F000F00
0F800F00
07801F00
07C03E00
07E03E00
03F0FC00
01FFFC00
00FFF800
007FE000
001F8000
00000000
00000000
00000000
00000000
003FC000
01FFF800
07FFFE00
0FFFFF00
1FFFFF80
3FC07F80
3F001FC0
7E000FC0
1C0007C0
080007E0
000007E0
000007E0
000007E0
000007E0
000007E0
007FFFE0
07FFFFE0
0FFFFFE0
3FFFFFE0
3FC007E0
7E0007E0
7C0007E0
FC0007E0
FC0007E0
FC0007E0
FC0007E0
FC0007E0
FC000FE0
7E001BE0
7F80FBFE
3FFFF3FE
1FFFF1FE
0FFFE0FE
07FFC07E
01FE0000
ENDCHAR
STARTCHAR 0104
ENCODING 260
SWIDTH 593 0
DWIDTH 38 0
BBX 36 58 2 -13
BITMAP
0003F80000
0007F80000
0007FC0000
0007FC0000
000FFC0000
000FFC0000
000FBE0000
001F3E0000
001F3E0000
001F1F0000
003E1F0000
003E1F0000
003E1F8000
003E0F8000
007C0F8000
007C0F8000
007C07C000
00F807C000
00F807C000
00F803E000
01F803E000
01F003E000
01F003F000
01F001F000
03E001F000
03E001F800
03E000F800
07FFFFF800
07FFFFF800
07FFFFFC00
0FFFFFFC00
0FFFFFFC00
0F80007E00
1F80007E00
1F80003E00
1F00003F00
1F00003F00
3F00001F00
3E00001F00
3E00001F80
7E00001F80
7E00000F80
7C00000FC0
FC00000FC0
FC000007C0
00000003C0
0000000F80
0000003E00
0000007C00
000000F800
000001F000
000001E000
000001E000
000001E080
000001F0C0
000000FFF0
0000007FE0
0000003F80
ENDCHAR
STARTCHAR 0105
ENCODING 261
SWIDTH 593 0
DWIDTH 38 0
BBX 33 47 4 -13
BITMAP
003FC00000
01FFF80000
07FFFE0000
0FFFFF0000
1FFFFF8000
3FC07F8000
3F001FC000
7E000FC000
1C0007C000
080007E000
000007E000
000007E000
000007E000
000007E000
000007E000
007FFFE000
07FFFFE000
0FFFFFE000
3FFFFFE000
3FC007E000
7E0007E000
7C0007E000
FC0007E000
FC0007E000
FC0007E000
FC0007E000
FC0007E000
FC000FE000
7E001BE000
7F80FBFE00
3FFFF3FE00
1FFFF1FE00
0FFFE0FE00
07FFC07E00
01FE003C00
000000F800
000001E000
000003C000
0000078000
00000F8000
00000F0000
00000F0000
00000F0400
00000F8600
00000FFF00
000007FF80
000001FC00
ENDCHAR
STARTCHAR 0106
ENCODING 262
SWIDTH 593 0
DWIDTH 38 0
BBX 30 61 4 -1
BITMAP
00001C00
00001F00
00003F00
00003E00
00007C00
00007C00
0000F800
0000F000
0001F000
0001E000
0003C000
0000C000
00000000
00000000
00000000
000FF800
007FFE00
00FFFF80
01FFFFC0
03FFFFE0
07F80FF0
0FE003F0
0FC001F8
1F8000FC
1F00007C
3F00007C
3E000020
3E000000
7E000000
7E000000
7C000000
7C000000
7C000000
7C000000
7C000000
7C000000
FC000000
FC000000
FC000000
FC000000
7C000000
7C000000
7C000000
7C000000
7C000000
7C000000
7E000000
7E000000
3E000000
3E000020
3F00007C
1F00007C
1F8000FC
0FC001F8
0FE003F0
07F80FF0
03FFFFE0
01FFFFC0
00FFFF80
007FFE00
000FF800
ENDCHAR
STARTCHAR 0107
ENCODING 263
SWIDTH 593 0
DWIDTH 38 0
BBX 28 50 5 -1
BITMAP
00007000
00007C00
0000FC00
0000F800
0001F000
0001F000
0003E000
0003C000
0007C000
00078000
000F0000
00030000
00000000
00000000
00000000
001FE000
00FFFC00
01FFFE00
03FFFF00
07FFFF80
0FF03FC0
1FC007E0
1F8003E0
3F0003F0
3E000180
7E000000
7C000000
7C000000
7C000000
7C000000
FC000000
FC000000
FC000000
FC000000
FC000000
7C000000
7C000000
7C000000
7C000000
7E000080
3E0000C0
3F0001F0
3F8003F0
1FC007E0
0FF01FC0
07FFFFC0
03FFFF80
01FFFF00
00FFFC00
001FF000
ENDCHAR
STARTCHAR 0108
ENCODING 264
SWIDTH 593 0
DWIDTH 38 0
BBX 30 61 4 -1
BITMAP
0007F800
0007F800
000FFC00
001FFE00
003F3F00
007E1F80
007C0F80
00F807C0
01F003E0
01E001E0
00400080
00000000
00000000
00000000
00000000
000FF800
007FFE00
00FFFF80
01FFFFC0
03FFFFE0
07F80FF0
0FE003F0
0FC001F8
1F8000FC
1F00007C
3F00007C
3E000020
3E000000
7E000000
7E000000
7C000000
7C000000
7C000000
7C000000
7C000000
7C000000
FC000000
FC000000
FC000000
FC000000
7C000000
7C000000
7C000000
7C000000
7C000000
7C000000
7E000000
7E000000
3E000000
3E000020
3F00007C
1F00007C
1F8000FC
0FC001F8
0FE003F0
07F80FF0
03FFFFE0
01FFFFC0
00FFFF80
007FFE00
000FF800
ENDCHAR
STARTCHAR 0109
ENCODING 265
SWIDTH 593 0
DWIDTH 38 0
BBX 28 50 5 -1
BITMAP
001FE000
001FE000
003FF000
007FF800
00FCFC00
01F87E00
01F03E00
03E01F00
07C00F80
07800780
01000200
00000000
00000000
00000000
00000000
001FE000
00FFFC00
01FFFE00
03FFFF00
07FFFF80
0FF03FC0
1FC007E0
1F8003E0
3F0003F0
3E000180
7E000000
7C000000
7C000000
7C000000
7C000000
FC000000
FC000000
FC000000
FC000000
FC000000
7C000000
7C000000
7C000000
7C000000
7E000080
3E0000C0
3F0001F0
3F8003F0
1FC007E0
0FF01FC0
07FFFFC0
03FFFF80
01FFFF00
00FFFC00
001FF000
ENDCHAR
STARTCHAR 010A
ENCODING 266
SWIDTH 593 0
DWIDTH 38 0
BBX 30 59 4 -1
BITMAP
0003E000
0007F800
0007F800
0007F800
0007F800
0007F800
0007F800
0003F000
00000000
00000000
00000000
00000000
00000000
000FF800
007FFE00
00FFFF80
01FFFFC0
03FFFFE0
07F80FF0
0FE003F0
0FC001F8
1F8000FC
1F00007C
3F00007C
3E000020
3E000000
7E000000
7E000000
7C000000
7C000000
7C000000
7C000000
7C000000
7C000000
FC000000
FC000000
FC000000
FC000000
7C000000
7C000000
7C000000
7C000000
7C000000
7C000000
7E000000
7E000000
3E000000
3E000020
3F00007C
1F00007C
1F8000FC
0FC001F8
0FE003F0
07F80FF0
03FFFFE0
01FFFFC0
00FFFF80
007FFE00
000FF800
ENDCHAR
STARTCHAR 010B
ENCODING 267
SWIDTH 593 0
DWIDTH 38 0
BBX 28 48 5 -1
BITMAP
0007C000
001FE000
001FE000
001FE000
001FE000
001FE000
001FE000
000F8000
00000000
00000000
00000000
00000000
00000000
001FE000
00FFFC00
01FFFE00
03FFFF00
07FFFF80
0FF03FC0
1FC007E0
1F8003E0
3F0003F0
3E000180
7E000000
7C000000
7C000000
7C000000
7C000000
FC000000
FC000000
FC000000
FC000000
FC000000
7C000000
7C000000
7C000000
7C000000
7E000080
3E0000C0
3F0001F0
3F8003F0
1FC007E0
0FF01FC0
07FFFFC0
03FFFF80
01FFFF00
00FFFC00
001FF000
ENDCHAR
STARTCHAR 010C
ENCODING 268
SWIDTH 593 0
DWIDTH 38 0
BBX 30 61 4 -1
BITMAP
00400080
01E001E0
01F003E0
00F807C0
007C0F80
007E1F80
003F3F00
001FFE00
000FFC00
0007F800
0007F800
00000000
00000000
00000000
00000000
000FF800
007FFE00
00FFFF80
01FFFFC0
03FFFFE0
07F80FF0
0FE003F0
0FC001F8
1F8000FC
1F00007C
3F00007C
3E000020
3E000000
7E000000
7E000000
7C000000
7C000000
7C000000
7C000000
7C000000
7C000000
FC000000
FC000000
FC000000
FC000000
7C000000
7C000000
7C000000
7C000000
7C000000
7C000000
7E000000
7E000000
3E000000
3E000020
3F00007C
1F00007C
1F8000FC
0FC001F8
0FE003F0
07F80FF0
03FFFFE0
01FFFFC0
00FFFF80
007FFE00
000FF800
ENDCHAR
STARTCHAR 010D
ENCODING 269
SWIDTH 593 0
DWIDTH 38 0
BBX 28 50 5 -1
BITMAP
01000200
07800780
07C00F80
03E01F00
01F03E00
01F87E00
00FCFC00
007FF800
003FF000
001FE000
001FE000
00000000
00000000
00000000
00000000
001FE000
00FFFC00
01FFFE00
03FFFF00
07FFFF80
0FF03FC0
1FC007E0
1F8003E0
3F0003F0
3E000180
7E000000
7C000000
7C000000
7C000000
7C000000
FC000000
FC000000
FC000000
FC000000
FC000000
7C000000
7C000000
7C000000
7C000000
7E000080
3E0000C0
3F0001F0
3F8003F0
1FC007E0
0FF01FC0
07FFFFC0
03FFFF80
01FFFF00
00FFFC00
001FF000
ENDCHAR
STARTCHAR 010E
ENCODING 270
SWIDTH 593 0
DWIDTH 38 0
BBX 29 60 6 0
BITMAP
08001000
3C003800
7E007C00
1F00F800
1F81F000
0FC3E000
07E7E000
03FFC000
01FF8000
01FF0000
00FE0000
00000000
00000000
00000000
00000000
FFFF8000
FFFFF000
FFFFFC00
FFFFFE00
FFFFFF00
F800FF80
F8003F80
F8001FC0
F8000FC0
F80007E0
F80007E0
F80003E0
F80003F0
F80001F0
F80001F0
F80001F0
F80001F0
F80001F8
F80001F8
F80001F8
F80001F8
F80001F8
F80001F8
F80001F8
F80001F8
F80001F8
F80001F8
F80001F8
F80001F0
F80001F0
F80001F0
F80001F0
F80003F0
F80003E0
F80007E0
F80007E0
F8000FC0
F8001FC0
F8003F80
F800FF80
FFFFFF00
FFFFFE00
FFFFFC00
FFFFF000
FFFF8000
ENDCHAR
STARTCHAR 010F
ENCODING 271
SWIDTH 593 0
DWIDTH 38 0
BBX 38 48 3 -1
BITMAP
000003E0FC
000003E0FC
000003E0FC
000003E0FC
000003E0F8
000003E0F8
000003E0F8
000003E0F8
000003E0F0
000003E0F0
000003E1F0
000003E1F0
000003E000
007E03E000
03FFC3E000
07FFE3E000
0FFFF3E000
1FFFFBE000
1FE07BE000
3F801FE000
3F000FE000
7E0007E000
7C0003E000
7C0003E000
FC0003E000
FC0003E000
F80003E000
F80003E000
F80003E000
F80003E000
F80003E000
F80003E000
F80003E000
F80003E000
F80003E000
FC0003E000
FC0003E000
7C0003E000
7C0003E000
7E0007E000
3F000FE000
3F801FE000
3FE07BE000
1FFFFBE000
0FFFF3E000
07FFE3E000
03FFC3E000
007E000000
ENDCHAR
STARTCHAR 0110
ENCODING 272
SWIDTH 593 0
DWIDTH 38 0
BBX 34 45 1 0
BITMAP
03FFFC0000
03FFFF8000
03FFFFE000
03FFFFF000
03FFFFF800
03E007FC00
03E001FC00
03E000FE00
03E0007E00
03E0003F00
03E0003F00
03E0001F00
03E0001F80
03E0000F80
03E0000F80
03E0000F80
03E0000F80
03E0000FC0
FFFFF00FC0
FFFFF00FC0
FFFFF00FC0
FFFFF00FC0
FFFFF00FC0
03E0000FC0
03E0000FC0
03E0000FC0
03E0000FC0
03E0000FC0
03E0000F80
03E0000F80
03E0000F80
03E0000F80
03E0001F80
03E0001F00
03E0003F00
03E0003F00
03E0007E00
03E000FE00
03E001FC00
03E007FC00
03FFFFF800
03FFFFF000
03FFFFE000
03FFFF8000
03FFFC0000
ENDCHAR
STARTCHAR 0111
ENCODING 273
SWIDTH 593 0
DWIDTH 38 0
BBX 32 48 4 -1
BITMAP
000001F0
000001F0
000001F0
000001F0
0007FFFF
0007FFFF
0007FFFF
0007FFFF
0007FFFF
000001F0
000001F0
000001F0
000001F0
007F01F0
01FFE1F0
07FFF1F0
0FFFF9F0
1FFFFDF0
1FE03DF0
3F800FF0
3F0003F0
7E0003F0
7C0001F0
7C0001F0
FC0001F0
FC0001F0
F80001F0
F80001F0
F80001F0
F80001F0
F80001F0
F80001F0
F80001F0
F80001F0
F80001F0
FC0001F0
FC0001F0
7C0001F0
7E0001F0
7E0003F0
3F0003F0
3F800FF0
1FE03DF0
1FFFFDF0
0FFFF9F0
07FFF1F0
01FFE1F0
007F0000
ENDCHAR
STARTCHAR 0112
ENCODING 274
SWIDTH 593 0
DWIDTH 38 0
BBX 27 56 6 0
BITMAP
07FFFC00
07FFFC00
07FFFC00
07FFFC00
00000000
00000000
00000000
00000000
00000000
00000000
00000000
FFFFFFE0
FFFFFFE0
FFFFFFE0
FFFFFFE0
FFFFFFE0
F8000000
F8000000
F8000000
F8000000
F8000000
F8000000
F8000000
F8000000
F8000000
F8000000
F8000000
F8000000
F8000000
F8000000
F8000000
FFFFFFE0
FFFFFFE0
FFFFFFE0
FFFFFFE0
FFFFFFE0
F8000000
F8000000
F8000000
F8000000
F8000000
F8000000
F8000000
F8000000
F8000000
F8000000
F8000000
F8000000
F8000000
F8000000
F8000000
FFFFFFE0
FFFFFFE0
FFFFFFE0
FFFFFFE0
FFFFFFE0
ENDCHAR
STARTCHAR 0113
ENCODING 275
SWIDTH 593 0
DWIDTH 38 0
BBX 30 46 4 -1
BITMAP
03FFFF00
03FFFF00
03FFFF00
03FFFF00
00000000
00000000
00000000
00000000
00000000
00000000
00000000
001FE000
007FFC00
01FFFF00
03FFFF80
07FFFFC0
0FF01FE0
1FC007E0
1F8003F0
3F0001F8
3E0001F8
7E0000F8
7C0000FC
7C0000FC
7C00007C
FC00007C
FFFFFFFC
FFFFFFFC
FFFFFFFC
FFFFFFFC
FC000000
FC000000
7C000000
7C000000
7C000000
7C000000
3E000040
3F0000F0
1F8001F8
1FC003F8
0FF01FF0
07FFFFE0
03FFFFC0
01FFFF80
007FFE00
000FF000
ENDCHAR
STARTCHAR 0114
ENCODING 276
SWIDTH 593 0
DWIDTH 38 0
BBX 27 60 6 0
BITMAP
02000C00
1E000F00
0F001E00
0F803E00
0F803E00
07C07C00
07E0FC00
03FFF800
01FFF000
00FFE000
003F8000
00000000
00000000
00000000
00000000
FFFFFFE0
FFFFFFE0
FFFFFFE0
FFFFFFE0
FFFFFFE0
F8000000
F8000000
F8000000
F8000000
F8000000
F8000000
F8000000
F8000000
F8000000
F8000000
F8000000
F8000000
F8000000
F8000000
F8000000
FFFFFFE0
FFFFFFE0
FFFFFFE0
FFFFFFE0
FFFFFFE0
F8000000
F8000000
F8000000
F8000000
F8000000
F8000000
F8000000
F8000000
F8000000
F8000000
F8000000
F8000000
F8000000
F8000000
F8000000
FFFFFFE0
FFFFFFE0
FFFFFFE0
FFFFFFE0
FFFFFFE0
ENDCHAR
STARTCHAR 0115
ENCODING 277
SWIDTH 593 0
DWIDTH 38 0
BBX 30 50 4 -1
BITMAP
01800200
078007C0
07C00780
03C00F80
03E00F80
01F01F00
01F83F00
00FFFE00
007FFC00
003FF800
000FE000
00000000
00000000
00000000
00000000
001FE000
007FFC00
01FFFF00
03FFFF80
07FFFFC0
0FF01FE0
1FC007E0
1F8003F0
3F0001F8
3E0001F8
7E0000F8
7C0000FC
7C0000FC
7C00007C
FC00007C
FFFFFFFC
FFFFFFFC
FFFFFFFC
FFFFFFFC
FC000000
FC000000
7C000000
7C000000
7C000000
7C000000
3E000040
3F0000F0
1F8001F8
1FC003F8
0FF01FF0
07FFFFE0
03FFFFC0
01FFFF80
007FFE00
000FF000
ENDCHAR
STARTCHAR 0116
ENCODING 278
SWIDTH 593 0
DWIDTH 38 0
BBX 27 58 6 0
BITMAP
001F0000
003F8000
003F8000
007FC000
007FC000
003F8000
003F8000
001F0000
00000000
00000000
00000000
00000000
00000000
FFFFFFE0
FFFFFFE0
FFFFFFE0
FFFFFFE0
FFFFFFE0
F8000000
F8000000
F8000000
F8000000
F8000000
F8000000
F8000000
F8000000
F8000000
F8000000
F8000000
F8000000
F8000000
F8000000
F8000000
FFFFFFE0
FFFFFFE0
FFFFFFE0
FFFFFFE0
FFFFFFE0
F8000000
F8000000
F8000000
F8000000
F8000000
F8000000
F8000000
F8000000
F8000000
F8000000
F8000000
F8000000
F8000000
F8000000
F8000000
FFFFFFE0
FFFFFFE0
FFFFFFE0
FFFFFFE0
FFFFFFE0
ENDCHAR
STARTCHAR 0117
ENCODING 279
SWIDTH 593 0
DWIDTH 38 0
BBX 30 48 4 -1
BITMAP
0007C000
000FE000
001FE000
001FE000
001FE000
001FE000
000FE000
0007C000
00000000
00000000
00000000
00000000
00000000
001FE000
007FFC00
01FFFF00
03FFFF80
07FFFFC0
0FF01FE0
1FC007E0
1F8003F0
3F0001F8
3E0001F8
7E0000F8
7C0000FC
7C0000FC
7C00007C
FC00007C
FFFFFFFC
FFFFFFFC
FFFFFFFC
FFFFFFFC
FC000000
FC000000
7C000000
7C000000
7C000000
7C000000
3E000040
3F0000F0
1F8001F8
1FC003F8
0FF01FF0
07FFFFE0
03FFFFC0
01FFFF80
007FFE00
000FF000
ENDCHAR
STARTCHAR 0118
ENCODING 280
SWIDTH 593 0
DWIDTH 38 0
BBX 29 58 6 -13
BITMAP
FFFFFFE0
FFFFFFE0
FFFFFFE0
FFFFFFE0
FFFFFFE0
F8000000
F8000000
F8000000
F8000000
F8000000
F8000000
F8000000
F8000000
F8000000
F8000000
F8000000
F8000000
F8000000
F8000000
F8000000
FFFFFFE0
FFFFFFE0
FFFFFFE0
FFFFFFE0
FFFFFFE0
F8000000
F8000000
F8000000
F8000000
F8000000
F8000000
F8000000
F8000000
F8000000
F8000000
F8000000
F8000000
F8000000
F8000000
F8000000
FFFFFFE0
FFFFFFE0
FFFFFFE0
FFFFFFE0
FFFFFFE0
000003E0
00000780
00001F00
00003C00
00007C00
0000F800
0000F000
0000F000
0000F040
0000F860
0000FFF0
00007FF8
00001FC0
ENDCHAR
STARTCHAR 0119
ENCODING 281
SWIDTH 593 0
DWIDTH 38 0
BBX 30 47 4 -13
BITMAP
001FE000
007FFC00
01FFFF00
03FFFF80
07FFFFC0
0FF01FE0
1FC007E0
1F8003F0
3F0001F8
3E0001F8
7E0000F8
7C0000FC
7C0000FC
7C00007C
FC00007C
FFFFFFFC
FFFFFFFC
FFFFFFFC
FFFFFFFC
FC000000
FC000000
7C000000
7C000000
7C000000
7C000000
3E000040
3F0000F0
1F8001F8
1FC003F0
0FF01FF0
07FFFFE0
03FFFFC0
01FFFF80
007FFF00
001FFE00
00003800
0000F000
0001E000
0003C000
00078000
000F8000
000F8000
000F8200
000F8700
0007FF80
0003FF00
0000FC00
ENDCHAR
STARTCHAR 011A
ENCODING 282
SWIDTH 593 0
DWIDTH 38 0
BBX 27 60 6 0
BITMAP
06000400
0F000E00
1F801F00
0FC03E00
07E07C00
03F0F800
01F9F000
00FFE000
00FFE000
007FC000
003F8000
00000000
00000000
00000000
00000000
FFFFFFE0
FFFFFFE0
FFFFFFE0
FFFFFFE0
FFFFFFE0
F8000000
F8000000
F8000000
F8000000
F8000000
F8000000
F8000000
F8000000
F8000000
F8000000
F8000000
F8000000
F8000000
F8000000
F8000000
FFFFFFE0
FFFFFFE0
FFFFFFE0
FFFFFFE0
FFFFFFE0
F8000000
F8000000
F8000000
F8000000
F8000000
F8000000
F8000000
F8000000
F8000000
F8000000
F8000000
F8000000
F8000000
F8000000
F8000000
FFFFFFE0
FFFFFFE0
FFFFFFE0
FFFFFFE0
FFFFFFE0
ENDCHAR
STARTCHAR 011B
ENCODING 283
SWIDTH 593 0
DWIDTH 38 0
BBX 30 50 4 -1
BITMAP
01000300
03800780
07E00FC0
03F01F00
01F83F00
00FC7E00
007EFC00
007FF800
003FF800
001FF000
000FE000
00000000
00000000
00000000
00000000
001FE000
007FFC00
01FFFF00
03FFFF80
07FFFFC0
0FF01FE0
1FC007E0
1F8003F0
3F0001F8
3E0001F8
7E0000F8
7C0000FC
7C0000FC
7C00007C
FC00007C
FFFFFFFC
FFFFFFFC
FFFFFFFC
FFFFFFFC
FC000000
FC000000
7C000000
7C000000
7C000000
7C000000
3E000040
3F0000F0
1F8001F8
1FC003F8
0FF01FF0
07FFFFE0
03FFFFC0
01FFFF80
007FFE00
000FF000
ENDCHAR
STARTCHAR 011C
ENCODING 284
SWIDTH 593 0
DWIDTH 38 0
BBX 29 61 4 -1
BITMAP
000FE000
001FF000
003FF800
003FFC00
007EFC00
00FC7E00
01F83F00
03F01F80
03E00F80
07C007C0
01800100
00000000
00000000
00000000
00000000
001FF000
00FFFC00
01FFFF00
03FFFF80
07FFFFC0
0FF01FE0
1FC007F0
1F8003F0
3F0001F8
3E0000F8
7E0000F8
7E0000C0
7C000000
FC000000
FC000000
FC000000
F8000000
F8000000
F8000000
F8000000
F8000000
F8000000
F8000000
F801FFF8
F801FFF8
F801FFF8
F801FFF8
F801FFF8
F80000F8
F80000F8
FC0000F8
FC0000F8
FC0000F8
7C0000F8
7C0000F8
7E0000F8
7E0001F8
3F0001F8
3F8003F8
1FC007F8
1FF01EF8
0FFFFEF8
07FFFCF8
03FFF8F8
00FFF0F8
003FC000
ENDCHAR
STARTCHAR 011D
ENCODING 285
SWIDTH 593 0
DWIDTH 38 0
BBX 32 63 4 -14
BITMAP
001FE000
001FE000
003FF000
007FF800
00FCFC00
00F87E00
01F03E00
03E01F00
07C00F80
07800780
01000200
00000000
00000000
00000000
00000000
001FE000
00FFFFFF
01FFFFFF
07FFFFFF
0FFFFFFF
0FE01FFF
1F8007C0
1F8003E0
1F0003E0
3F0003F0
3F0003F0
3F0003F0
3F0003F0
3F0003F0
1F0003F0
1F8003E0
1F8007E0
0FE01FC0
0FFFFFC0
07FFFF80
03FFFF00
00FFFC00
01FFE000
07C00000
0F000000
1E000000
1E000000
1E000000
1F800000
1FFFFF80
1FFFFFF0
0FFFFFF8
03FFFFFC
07FFFFFE
1E0000FE
3C00003F
7800001F
7800001F
F800001F
F800001F
FC00003F
FE00007E
7F8003FE
7FFFFFFC
3FFFFFF8
1FFFFFF0
07FFFFC0
00FFFC00
ENDCHAR
STARTCHAR 011E
ENCODING 286
SWIDTH 593 0
DWIDTH 38 0
BBX 29 61 4 -1
BITMAP
00800300
078003C0
03C007C0
03E00F80
03E00F80
01F01F00
01F83F00
00FFFE00
007FFC00
003FF800
000FE000
00000000
00000000
00000000
00000000
001FF000
00FFFC00
01FFFF00
03FFFF80
07FFFFC0
0FF01FE0
1FC007F0
1F8003F0
3F0001F8
3E0000F8
7E0000F8
7E0000C0
7C000000
FC000000
FC000000
FC000000
F8000000
F8000000
F8000000
F8000000
F8000000
F8000000
F8000000
F801FFF8
F801FFF8
F801FFF8
F801FFF8
F801FFF8
F80000F8
F80000F8
FC0000F8
FC0000F8
FC0000F8
7C0000F8
7C0000F8
7E0000F8
7E0001F8
3F0001F8
3F8003F8
1FC007F8
1FF01EF8
0FFFFEF8
07FFFCF8
03FFF8F8
00FFF0F8
003FC000
ENDCHAR
STARTCHAR 011F
ENCODING 287
SWIDTH 593 0
DWIDTH 38 0
BBX 32 63 4 -14
BITMAP
01000200
07800780
07C00780
07C00F80
03E01F00
03F01F00
01F87E00
00FFFE00
00FFFC00
003FF000
000FC000
00000000
00000000
00000000
00000000
001FE000
00FFFFFF
01FFFFFF
07FFFFFF
0FFFFFFF
0FE01FFF
1F8007C0
1F8003E0
1F0003E0
3F0003F0
3F0003F0
3F0003F0
3F0003F0
3F0003F0
1F0003F0
1F8003E0
1F8007E0
0FE01FC0
0FFFFFC0
07FFFF80
03FFFF00
00FFFC00
01FFE000
07C00000
0F000000
1E000000
1E000000
1E000000
1F800000
1FFFFF80
1FFFFFF0
0FFFFFF8
03FFFFFC
07FFFFFE
1E0000FE
3C00003F
7800001F
7800001F
F800001F
F800001F
FC00003F
FE00007E
7F8003FE
7FFFFFFC
3FFFFFF8
1FFFFFF0
07FFFFC0
00FFFC00
ENDCHAR
STARTCHAR 0120
ENCODING 288
SWIDTH 593 0
DWIDTH 38 0
BBX 29 59 4 -1
BITMAP
0007C000
000FE000
000FF000
000FF000
000FF000
000FF000
000FE000
0007C000
00000000
00000000
00000000
00000000
00000000
001FF000
00FFFC00
01FFFF00
03FFFF80
07FFFFC0
0FF01FE0
1FC007F0
1F8003F0
3F0001F8
3E0000F8
7E0000F8
7E0000C0
7C000000
FC000000
FC000000
FC000000
F8000000
F8000000
F8000000
F8000000
F8000000
F8000000
F8000000
F801FFF8
F801FFF8
F801FFF8
F801FFF8
F801FFF8
F80000F8
F80000F8
FC0000F8
FC0000F8
FC0000F8
7C0000F8
7C0000F8
7E0000F8
7E0001F8
3F0001F8
3F8003F8
1FC007F8
1FF01EF8
0FFFFEF8
07FFFCF8
03FFF8F8
00FFF0F8
003FC000
ENDCHAR
STARTCHAR 0121
ENCODING 289
SWIDTH 593 0
DWIDTH 38 0
BBX 32 61 4 -14
BITMAP
0007C000
000FE000
001FE000
001FE000
001FE000
001FE000
000FE000
0007C000
00000000
000001FF
000003FF
000003FF
000003FF
001FE3FF
00FFFF00
01FFFF00
07FFFF00
0FFFFF80
0FE01FC0
1F8007E0
1F8003E0
1F0003E0
3F0003F0
3F0003F0
3F0003F0
3F0003F0
3F0003F0
1F0003F0
1F8003E0
1F8007E0
0FE01FC0
0FFFFFC0
07FFFF80
03FFFF00
00FFFC00
01FFE000
07C00000
0F000000
1E000000
1E000000
1E000000
1F800000
1FFFFF80
1FFFFFF0
0FFFFFF8
03FFFFFC
07FFFFFE
1E0000FE
3C00003F
7800001F
7800001F
F800001F
F800001F
FC00003F
FE00007E
7F8003FE
7FFFFFFC
3FFFFFF8
1FFFFFF0
07FFFFC0
00FFFC00
ENDCHAR
STARTCHAR 0122
ENCODING 290
SWIDTH 593 0
DWIDTH 38 0
BBX 29 61 4 -16
BITMAP
001FF000
00FFFC00
01FFFF00
03FFFF80
07FFFFC0
0FF01FE0
1FC007F0
1F8003F0
3F0001F8
3E0000F8
7E0000F8
7E0000C0
7C000000
FC000000
FC000000
FC000000
F8000000
F8000000
F8000000
F8000000
F8000000
F8000000
F8000000
F801FFF8
F801FFF8
F801FFF8
F801FFF8
F801FFF8
F80000F8
F80000F8
FC0000F8
FC0000F8
FC0000F8
7C0000F8
7C0000F8
7E0000F8
7E0001F8
3F0001F8
3F8003F8
1FC007F8
1FF01EF8
0FFFFEF8
07FFFCF8
03FFF8F8
00FFF0F8
003FC000
00000000
00000000
00000000
000FE000
000FC000
001FC000
001F8000
001F8000
001F8000
001F0000
001F0000
001E0000
003E0000
003E0000
003C0000
ENDCHAR
STARTCHAR 0123
ENCODING 291
SWIDTH 593 0
DWIDTH 38 0
BBX 32 64 4 -14
BITMAP
0000F000
0000F000
0001F000
0001F000
0003F000
0003E000
0003E000
0007E000
0007E000
000FE000
000FE000
000FC000
001001FF
000003FF
000003FF
000003FF
001FE3FF
00FFFF00
01FFFF00
07FFFF00
0FFFFF80
0FE01FC0
1F8007E0
1F8003E0
1F0003E0
3F0003F0
3F0003F0
3F0003F0
3F0003F0
3F0003F0
1F0003F0
1F8003E0
1F8007E0
0FE01FC0
0FFFFFC0
07FFFF80
03FFFF00
00FFFC00
01FFE000
07C00000
0F000000
1E000000
1E000000
1E000000
1F800000
1FFFFF80
1FFFFFF0
0FFFFFF8
03FFFFFC
07FFFFFE
1E0000FE
3C00003F
7800001F
7800001F
F800001F
F800001F
FC00003F
FE00007E
7F8003FE
7FFFFFFC
3FFFFFF8
1FFFFFF0
07FFFFC0
00FFFC00
ENDCHAR
STARTCHAR 0124
ENCODING 292
SWIDTH 593 0
DWIDTH 38 0
BBX 28 60 5 0
BITMAP
001FC000
003FE000
007FE000
00FFF000
01F9F800
01F0FC00
03E07E00
07C03E00
0F801F00
0F000F80
02000400
00000000
00000000
00000000
00000000
FC0001F0
FC0001F0
FC0001F0
FC0001F0
FC0001F0
FC0001F0
FC0001F0
FC0001F0
FC0001F0
FC0001F0
FC0001F0
FC0001F0
FC0001F0
FC0001F0
FC0001F0
FC0001F0
FC0001F0
FC0001F0
FC0001F0
FC0001F0
FFFFFFF0
FFFFFFF0
FFFFFFF0
FFFFFFF0
FFFFFFF0
FC0001F0
FC0001F0
FC0001F0
FC0001F0
FC0001F0
FC0001F0
FC0001F0
FC0001F0
FC0001F0
FC0001F0
FC0001F0
FC0001F0
FC0001F0
FC0001F0
FC0001F0
FC0001F0
FC0001F0
FC0001F0
FC0001F0
FC0001F0
ENDCHAR
STARTCHAR 0125
ENCODING 293
SWIDTH 593 0
DWIDTH 38 0
BBX 34 61 -1 0
BITMAP
03FC000000
03FC000000
07FE000000
0FFF000000
1F9F800000
3F0F800000
3E07C00000
7C03E00000
F801F00000
F000F00000
2000400000
0000000000
0000000000
0000000000
01F0000000
01F0000000
01F0000000
01F0000000
01F0000000
01F0000000
01F0000000
01F0000000
01F0000000
01F0000000
01F0000000
01F0000000
01F0000000
01F01FC000
01F07FF000
01F1FFFC00
01F3FFFE00
01F3FFFE00
01F780FF00
01F6003F00
01FC001F80
01F8001F80
01F8000F80
01F0000F80
01F0000F80
01F0000FC0
01F0000FC0
01F0000FC0
01F0000FC0
01F0000FC0
01F0000FC0
01F0000FC0
01F0000FC0
01F0000FC0
01F0000FC0
01F0000FC0
01F0000FC0
01F0000FC0
01F0000FC0
01F0000FC0
01F0000FC0
01F0000FC0
01F0000FC0
01F0000FC0
01F0000FC0
01F0000FC0
01F0000FC0
ENDCHAR
STARTCHAR 0126
ENCODING 294
SWIDTH 593 0
DWIDTH 38 0
BBX 37 45 1 0
BITMAP
0FC0001F00
0FC0001F00
0FC0001F00
0FC0001F00
0FC0001F00
0FC0001F00
0FC0001F00
FFFFFFFFF8
FFFFFFFFF8
FFFFFFFFF8
FFFFFFFFF8
FFFFFFFFF8
0FC0001F00
0FC0001F00
0FC0001F00
0FC0001F00
0FC0001F00
0FC0001F00
0FC0001F00
0FC0001F00
0FFFFFFF00
0FFFFFFF00
0FFFFFFF00
0FFFFFFF00
0FFFFFFF00
0FC0001F00
0FC0001F00
0FC0001F00
0FC0001F00
0FC0001F00
0FC0001F00
0FC0001F00
0FC0001F00
0FC0001F00
0FC0001F00
0FC0001F00
0FC0001F00
0FC0001F00
0FC0001F00
0FC0001F00
0FC0001F00
0FC0001F00
0FC0001F00
0FC0001F00
0FC0001F00
ENDCHAR
STARTCHAR 0127
ENCODING 295
SWIDTH 593 0
DWIDTH 38 0
BBX 31 47 2 0
BITMAP
0F800000
0F800000
0F800000
0F800000
FFFFE000
FFFFE000
FFFFE000
FFFFE000
FFFFE000
0F800000
0F800000
0F800000
0F800000
0F80FE00
0F83FF80
0F8FFFE0
0F9FFFF0
0F9FFFF0
0FBC07F8
0FB001F8
0FE000FC
0FC000FC
0FC0007C
0F80007C
0F80007C
0F80007E
0F80007E
0F80007E
0F80007E
0F80007E
0F80007E
0F80007E
0F80007E
0F80007E
0F80007E
0F80007E
0F80007E
0F80007E
0F80007E
0F80007E
0F80007E
0F80007E
0F80007E
0F80007E
0F80007E
0F80007E
0F80007E
ENDCHAR
STARTCHAR 0128
ENCODING 296
SWIDTH 593 0
DWIDTH 38 0
BBX 28 57 5 0
BITMAP
01F00000
07FE0200
0FFF8700
1FFFFF80
0E0FFF00
0403FE00
0000FC00
00000000
00000000
00000000
00000000
00000000
FFFFFFF0
FFFFFFF0
FFFFFFF0
FFFFFFF0
FFFFFFF0
000F8000
000F8000
000F8000
000F8000
000F8000
000F8000
000F8000
000F8000
000F8000
000F8000
000F8000
000F8000
000F8000
000F8000
000F8000
000F8000
000F8000
000F8000
000F8000
000F8000
000F8000
000F8000
000F8000
000F8000
000F8000
000F8000
000F8000
000F8000
000F8000
000F8000
000F8000
000F8000
000F8000
000F8000
000F8000
FFFFFFF0
FFFFFFF0
FFFFFFF0
FFFFFFF0
FFFFFFF0
ENDCHAR
STARTCHAR 0129
ENCODING 297
SWIDTH 593 0
DWIDTH 38 0
BBX 28 46 7 0
BITMAP
01F00000
07FE0200
0FFF8700
1FFFFF80
0E0FFF00
0403FE00
0000FC00
00000000
00000000
00000000
00000000
00000000
00000000
FFFF8000
FFFF8000
FFFF8000
FFFF8000
FFFF8000
000F8000
000F8000
000F8000
000F8000
000F8000
000F8000
000F8000
000F8000
000F8000
000F8000
000F8000
000F8000
000F8000
000F8000
000F8000
000F8000
000F8000
000F8000
000F8000
000F8000
000F8000
000F8000
000F8000
FFFFFFF0
FFFFFFF0
FFFFFFF0
FFFFFFF0
FFFFFFF0
ENDCHAR
STARTCHAR 012A
ENCODING 298
SWIDTH 593 0
DWIDTH 38 0
BBX 28 56 5 0
BITMAP
07FFFE00
07FFFE00
07FFFE00
07FFFE00
00000000
00000000
00000000
00000000
00000000
00000000
00000000
FFFFFFF0
FFFFFFF0
FFFFFFF0
FFFFFFF0
FFFFFFF0
000F8000
000F8000
000F8000
000F8000
000F8000
000F8000
000F8000
000F8000
000F8000
000F8000
000F8000
000F8000
000F8000
000F8000
000F8000
000F8000
000F8000
000F8000
000F8000
000F8000
000F8000
000F8000
000F8000
000F8000
000F8000
000F8000
000F8000
000F8000
000F8000
000F8000
000F8000
000F8000
000F8000
000F8000
000F8000
FFFFFFF0
FFFFFFF0
FFFFFFF0
FFFFFFF0
FFFFFFF0
ENDCHAR
STARTCHAR 012B
ENCODING 299
SWIDTH 593 0
DWIDTH 38 0
BBX 28 45 7 0
BITMAP
07FFFE00
07FFFE00
07FFFE00
07FFFE00
00000000
00000000
00000000
00000000
00000000
00000000
00000000
00000000
FFFF8000
FFFF8000
FFFF8000
FFFF8000
FFFF8000
000F8000
000F8000
000F8000
000F8000
000F8000
000F8000
000F8000
000F8000
000F8000
000F8000
000F8000
000F8000
000F8000
000F8000
000F8000
000F8000
000F8000
000F8000
000F8000
000F8000
000F8000
000F8000
000F8000
FFFFFFF0
FFFFFFF0
FFFFFFF0
FFFFFFF0
FFFFFFF0
ENDCHAR
STARTCHAR 012C
ENCODING 300
SWIDTH 593 0
DWIDTH 38 0
BBX 28 60 5 0
BITMAP
02000400
0F000F80
0F800F00
07801F00
07C03E00
07E03E00
03F0FC00
01FFFC00
00FFF800
007FE000
001F8000
00000000
00000000
00000000
00000000
FFFFFFF0
FFFFFFF0
FFFFFFF0
FFFFFFF0
FFFFFFF0
000F8000
000F8000
000F8000
000F8000
000F8000
000F8000
000F8000
000F8000
000F8000
000F8000
000F8000
000F8000
000F8000
000F8000
000F8000
000F8000
000F8000
000F8000
000F8000
000F8000
000F8000
000F8000
000F8000
000F8000
000F8000
000F8000
000F8000
000F8000
000F8000
000F8000
000F8000
000F8000
000F8000
000F8000
000F8000
FFFFFFF0
FFFFFFF0
FFFFFFF0
FFFFFFF0
FFFFFFF0
ENDCHAR
STARTCHAR 012D
ENCODING 301
SWIDTH 593 0
DWIDTH 38 0
BBX 28 49 7 0
BITMAP
02000400
0F000F80
0F800F00
07801F00
07C03E00
07E03E00
03F0FC00
01FFFC00
00FFF800
007FF000
001FC000
00000000
00000000
00000000
00000000
00000000
FFFF8000
FFFF8000
FFFF8000
FFFF8000
FFFF8000
000F8000
000F8000
000F8000
000F8000
000F8000
000F8000
000F8000
000F8000
000F8000
000F8000
000F8000
000F8000
000F8000
000F8000
000F8000
000F8000
000F8000
000F8000
000F8000
000F8000
000F8000
000F8000
000F8000
FFFFFFF0
FFFFFFF0
FFFFFFF0
FFFFFFF0
FFFFFFF0
ENDCHAR
STARTCHAR 012E
ENCODING 302
SWIDTH 593 0
DWIDTH 38 0
BBX 29 58 5 -13
BITMAP
FFFFFFF0
FFFFFFF0
FFFFFFF0
FFFFFFF0
FFFFFFF0
000F8000
000F8000
000F8000
000F8000
000F8000
000F8000
000F8000
000F8000
000F8000
000F8000
000F8000
000F8000
000F8000
000F8000
000F8000
000F8000
000F8000
000F8000
000F8000
000F8000
000F8000
000F8000
000F8000
000F8000
000F8000
000F8000
000F8000
000F8000
000F8000
000F8000
000F8000
000F8000
000F8000
000F8000
000F8000
FFFFFFF0
FFFFFFF0
FFFFFFF0
FFFFFFF0
FFFFFFF0
000001E0
00000780
00000F00
00001E00
00003C00
00007800
00007800
0000F800
0000F820
00007C70
00007FF8
00003FF8
00000FE0
ENDCHAR
STARTCHAR 012F
ENCODING 303
SWIDTH 593 0
DWIDTH 38 0
BBX 29 61 7 -13
BITMAP
000F8000
001FC000
003FC000
003FC000
003FC000
003FC000
001FC000
000F8000
00000000
00000000
00000000
00000000
00000000
00000000
00000000
FFFF8000
FFFF8000
FFFF8000
FFFF8000
FFFF8000
000F8000
000F8000
000F8000
000F8000
000F8000
000F8000
000F8000
000F8000
000F8000
000F8000
000F8000
000F8000
000F8000
000F8000
000F8000
000F8000
000F8000
000F8000
000F8000
000F8000
000F8000
000F8000
000F8000
FFFFFFF0
FFFFFFF0
FFFFFFF0
FFFFFFF0
FFFFFFF0
000001E0
000007C0
00000F00
00001E00
00003C00
00007800
00007800
0000F800
0000F820
00007C70
00007FF8
00003FF8
00000FE0
ENDCHAR
STARTCHAR 0130
ENCODING 304
SWIDTH 593 0
DWIDTH 38 0
BBX 28 58 5 0
BITMAP
000F8000
001FC000
003FC000
003FC000
003FC000
003FC000
001FC000
000F8000
00000000
00000000
00000000
00000000
00000000
FFFFFFF0
FFFFFFF0
FFFFFFF0
FFFFFFF0
FFFFFFF0
000F8000
000F8000
000F8000
000F8000
000F8000
000F8000
000F8000
000F8000
000F8000
000F8000
000F8000
000F8000
000F8000
000F8000
000F8000
000F8000
000F8000
000F8000
000F8000
000F8000
000F8000
000F8000
000F8000
000F8000
000F8000
000F8000
000F8000
000F8000
000F8000
000F8000
000F8000
000F8000
000F8000
000F8000
000F8000
FFFFFFF0
FFFFFFF0
FFFFFFF0
FFFFFFF0
FFFFFFF0
ENDCHAR
STARTCHAR 0131
ENCODING 305
SWIDTH 593 0
DWIDTH 38 0
BBX 28 33 7 0
BITMAP
FFFF8000
FFFF8000
FFFF8000
FFFF8000
FFFF8000
000F8000
000F8000
000F8000
000F8000
000F8000
000F8000
000F8000
000F8000
000F8000
000F8000
000F8000
000F8000
000F8000
000F8000
000F8000
000F8000
000F8000
000F8000
000F8000
000F8000
000F8000
000F8000
000F8000
FFFFFFF0
FFFFFFF0
FFFFFFF0
FFFFFFF0
FFFFFFF0
ENDCHAR
STARTCHAR 0132
ENCODING 306
SWIDTH 593 0
DWIDTH 38 0
BBX 28 46 5 -1
BITMAP
7C0003F0
7C0003F0
7C0003F0
7C0003F0
7C0003F0
7C0003F0
7C0003F0
7C0003F0
7C0003F0
7C0003F0
7C0003F0
7C0003F0
7C0003F0
7C0003F0
7C0003F0
7C0003F0
7C0003F0
7C0003F0
7C0003F0
7C0003F0
7C0003F0
7C0003F0
7C0003F0
7C0003F0
7C0003F0
7C0003F0
000003F0
000003F0
000003F0
000003F0
000003F0
000003F0
000003F0
000003F0
040003F0
7C0003E0
FC0007E0
7E0007E0
7F000FE0
3F801FC0
3FE07F80
1FFFFF80
0FFFFF00
07FFFC00
01FFF800
003FC000
ENDCHAR
STARTCHAR 0133
ENCODING 307
SWIDTH 593 0
DWIDTH 38 0
BBX 28 61 5 -13
BITMAP
3E0003E0
7F0007F0
FF000FF0
FF000FF0
FF000FF0
FF000FF0
7F0007F0
3E0003E0
00000000
00000000
00000000
00000000
00000000
00000000
00000000
3E0003E0
3E0003E0
3E0003E0
3E0003E0
3E0003E0
3E0003E0
3E0003E0
3E0003E0
3E0003E0
3E0003E0
3E0003E0
3E0003E0
3E0003E0
3E0003E0
3E0003E0
3E0003E0
3E0003E0
3E0003E0
3E0003E0
3E0003E0
3E0003E0
3E0003E0
3E0003E0
3E0003E0
3E0003E0
3E0003E0
3E0003E0
3E0003E0
3E0003E0
3E0003E0
3E0003E0
3E0003E0
3E0003E0
000003E0
000003E0
000003E0
000003E0
000003E0
000003E0
000003E0
000003C0
01FFFFC0
01FFFFC0
01FFFF80
01FFFF00
01FFFE00
ENDCHAR
STARTCHAR 0134
ENCODING 308
SWIDTH 593 0
DWIDTH 38 0
BBX 26 61 5 -1
BITMAP
001FE000
001FE000
003FF000
007FF800
00FCFC00
01F87E00
01F03E00
03E01F00
07C00F80
07800780
01000200
00000000
00000000
00000000
00000000
0FFFFFC0
0FFFFFC0
0FFFFFC0
0FFFFFC0
0FFFFFC0
00000FC0
00000FC0
00000FC0
00000FC0
00000FC0
00000FC0
00000FC0
00000FC0
00000FC0
00000FC0
00000FC0
00000FC0
00000FC0
00000FC0
00000FC0
00000FC0
00000FC0
00000FC0
00000FC0
00000FC0
00000FC0
00000FC0
00000FC0
00000FC0
00000FC0
00000FC0
00000FC0
00000FC0
00000FC0
00000FC0
F8000FC0
F8000F80
FC001F80
7E001F80
7F003F00
3FC0FF00
3FFFFE00
1FFFFC00
0FFFF800
03FFE000
007F8000
ENDCHAR
STARTCHAR 0135
ENCODING 309
SWIDTH 593 0
DWIDTH 38 0
BBX 29 62 6 -13
BITMAP
0001FE00
0001FE00
0003FF00
0007FF80
000FCFC0
000F87E0
001F03E0
003E01F0
007C00F8
00780078
00100020
00000000
00000000
00000000
00000000
00000000
FFFFFC00
FFFFFC00
FFFFFC00
FFFFFC00
FFFFFC00
00007C00
00007C00
00007C00
00007C00
00007C00
00007C00
00007C00
00007C00
00007C00
00007C00
00007C00
00007C00
00007C00
00007C00
00007C00
00007C00
00007C00
00007C00
00007C00
00007C00
00007C00
00007C00
00007C00
00007C00
00007C00
00007C00
00007C00
00007C00
00007C00
00007C00
00007C00
00007C00
00007C00
00007C00
00007C00
00007800
7FFFF800
7FFFF800
7FFFF000
7FFFE000
7FFFC000
ENDCHAR
STARTCHAR 0136
ENCODING 310
SWIDTH 593 0
DWIDTH 38 0
BBX 32 61 5 -16
BITMAP
FC00007F
FC0000FC
FC0001FC
FC0003F8
FC0007F0
FC0007E0
FC000FC0
FC001F80
FC003F80
FC007F00
FC00FE00
FC00FC00
FC01F800
FC03F000
FC07F000
FC0FE000
FC1FC000
FC1F8000
FC3F0000
FC7F0000
FCFF8000
FCFF8000
FDFFC000
FFF7E000
FFE7E000
FFC3F000
FF83F800
FF01F800
FF00FC00
FE00FC00
FC007E00
FC007F00
FC003F00
FC001F80
FC001F80
FC000FC0
FC0007E0
FC0007E0
FC0003F0
FC0003F8
FC0001F8
FC0000FC
FC0000FC
FC00007E
FC00007F
00000000
00000000
00000000
00000000
000FE000
000FE000
000FC000
000FC000
000F8000
001F8000
001F8000
001F0000
001F0000
001E0000
001E0000
003E0000
ENDCHAR
STARTCHAR 0137
ENCODING 311
SWIDTH 593 0
DWIDTH 38 0
BBX 30 63 7 -16
BITMAP
F8000000
F8000000
F8000000
F8000000
F8000000
F8000000
F8000000
F8000000
F8000000
F8000000
F8000000
F8000000
F8000000
F8000000
F80007F0
F8000FE0
F8001FC0
F8003F00
F8007E00
F800FC00
F801F800
F803F000
F807E000
F80FC000
F83F8000
F87F0000
F8FE0000
F9FE0000
FBFF0000
FFFF0000
FFDF8000
FF8FC000
FF07E000
FE07E000
F803F000
F801F800
F800FC00
F800FE00
F8007E00
F8003F00
F8001F80
F8001FC0
F8000FC0
F80007E0
F80003F0
F80003F8
F80001F8
00000004
00000000
00000000
00000000
003F8000
003F8000
003F0000
003F0000
003F0000
003E0000
007E0000
007C0000
007C0000
007C0000
00780000
00780000
ENDCHAR
STARTCHAR 0138
ENCODING 312
SWIDTH 593 0
DWIDTH 38 0
BBX 30 33 7 0
BITMAP
F80003F0
F80007E0
F8000FC0
F8001F80
F8003F00
F8007E00
F800FC00
F803F800
F807F000
F80FE000
F81FC000
F83F8000
F87F0000
F8FE0000
F9FF0000
FBFF0000
FFFF8000
FFCFC000
FF8FE000
FF07E000
FE03F000
FC01F800
F801FC00
F800FE00
F8007E00
F8003F00
F8001F80
F8001FC0
F8000FC0
F80007E0
F80003F0
F80003F8
F80001FC
ENDCHAR
STARTCHAR 0139
ENCODING 313
SWIDTH 593 0
DWIDTH 38 0
BBX 26 60 8 0
BITMAP
06000000
0F800000
0FC00000
1F800000
1F000000
3E000000
3E000000
7C000000
78000000
F8000000
F0000000
20000000
00000000
00000000
00000000
F8000000
F8000000
F8000000
F8000000
F8000000
F8000000
F8000000
F8000000
F8000000
F8000000
F8000000
F8000000
F8000000
F8000000
F8000000
F8000000
F8000000
F8000000
F8000000
F8000000
F8000000
F8000000
F8000000
F8000000
F8000000
F8000000
F8000000
F8000000
F8000000
F8000000
F8000000
F8000000
F8000000
F8000000
F8000000
F8000000
F8000000
F8000000
F8000000
F8000000
FFFFFFC0
FFFFFFC0
FFFFFFC0
FFFFFFC0
FFFFFFC0
ENDCHAR
STARTCHAR 013A
ENCODING 314
SWIDTH 593 0
DWIDTH 38 0
BBX 28 61 5 0
BITMAP
0000E000
0000F800
0001F800
0001F000
0003F000
0003E000
0007C000
0007C000
000F8000
000F0000
001F0000
00020000
00000000
00000000
FFFF8000
FFFF8000
FFFF8000
FFFF8000
FFFF8000
000F8000
000F8000
000F8000
000F8000
000F8000
000F8000
000F8000
000F8000
000F8000
000F8000
000F8000
000F8000
000F8000
000F8000
000F8000
000F8000
000F8000
000F8000
000F8000
000F8000
000F8000
000F8000
000F8000
000F8000
000F8000
000F8000
000F8000
000F8000
000F8000
000F8000
000F8000
000F8000
000F8000
000F8000
000F8000
000F8000
000F8000
FFFFFFF0
FFFFFFF0
FFFFFFF0
FFFFFFF0
FFFFFFF0
ENDCHAR
STARTCHAR 013B
ENCODING 315
SWIDTH 593 0
DWIDTH 38 0
BBX 26 61 8 -16
BITMAP
F8000000
F8000000
F8000000
F8000000
F8000000
F8000000
F8000000
F8000000
F8000000
F8000000
F8000000
F8000000
F8000000
F8000000
F8000000
F8000000
F8000000
F8000000
F8000000
F8000000
F8000000
F8000000
F8000000
F8000000
F8000000
F8000000
F8000000
F8000000
F8000000
F8000000
F8000000
F8000000
F8000000
F8000000
F8000000
F8000000
F8000000
F8000000
F8000000
F8000000
FFFFFFC0
FFFFFFC0
FFFFFFC0
FFFFFFC0
FFFFFFC0
00000000
00000000
00000000
00000000
003F8000
007F0000
007F0000
007E0000
007E0000
007C0000
007C0000
00FC0000
00F80000
00F80000
00F00000
00F00000
ENDCHAR
STARTCHAR 013C
ENCODING 316
SWIDTH 593 0
DWIDTH 38 0
BBX 28 63 5 -16
BITMAP
FFFF8000
FFFF8000
FFFF8000
FFFF8000
FFFF8000
000F8000
000F8000
000F8000
000F8000
000F8000
000F8000
000F8000
000F8000
000F8000
000F8000
000F8000
000F8000
000F8000
000F8000
000F8000
000F8000
000F8000
000F8000
000F8000
000F8000
000F8000
000F8000
000F8000
000F8000
000F8000
000F8000
000F8000
000F8000
000F8000
000F8000
000F8000
000F8000
000F8000
000F8000
000F8000
000F8000
000F8000
FFFFFFF0
FFFFFFF0
FFFFFFF0
FFFFFFF0
FFFFFFF0
00000000
00000000
00000000
00000000
001FC000
001F8000
003F8000
003F0000
003F0000
003F0000
003E0000
003E0000
003C0000
007C0000
007C0000
00780000
ENDCHAR
STARTCHAR 013D
ENCODING 317
SWIDTH 593 0
DWIDTH 38 0
BBX 26 47 8 0
BITMAP
001FC000
001F8000
F81F8000
F81F8000
F81F0000
F81F0000
F81F0000
F81F0000
F81E0000
F81E0000
F81E0000
F81E0000
F8000000
F8000000
F8000000
F8000000
F8000000
F8000000
F8000000
F8000000
F8000000
F8000000
F8000000
F8000000
F8000000
F8000000
F8000000
F8000000
F8000000
F8000000
F8000000
F8000000
F8000000
F8000000
F8000000
F8000000
F8000000
F8000000
F8000000
F8000000
F8000000
F8000000
FFFFFFC0
FFFFFFC0
FFFFFFC0
FFFFFFC0
FFFFFFC0
ENDCHAR
STARTCHAR 013E
ENCODING 318
SWIDTH 593 0
DWIDTH 38 0
BBX 29 47 5 0
BITMAP
FFFF81F8
FFFF81F8
FFFF81F8
FFFF81F0
FFFF81F0
000F83F0
000F83F0
000F83E0
000F83E0
000F83E0
000F83E0
000F83C0
000F8000
000F8000
000F8000
000F8000
000F8000
000F8000
000F8000
000F8000
000F8000
000F8000
000F8000
000F8000
000F8000
000F8000
000F8000
000F8000
000F8000
000F8000
000F8000
000F8000
000F8000
000F8000
000F8000
000F8000
000F8000
000F8000
000F8000
000F8000
000F8000
000F8000
FFFFFFF0
FFFFFFF0
FFFFFFF0
FFFFFFF0
FFFFFFF0
ENDCHAR
STARTCHAR 013F
ENCODING 319
SWIDTH 593 0
DWIDTH 38 0
BBX 26 45 8 0
BITMAP
F8000000
F8000000
F8000000
F8000000
F8000000
F8000000
F8000000
F8000000
F8000000
F8000000
F8000000
F8000000
F8000000
F8000000
F8000000
F8000000
F8000000
F8000000
F8000000
F8000000
F8007C00
F800FE00
F800FF00
F800FF00
F800FF00
F800FF00
F800FE00
F8007C00
F8000000
F8000000
F8000000
F8000000
F8000000
F8000000
F8000000
F8000000
F8000000
F8000000
F8000000
F8000000
FFFFFFC0
FFFFFFC0
FFFFFFC0
FFFFFFC0
FFFFFFC0
ENDCHAR
STARTCHAR 0140
ENCODING 320
SWIDTH 593 0
DWIDTH 38 0
BBX 32 47 5 0
BITMAP
FFFF8000
FFFF8000
FFFF8000
FFFF8000
FFFF8000
000F8000
000F8000
000F8000
000F8000
000F8000
000F8000
000F8000
000F8000
000F8000
000F8000
000F8000
000F8000
000F8000
000F8000
000F8000
000F8000
000F8000
000F8000
000F807C
000F80FE
000F80FF
000F80FF
000F80FF
000F80FF
000F80FE
000F807C
000F8000
000F8000
000F8000
000F8000
000F8000
000F8000
000F8000
000F8000
000F8000
000F8000
000F8000
FFFFFFF0
FFFFFFF0
FFFFFFF0
FFFFFFF0
FFFFFFF0
ENDCHAR
STARTCHAR 0141
ENCODING 321
SWIDTH 593 0
DWIDTH 38 0
BBX 31 45 3 0
BITMAP
07C00000
07C00000
07C00000
07C00000
07C00000
07C00000
07C00000
07C00000
07C00000
07C00000
07C00000
07C00000
07C00000
07C00000
07C00000
07C00000
07C00000
07C00300
07C01F00
07C1FF00
07CFFF00
07FFFF00
07FFFC00
7FFFE000
FFFE0000
FFF00000
FFC00000
FFC00000
87C00000
07C00000
07C00000
07C00000
07C00000
07C00000
07C00000
07C00000
07C00000
07C00000
07C00000
07C00000
07FFFFFE
07FFFFFE
07FFFFFE
07FFFFFE
07FFFFFE
ENDCHAR
STARTCHAR 0142
ENCODING 322
SWIDTH 593 0
DWIDTH 38 0
BBX 28 47 5 0
BITMAP
FFFF8000
FFFF8000
FFFF8000
FFFF8000
FFFF8000
000F8000
000F8000
000F8000
000F8000
000F8000
000F8000
000F8000
000F8000
000F8000
000F8000
000F8000
000F8000
000F8000
000F8000
000F8000
000F8060
000F87E0
000FBFE0
000FFFE0
003FFFE0
01FFFF80
0FFFF800
3FFFC000
3FFF8000
3FCF8000
3E0F8000
300F8000
000F8000
000F8000
000F8000
000F8000
000F8000
000F8000
000F8000
000F8000
000F8000
000F8000
FFFFFFF0
FFFFFFF0
FFFFFFF0
FFFFFFF0
FFFFFFF0
ENDCHAR
STARTCHAR 0143
ENCODING 323
SWIDTH 593 0
DWIDTH 38 0
BBX 28 60 5 0
BITMAP
0000E000
0000F800
0001F800
0001F000
0003F000
0003E000
0007C000
0007C000
000F8000
000F0000
001F0000
00020000
00000000
00000000
00000000
FF0001F0
FF0001F0
FF8001F0
FF8001F0
FFC001F0
FFC001F0
FFC001F0
FBE001F0
FBE001F0
FBF001F0
F9F001F0
F9F001F0
F8F801F0
F8F801F0
F8FC01F0
F87C01F0
F87C01F0
F83E01F0
F83E01F0
F83F01F0
F81F01F0
F81F01F0
F80F81F0
F80F81F0
F80FC1F0
F807C1F0
F807C1F0
F803E1F0
F803E1F0
F803F1F0
F801F1F0
F801F1F0
F800F9F0
F800F9F0
F800FDF0
F8007DF0
F8007DF0
F8003FF0
F8003FF0
F8003FF0
F8001FF0
F8001FF0
F8000FF0
F8000FF0
F8000FF0
ENDCHAR
STARTCHAR 0144
ENCODING 324
SWIDTH 593 0
DWIDTH 38 0
BBX 27 49 6 0
BITMAP
0001C000
0001F000
0003F800
0003F000
0007E000
0007C000
000FC000
000F8000
001F0000
001F0000
003E0000
00040000
00000000
00000000
00000000
000FE000
F83FF800
F8FFFE00
F9FFFF00
F9FFFF00
FBC07F80
FB001F80
FE000FC0
FC000FC0
FC0007C0
F80007C0
F80007C0
F80007E0
F80007E0
F80007E0
F80007E0
F80007E0
F80007E0
F80007E0
F80007E0
F80007E0
F80007E0
F80007E0
F80007E0
F80007E0
F80007E0
F80007E0
F80007E0
F80007E0
F80007E0
F80007E0
F80007E0
F80007E0
F80007E0
ENDCHAR
STARTCHAR 0145
ENCODING 325
SWIDTH 593 0
DWIDTH 38 0
BBX 28 61 5 -16
BITMAP
FF0001F0
FF0001F0
FF8001F0
FF8001F0
FFC001F0
FFC001F0
FFC001F0
FBE001F0
FBE001F0
FBF001F0
F9F001F0
F9F001F0
F8F801F0
F8F801F0
F8FC01F0
F87C01F0
F87C01F0
F83E01F0
F83E01F0
F83F01F0
F81F01F0
F81F01F0
F80F81F0
F80F81F0
F80FC1F0
F807C1F0
F807C1F0
F803E1F0
F803E1F0
F803F1F0
F801F1F0
F801F1F0
F800F9F0
F800F9F0
F800FDF0
F8007DF0
F8007DF0
F8003FF0
F8003FF0
F8003FF0
F8001FF0
F8001FF0
F8000FF0
F8000FF0
F8000FF0
00000000
00000000
00000000
00000000
001FC000
001F8000
003F8000
003F0000
003F0000
003F0000
003E0000
003E0000
003C0000
007C0000
007C0000
00780000
ENDCHAR
STARTCHAR 0146
ENCODING 326
SWIDTH 593 0
DWIDTH 38 0
BBX 27 50 6 -16
BITMAP
000FE000
F83FF800
F8FFFE00
F9FFFF00
F9FFFF00
FBC07F80
FB001F80
FE000FC0
FC000FC0
FC0007C0
F80007C0
F80007C0
F80007E0
F80007E0
F80007E0
F80007E0
F80007E0
F80007E0
F80007E0
F80007E0
F80007E0
F80007E0
F80007E0
F80007E0
F80007E0
F80007E0
F80007E0
F80007E0
F80007E0
F80007E0
F80007E0
F80007E0
F80007E0
F80007E0
00000000
00000000
00000000
00000000
003F8000
003F0000
003F0000
003F0000
007E0000
007E0000
007C0000
007C0000
007C0000
00780000
00F80000
00F00000
ENDCHAR
STARTCHAR 0147
ENCODING 327
SWIDTH 593 0
DWIDTH 38 0
BBX 28 60 5 0
BITMAP
02000400
07000F00
0F801F80
07C03E00
03E07E00
01F0FC00
01F9F800
00FFF000
007FE000
003FE000
001FC000
00000000
00000000
00000000
00000000
FF0001F0
FF0001F0
FF8001F0
FF8001F0
FFC001F0
FFC001F0
FFC001F0
FBE001F0
FBE001F0
FBF001F0
F9F001F0
F9F001F0
F8F801F0
F8F801F0
F8FC01F0
F87C01F0
F87C01F0
F83E01F0
F83E01F0
F83F01F0
F81F01F0
F81F01F0
F80F81F0
F80F81F0
F80FC1F0
F807C1F0
F807C1F0
F803E1F0
F803E1F0
F803F1F0
F801F1F0
F801F1F0
F800F9F0
F800F9F0
F800FDF0
F8007DF0
F8007DF0
F8003FF0
F8003FF0
F8003FF0
F8001FF0
F8001FF0
F8000FF0
F8000FF0
F8000FF0
ENDCHAR
STARTCHAR 0148
ENCODING 328
SWIDTH 593 0
DWIDTH 38 0
BBX 27 49 6 0
BITMAP
06000C00
0F001E00
1F803F00
0FC07C00
07E0FC00
03F1F800
01FBF000
01FFE000
00FFE000
007FC000
003F8000
00000000
00000000
00000000
00000000
000FE000
F83FF800
F8FFFE00
F9FFFF00
F9FFFF00
FBC07F80
FB001F80
FE000FC0
FC000FC0
FC0007C0
F80007C0
F80007C0
F80007E0
F80007E0
F80007E0
F80007E0
F80007E0
F80007E0
F80007E0
F80007E0
F80007E0
F80007E0
F80007E0
F80007E0
F80007E0
F80007E0
F80007E0
F80007E0
F80007E0
F80007E0
F80007E0
F80007E0
F80007E0
F80007E0
ENDCHAR
STARTCHAR 0149
ENCODING 329
SWIDTH 593 0
DWIDTH 38 0
BBX 33 47 0 0
BITMAP
7E00000000
7C00000000
7C00000000
7C00000000
F800000000
F800000000
F800000000
F800000000
F000000000
F000000000
F000000000
F000000000
0000000000
00003F8000
03E0FFE000
03E3FFF800
03E7FFFC00
03E7FFFC00
03EF01FE00
03EC007E00
03F8003F00
03F0003F00
03F0001F00
03E0001F00
03E0001F00
03E0001F80
03E0001F80
03E0001F80
03E0001F80
03E0001F80
03E0001F80
03E0001F80
03E0001F80
03E0001F80
03E0001F80
03E0001F80
03E0001F80
03E0001F80
03E0001F80
03E0001F80
03E0001F80
03E0001F80
03E0001F80
03E0001F80
03E0001F80
03E0001F80
03E0001F80
ENDCHAR
STARTCHAR 014A
ENCODING 330
SWIDTH 593 0
DWIDTH 38 0
BBX 28 58 5 -13
BITMAP
FF0001F0
FF0001F0
FF8001F0
FF8001F0
FFC001F0
FFC001F0
FFC001F0
FBE001F0
FBE001F0
FBF001F0
F9F001F0
F9F001F0
F8F801F0
F8F801F0
F8FC01F0
F87C01F0
F87C01F0
F83E01F0
F83E01F0
F83F01F0
F81F01F0
F81F01F0
F80F81F0
F80F81F0
F80FC1F0
F807C1F0
F807C1F0
F803E1F0
F803E1F0
F803F1F0
F801F1F0
F801F1F0
F800F9F0
F800F9F0
F800FDF0
F8007DF0
F8007DF0
F8003FF0
F8003FF0
F8003FF0
F8001FF0
F8001FF0
F8000FF0
F8000FF0
F8000FF0
000001F0
000001F0
000001F0
000001F0
000001F0
000001F0
000001F0
000001F0
07FFFFF0
07FFFFE0
07FFFFE0
07FFFFC0
07FFFF00
ENDCHAR
STARTCHAR 014B
ENCODING 331
SWIDTH 593 0
DWIDTH 38 0
BBX 27 47 6 -13
BITMAP
000FE000
F83FF800
F8FFFE00
F9FFFF00
F9FFFF00
FBC07F80
FB001F80
FE000FC0
FC000FC0
FC0007C0
F80007C0
F80007C0
F80007E0
F80007E0
F80007E0
F80007E0
F80007E0
F80007E0
F80007E0
F80007E0
F80007E0
F80007E0
F80007E0
F80007E0
F80007E0
F80007E0
F80007E0
F80007E0
F80007E0
F80007E0
F80007E0
F80007E0
F80007E0
F80007E0
000007E0
000007E0
000007E0
000007E0
000007E0
000007E0
000007C0
000007C0
07FFFFC0
07FFFFC0
07FFFF80
07FFFF00
07FFFC00
ENDCHAR
STARTCHAR 014C
ENCODING 332
SWIDTH 593 0
DWIDTH 38 0
BBX 31 57 4 -1
BITMAP
03FFFF00
03FFFF00
03FFFF00
03FFFF00
00000000
00000000
00000000
00000000
00000000
00000000
00000000
001FE000
00FFFC00
01FFFF00
07FFFF80
0FFFFFC0
0FF03FE0
1FC00FE0
3F8003F0
3F0003F0
3E0001F8
7E0000F8
7C0000F8
7C0000FC
FC00007C
FC00007C
F800007C
F800007C
F800007E
F800007E
F800007E
F800007E
F800007E
F800007E
F800007E
F800007E
F800007E
F800007E
F800007E
F800007E
F800007C
F800007C
FC00007C
FC00007C
7C0000FC
7C0000F8
7E0000F8
3E0001F8
3F0003F0
3F8003F0
1FC00FE0
0FF03FE0
0FFFFFC0
07FFFF80
01FFFF00
00FFFC00
001FF000
ENDCHAR
STARTCHAR 014D
ENCODING 333
SWIDTH 593 0
DWIDTH 38 0
BBX 30 46 4 -1
BITMAP
03FFFF00
03FFFF00
03FFFF00
03FFFF00
00000000
00000000
00000000
00000000
00000000
00000000
00000000
001FE000
00FFFC00
01FFFF00
07FFFF80
0FFFFFC0
0FF01FE0
1FC007E0
3F0003F0
3E0001F0
7E0000F8
7C0000F8
7C0000F8
7C00007C
FC00007C
FC00007C
FC00007C
FC00007C
FC00007C
FC00007C
FC00007C
FC00007C
FC00007C
7C00007C
7C0000F8
7C0000F8
7E0000F8
3E0001F0
3F0003F0
1FC007E0
0FF01FE0
0FFFFFC0
07FFFF80
01FFFF00
00FFFC00
001FE000
ENDCHAR
STARTCHAR 014E
ENCODING 334
SWIDTH 593 0
DWIDTH 38 0
BBX 31 61 4 -1
BITMAP
01000200
078007C0
07C00780
03C00F80
03E01F00
03F01F00
01F87E00
00FFFE00
007FFC00
003FF000
000FC000
00000000
00000000
00000000
00000000
001FE000
00FFFC00
01FFFF00
07FFFF80
0FFFFFC0
0FF03FE0
1FC00FE0
3F8003F0
3F0003F0
3E0001F8
7E0000F8
7C0000F8
7C0000FC
FC00007C
FC00007C
F800007C
F800007C
F800007E
F800007E
F800007E
F800007E
F800007E
F800007E
F800007E
F800007E
F800007E
F800007E
F800007E
F800007E
F800007C
F800007C
FC00007C
FC00007C
7C0000FC
7C0000F8
7E0000F8
3E0001F8
3F0003F0
3F8003F0
1FC00FE0
0FF03FE0
0FFFFFC0
07FFFF80
01FFFF00
00FFFC00
001FF000
ENDCHAR
STARTCHAR 014F
ENCODING 335
SWIDTH 593 0
DWIDTH 38 0
BBX 30 50 4 -1
BITMAP
01000200
078007C0
07C00780
03C00F80
03E01F00
03F01F00
01F87E00
00FFFE00
007FFC00
003FF000
000FC000
00000000
00000000
00000000
00000000
001FE000
00FFFC00
01FFFF00
07FFFF80
0FFFFFC0
0FF01FE0
1FC007E0
3F0003F0
3E0001F0
7E0000F8
7C0000F8
7C0000F8
7C00007C
FC00007C
FC00007C
FC00007C
FC00007C
FC00007C
FC00007C
FC00007C
FC00007C
FC00007C
7C00007C
7C0000F8
7C0000F8
7E0000F8
3E0001F0
3F0003F0
1FC007E0
0FF01FE0
0FFFFFC0
07FFFF80
01FFFF00
00FFFC00
001FE000
ENDCHAR
STARTCHAR 0150
ENCODING 336
SWIDTH 593 0
DWIDTH 38 0
BBX 31 61 4 -1
BITMAP
000E0180
000F83E0
001F83F0
001F07C0
003F07C0
003E0F80
007C0F00
007C1F00
00F81E00
00F03C00
01F03C00
00600800
00000000
00000000
00000000
001FE000
00FFFC00
01FFFF00
07FFFF80
0FFFFFC0
0FF03FE0
1FC00FE0
3F8003F0
3F0003F0
3E0001F8
7E0000F8
7C0000F8
7C0000FC
FC00007C
FC00007C
F800007C
F800007C
F800007E
F800007E
F800007E
F800007E
F800007E
F800007E
F800007E
F800007E
F800007E
F800007E
F800007E
F800007E
F800007C
F800007C
FC00007C
FC00007C
7C0000FC
7C0000F8
7E0000F8
3E0001F8
3F0003F0
3F8003F0
1FC00FE0
0FF03FE0
0FFFFFC0
07FFFF80
01FFFF00
00FFFC00
001FF000
ENDCHAR
STARTCHAR 0151
ENCODING 337
SWIDTH 593 0
DWIDTH 38 0
BBX 30 51 4 -1
BITMAP
000E0180
000F83E0
001F83F0
001F07C0
003F07C0
003E0F80
007C0F00
007C1F00
00F81E00
00F03C00
01F03C00
00600800
00000000
00000000
00000000
00000000
001FE000
00FFFC00
01FFFF00
07FFFF80
0FFFFFC0
0FF01FE0
1FC007E0
3F0003F0
3E0001F0
7E0000F8
7C0000F8
7C0000F8
7C00007C
FC00007C
FC00007C
FC00007C
FC00007C
FC00007C
FC00007C
FC00007C
FC00007C
FC00007C
7C00007C
7C0000F8
7C0000F8
7E0000F8
3E0001F0
3F0003F0
1FC007E0
0FF01FE0
0FFFFFC0
07FFFF80
01FFFF00
00FFFC00
001FE000
ENDCHAR
STARTCHAR 0152
ENCODING 338
SWIDTH 593 0
DWIDTH 38 0
BBX 34 45 2 0
BITMAP
000FFFFFC0
007FFFFFC0
01FFFFFFC0
03FFFFFFC0
07FFFFFFC0
0FF83E0000
0FE03E0000
1FC03E0000
1F803E0000
3F003E0000
3E003E0000
3E003E0000
7E003E0000
7C003E0000
7C003E0000
7C003E0000
7C003E0000
7C003E0000
FC003E0000
FC003E0000
FC003FFF80
FC003FFF80
FC003FFF80
FC003FFF80
FC003FFF80
FC003E0000
FC003E0000
7C003E0000
7C003E0000
7C003E0000
7C003E0000
7C003E0000
7E003E0000
3E003E0000
3E003E0000
3F003E0000
1F803E0000
1FC03E0000
0FE03E0000
0FF83E0000
07FFFFFFC0
03FFFFFFC0
01FFFFFFC0
007FFFFFC0
000FFFFFC0
ENDCHAR
STARTCHAR 0153
ENCODING 339
SWIDTH 593 0
DWIDTH 38 0
BBX 36 35 1 -1
BITMAP
01F800FC00
07FE03FF00
0FFF0FFF80
1FFF8FFFC0
1F0F9F07C0
3E03FC03E0
3C03FC01E0
7C01F801E0
7801F800F0
7801F800F0
F801F000F0
F800F000F0
F800F000F0
F800F000F0
F800F000F0
F800FFFFF0
F800FFFFF0
F800FFFFF0
F800FFFFF0
F800F00000
F800F00000
F800F00000
F800F00000
F800F80000
F801F80000
7801F80100
7801F800E0
7C01FC01F0
3C03FC01E0
3E03FE03E0
3F0F9F07C0
1FFF9FFF80
0FFF0FFF80
07FE07FE00
01F801F800
ENDCHAR
STARTCHAR 0154
ENCODING 340
SWIDTH 593 0
DWIDTH 38 0
BBX 29 60 6 0
BITMAP
0000C000
0001F000
0001F800
0003F000
0003E000
0007E000
0007C000
000F8000
000F8000
001F0000
001E0000
00060000
00000000
00000000
00000000
FFFFF000
FFFFFE00
FFFFFF00
FFFFFFC0
FFFFFFC0
F8001FE0
F80007F0
F80003F0
F80003F0
F80001F0
F80001F8
F80001F8
F80001F8
F80001F8
F80001F8
F80001F8
F80001F0
F80003F0
F80003F0
F80007E0
F8001FE0
FFFFFFC0
FFFFFF80
FFFFFF00
FFFFFE00
FFFFE000
F807C000
F807E000
F803E000
F803F000
F801F800
F801F800
F800FC00
F8007C00
F8007E00
F8003F00
F8003F00
F8001F80
F8001F80
F8000FC0
F80007C0
F80007E0
F80003F0
F80003F0
F80001F8
ENDCHAR
STARTCHAR 0155
ENCODING 341
SWIDTH 593 0
DWIDTH 38 0
BBX 31 49 5 0
BITMAP
00000C00
00001F00
00001F80
00003F00
00003E00
00007C00
00007C00
0000F800
0000F000
0001F000
0001E000
00004000
00000000
00000000
00000000
00000000
FFFE01FE
FFFE0FFE
FFFE1FFE
FFFE3FFE
FFFE7FFE
003EF800
003EE000
003F8000
003F0000
003F0000
003E0000
003E0000
003E0000
003E0000
003E0000
003E0000
003E0000
003E0000
003E0000
003E0000
003E0000
003E0000
003E0000
003E0000
003E0000
003E0000
003E0000
003E0000
FFFFFFF0
FFFFFFF0
FFFFFFF0
FFFFFFF0
FFFFFFF0
ENDCHAR
STARTCHAR 0156
ENCODING 342
SWIDTH 593 0
DWIDTH 38 0
BBX 29 61 6 -16
BITMAP
FFFFF000
FFFFFE00
FFFFFF00
FFFFFFC0
FFFFFFC0
F8001FE0
F80007F0
F80003F0
F80003F0
F80001F0
F80001F8
F80001F8
F80001F8
F80001F8
F80001F8
F80001F8
F80001F0
F80003F0
F80003F0
F80007E0
F8001FE0
FFFFFFC0
FFFFFF80
FFFFFF00
FFFFFE00
FFFFE000
F807C000
F807E000
F803E000
F803F000
F801F800
F801F800
F800FC00
F8007C00
F8007E00
F8003F00
F8003F00
F8001F80
F8001F80
F8000FC0
F80007C0
F80007E0
F80003F0
F80003F0
F80001F8
00000000
00000000
00000000
00000000
003F8000
003F8000
003F0000
003F0000
003F0000
003E0000
007E0000
007C0000
007C0000
007C0000
00780000
00780000
ENDCHAR
STARTCHAR 0157
ENCODING 343
SWIDTH 593 0
DWIDTH 38 0
BBX 31 49 5 -16
BITMAP
FFFE01FE
FFFE0FFE
FFFE1FFE
FFFE3FFE
FFFE7FFE
003EF800
003EE000
003F8000
003F0000
003F0000
003E0000
003E0000
003E0000
003E0000
003E0000
003E0000
003E0000
003E0000
003E0000
003E0000
003E0000
003E0000
003E0000
003E0000
003E0000
003E0000
003E0000
003E0000
FFFFFFF0
FFFFFFF0
FFFFFFF0
FFFFFFF0
FFFFFFF0
00000000
00000000
00000000
00000000
007F0000
007E0000
00FE0000
00FC0000
00FC0000
00FC0000
00F80000
00F80000
00F00000
01F00000
01F00000
01E00000
ENDCHAR
STARTCHAR 0158
ENCODING 344
SWIDTH 593 0
DWIDTH 38 0
BBX 29 60 6 0
BITMAP
02000400
0F000E00
1F801F00
07C03E00
07E07C00
03F0F800
01F9F000
00FFF000
007FE000
007FC000
003F8000
00000000
00000000
00000000
00000000
FFFFF000
FFFFFE00
FFFFFF00
FFFFFFC0
FFFFFFC0
F8001FE0
F80007F0
F80003F0
F80003F0
F80001F0
F80001F8
F80001F8
F80001F8
F80001F8
F80001F8
F80001F8
F80001F0
F80003F0
F80003F0
F80007E0
F8001FE0
FFFFFFC0
FFFFFF80
FFFFFF00
FFFFFE00
FFFFE000
F807C000
F807E000
F803E000
F803F000
F801F800
F801F800
F800FC00
F8007C00
F8007E00
F8003F00
F8003F00
F8001F80
F8001F80
F8000FC0
F80007C0
F80007E0
F80003F0
F80003F0
F80001F8
ENDCHAR
STARTCHAR 0159
ENCODING 345
SWIDTH 593 0
DWIDTH 38 0
BBX 31 49 5 0
BITMAP
00600040
00F000E0
01F801F0
00FC03E0
007E07C0
003F0F80
001F9F00
000FFF00
000FFE00
0007FC00
0003F800
00000000
00000000
00000000
00000000
00000000
FFFE01FE
FFFE0FFE
FFFE1FFE
FFFE3FFE
FFFE7FFE
003EF800
003EE000
003F8000
003F0000
003F0000
003E0000
003E0000
003E0000
003E0000
003E0000
003E0000
003E0000
003E0000
003E0000
003E0000
003E0000
003E0000
003E0000
003E0000
003E0000
003E0000
003E0000
003E0000
FFFFFFF0
FFFFFFF0
FFFFFFF0
FFFFFFF0
FFFFFFF0
ENDCHAR
STARTCHAR 015A
ENCODING 346
SWIDTH 593 0
DWIDTH 38 0
BBX 32 61 3 -1
BITMAP
00003800
00003E00
00007E00
00007C00
0000FC00
0000F800
0001F000
0001F000
0003E000
0003C000
0007C000
00018000
00000000
00000000
00000000
001FF800
00FFFF00
03FFFFC0
07FFFFF0
0FFFFFF8
1FF00FFC
1FC001FE
3F8000FE
3F00003C
3E000018
3E000010
7E000000
7E000000
7E000000
3E000000
3F000000
3F000000
3F800000
1FE00000
1FFE0000
0FFFF000
07FFFF00
01FFFFC0
007FFFF0
000FFFF8
00003FFC
000003FC
000000FE
0000007E
0000003E
0000003F
0000003F
0000003F
0000003F
0000003F
1800003E
7C00007E
FE00007E
FF0000FE
7FC001FC
3FF00FF8
1FFFFFF8
07FFFFF0
03FFFFC0
00FFFF00
001FF800
ENDCHAR
STARTCHAR 015B
ENCODING 347
SWIDTH 593 0
DWIDTH 38 0
BBX 30 50 4 -1
BITMAP
00007000
00007C00
0000FC00
0000F800
0001F800
0001F000
0003E000
0003E000
0007C000
00078000
000F8000
00030000
00000000
00000000
00000000
001FF000
00FFFE00
03FFFF80
07FFFFE0
0FFFFFF0
1FE00FF8
1F8003F0
3F0000E0
3E000040
3E000000
3E000000
3F000000
3F000000
1FC00000
1FFE0000
0FFFF800
07FFFF00
03FFFFC0
00FFFFE0
0007FFF0
00000FF8
000001F8
000000F8
000000F8
000000FC
100000F8
380000F8
7E0000F8
FF0003F8
7FE00FF0
3FFFFFF0
0FFFFFE0
07FFFF80
01FFFF00
003FF000
ENDCHAR
STARTCHAR 015C
ENCODING 348
SWIDTH 593 0
DWIDTH 38 0
BBX 32 61 3 -1
BITMAP
0007F000
000FF800
001FF800
003FFC00
007E7E00
007C3F00
00F81F00
01F00F80
03E007C0
03C003C0
00800100
00000000
00000000
00000000
00000000
001FF800
00FFFF00
03FFFFC0
07FFFFF0
0FFFFFF8
1FF00FFC
1FC001FE
3F8000FE
3F00003C
3E000018
3E000010
7E000000
7E000000
7E000000
3E000000
3F000000
3F000000
3F800000
1FE00000
1FFE0000
0FFFF000
07FFFF00
01FFFFC0
007FFFF0
000FFFF8
00003FFC
000003FC
000000FE
0000007E
0000003E
0000003F
0000003F
0000003F
0000003F
0000003F
1800003E
7C00007E
FE00007E
FF0000FE
7FC001FC
3FF00FF8
1FFFFFF8
07FFFFF0
03FFFFC0
00FFFF00
001FF800
ENDCHAR
STARTCHAR 015D
ENCODING 349
SWIDTH 593 0
DWIDTH 38 0
BBX 30 50 4 -1
BITMAP
000FE000
001FF000
003FF000
007FF800
00FCFC00
00F87E00
01F03E00
03E01F00
07C00F80
07800780
01000200
00000000
00000000
00000000
00000000
001FF000
00FFFE00
03FFFF80
07FFFFE0
0FFFFFF0
1FE00FF8
1F8003F0
3F0000E0
3E000040
3E000000
3E000000
3F000000
3F000000
1FC00000
1FFE0000
0FFFF800
07FFFF00
03FFFFC0
00FFFFE0
0007FFF0
00000FF8
000001F8
000000F8
000000F8
000000FC
100000F8
380000F8
7E0000F8
FF0003F8
7FE00FF0
3FFFFFF0
0FFFFFE0
07FFFF80
01FFFF00
003FF000
ENDCHAR
STARTCHAR 015E
ENCODING 350
SWIDTH 593 0
DWIDTH 38 0
BBX 32 58 3 -13
BITMAP
001FF800
00FFFF00
03FFFFC0
07FFFFF0
0FFFFFF8
1FF00FFC
1FC001FE
3F8000FE
3F00003C
3E000018
3E000010
7E000000
7E000000
7E000000
3E000000
3F000000
3F000000
3F800000
1FE00000
1FFE0000
0FFFF000
07FFFF00
01FFFFC0
007FFFF0
000FFFF8
00003FFC
000003FC
000000FE
0000007E
0000003E
0000003F
0000003F
0000003F
0000003F
0000003F
1800003E
7C00007E
FE00007E
FF0000FE
7FC001FC
3FF00FF8
1FFFFFF8
0FFFFFF0
03FFFFC0
00FFFF80
001FF800
00038000
00038000
00038000
0003FC00
00047E00
00001F00
00000F00
00081F00
000E1F00
001FFE00
003FFC00
0007F000
ENDCHAR
STARTCHAR 015F
ENCODING 351
SWIDTH 593 0
DWIDTH 38 0
BBX 30 47 4 -13
BITMAP
001FF000
00FFFE00
03FFFF80
07FFFFE0
0FFFFFF0
1FE00FF8
1F8003F0
3F0000E0
3E000040
3E000000
3E000000
3F000000
3F000000
1FC00000
1FFE0000
0FFFF800
07FFFF00
03FFFFC0
00FFFFE0
0007FFF0
00000FF8
000001F8
000000F8
000000F8
000000FC
100000F8
380000F8
7E0000F8
FF0003F8
7FE00FF0
3FFFFFF0
0FFFFFE0
07FFFF80
01FFFF00
001FF000
00070000
00070000
00070000
0007F800
0000FC00
00003E00
00001E00
00101E00
001C3E00
003FFC00
007FF800
000FE000
ENDCHAR
STARTCHAR 0160
ENCODING 352
SWIDTH 593 0
DWIDTH 38 0
BBX 32 61 3 -1
BITMAP
00800100
03C003C0
03E007C0
01F00F80
00F81F00
007C3F00
007E7E00
003FFC00
001FF800
000FF800
0007F000
00000000
00000000
00000000
00000000
001FF800
00FFFF00
03FFFFC0
07FFFFF0
0FFFFFF8
1FF00FFC
1FC001FE
3F8000FE
3F00003C
3E000018
3E000010
7E000000
7E000000
7E000000
3E000000
3F000000
3F000000
3F800000
1FE00000
1FFE0000
0FFFF000
07FFFF00
01FFFFC0
007FFFF0
000FFFF8
00003FFC
000003FC
000000FE
0000007E
0000003E
0000003F
0000003F
0000003F
0000003F
0000003F
1800003E
7C00007E
FE00007E
FF0000FE
7FC001FC
3FF00FF8
1FFFFFF8
07FFFFF0
03FFFFC0
00FFFF00
001FF800
ENDCHAR
STARTCHAR 0161
ENCODING 353
SWIDTH 593 0
DWIDTH 38 0
BBX 30 50 4 -1
BITMAP
01000200
03800780
07C00F80
03E01F00
01F03E00
00F87E00
00FCFC00
007FF800
003FF000
001FF000
000FE000
00000000
00000000
00000000
00000000
001FF000
00FFFE00
03FFFF80
07FFFFE0
0FFFFFF0
1FE00FF8
1F8003F0
3F0000E0
3E000040
3E000000
3E000000
3F000000
3F000000
1FC00000
1FFE0000
0FFFF800
07FFFF00
03FFFFC0
00FFFFE0
0007FFF0
00000FF8
000001F8
000000F8
000000F8
000000FC
100000F8
380000F8
7E0000F8
FF0003F8
7FE00FF0
3FFFFFF0
0FFFFFE0
07FFFF80
01FFFF00
003FF000
ENDCHAR
STARTCHAR 0162
ENCODING 354
SWIDTH 593 0
DWIDTH 38 0
BBX 35 58 2 -13
BITMAP
FFFFFFFFE0
FFFFFFFFE0
FFFFFFFFE0
FFFFFFFFE0
FFFFFFFFE0
0001F00000
0001F00000
0001F00000
0001F00000
0001F00000
0001F00000
0001F00000
0001F00000
0001F00000
0001F00000
0001F00000
0001F00000
0001F00000
0001F00000
0001F00000
0001F00000
0001F00000
0001F00000
0001F00000
0001F00000
0001F00000
0001F00000
0001F00000
0001F00000
0001F00000
0001F00000
0001F00000
0001F00000
0001F00000
0001F00000
0001F00000
0001F00000
0001F00000
0001F00000
0001F00000
0001F00000
0001F00000
0001F00000
0001F00000
0001F00000
0001E00000
0001E00000
0001C00000
0001C00000
0001FE0000
00001F0000
00000F8000
0000078000
0004078000
00070F8000
000FFF0000
0007FE0000
0003F80000
ENDCHAR
STARTCHAR 0163
ENCODING 355
SWIDTH 593 0
DWIDTH 38 0
BBX 32 58 2 -13
BITMAP
000F8000
000F8000
000F8000
000F8000
000F8000
000F8000
000F8000
000F8000
000F8000
000F8000
001F8000
001F8000
FFFFFFFF
FFFFFFFF
FFFFFFFF
FFFFFFFF
FFFFFFFF
001F8000
001F8000
001F8000
001F8000
001F8000
001F8000
001F8000
001F8000
001F8000
001F8000
001F8000
001F8000
001F8000
001F8000
001F8000
001F8000
001F8000
001F8000
001F8000
001F8000
001F8000
000F8000
000F8000
000FFFFF
000FFFFF
0007FFFF
0003FFFF
0000FFFF
00000F00
00000E00
00000E00
00000E00
00001FF0
000001F8
0000007C
0000007C
0000207C
0000387C
00007FF8
0000FFF0
00001FC0
ENDCHAR
STARTCHAR 0164
ENCODING 356
SWIDTH 593 0
DWIDTH 38 0
BBX 35 60 2 0
BITMAP
0040008000
00E001E000
01F003F000
00F807C000
007C0FC000
003E1F8000
003F3F0000
001FFE0000
000FFC0000
0007FC0000
0003F80000
0000000000
0000000000
0000000000
0000000000
FFFFFFFFE0
FFFFFFFFE0
FFFFFFFFE0
FFFFFFFFE0
FFFFFFFFE0
0001F00000
0001F00000
0001F00000
0001F00000
0001F00000
0001F00000
0001F00000
0001F00000
0001F00000
0001F00000
0001F00000
0001F00000
0001F00000
0001F00000
0001F00000
0001F00000
0001F00000
0001F00000
0001F00000
0001F00000
0001F00000
0001F00000
0001F00000
0001F00000
0001F00000
0001F00000
0001F00000
0001F00000
0001F00000
0001F00000
0001F00000
0001F00000
0001F00000
0001F00000
0001F00000
0001F00000
0001F00000
0001F00000
0001F00000
0001F00000
ENDCHAR
STARTCHAR 0165
ENCODING 357
SWIDTH 593 0
DWIDTH 38 0
BBX 32 48 2 0
BITMAP
000001FC
000001F8
000001F8
000F81F8
000F81F8
000F81F0
000F81F0
000F81F0
000F81F0
000F81E0
000F81E0
000F81E0
000F8000
001F8000
001F8000
FFFFFFFF
FFFFFFFF
FFFFFFFF
FFFFFFFF
FFFFFFFF
001F8000
001F8000
001F8000
001F8000
001F8000
001F8000
001F8000
001F8000
001F8000
001F8000
001F8000
001F8000
001F8000
001F8000
001F8000
001F8000
001F8000
001F8000
001F8000
001F8000
001F8000
000F8000
000F8000
000FFFFF
000FFFFF
0007FFFF
0003FFFF
0000FFFF
ENDCHAR
STARTCHAR 0166
ENCODING 358
SWIDTH 593 0
DWIDTH 38 0
BBX 35 45 2 0
BITMAP
FFFFFFFFE0
FFFFFFFFE0
FFFFFFFFE0
FFFFFFFFE0
FFFFFFFFE0
0001F00000
0001F00000
0001F00000
0001F00000
0001F00000
0001F00000
0001F00000
0001F00000
0001F00000
0001F00000
0001F00000
0001F00000
0001F00000
1FFFFFFE00
1FFFFFFE00
1FFFFFFE00
1FFFFFFE00
1FFFFFFE00
0001F00000
0001F00000
0001F00000
0001F00000
0001F00000
0001F00000
0001F00000
0001F00000
0001F00000
0001F00000
0001F00000
0001F00000
0001F00000
0001F00000
0001F00000
0001F00000
0001F00000
0001F00000
0001F00000
0001F00000
0001F00000
0001F00000
ENDCHAR
STARTCHAR 0167
ENCODING 359
SWIDTH 593 0
DWIDTH 38 0
BBX 32 45 2 0
BITMAP
000F8000
000F8000
000F8000
000F8000
000F8000
000F8000
000F8000
000F8000
000F8000
000F8000
001F8000
001F8000
FFFFFFFF
FFFFFFFF
FFFFFFFF
FFFFFFFF
FFFFFFFF
001F8000
001F8000
001F8000
001F8000
001F8000
001F8000
001F8000
07FFFFF0
07FFFFF0
07FFFFF0
07FFFFF0
07FFFFF0
001F8000
001F8000
001F8000
001F8000
001F8000
001F8000
001F8000
001F8000
001F8000
000F8000
000F8000
000FFFFF
000FFFFF
0007FFFF
0003FFFF
0000FFFF
ENDCHAR
STARTCHAR 0168
ENCODING 360
SWIDTH 593 0
DWIDTH 38 0
BBX 28 58 5 -1
BITMAP
01F00000
07FE0200
0FFF8700
1FFFFF80
0E0FFF00
0403FE00
0000FC00
00000000
00000000
00000000
00000000
00000000
FC0001F0
FC0001F0
FC0001F0
FC0001F0
FC0001F0
FC0001F0
FC0001F0
FC0001F0
FC0001F0
FC0001F0
FC0001F0
FC0001F0
FC0001F0
FC0001F0
FC0001F0
FC0001F0
FC0001F0
FC0001F0
FC0001F0
FC0001F0
FC0001F0
FC0001F0
FC0001F0
FC0001F0
FC0001F0
FC0001F0
FC0001F0
FC0001F0
FC0001F0
FC0001F0
FC0001F0
FC0001F0
FC0001F0
FC0001F0
7C0003F0
7C0003F0
7C0003E0
7E0003E0
7E0007E0
3F000FE0
3FC03FC0
1FFFFF80
0FFFFF80
07FFFF00
03FFFC00
007FE000
ENDCHAR
STARTCHAR 0169
ENCODING 361
SWIDTH 593 0
DWIDTH 38 0
BBX 26 47 6 -1
BITMAP
03E00000
0FF80400
1FFF0E00
3FFFFF00
1C3FFE00
0807FC00
0001F000
00000000
00000000
00000000
00000000
00000000
00000000
F80007C0
F80007C0
F80007C0
F80007C0
F80007C0
F80007C0
F80007C0
F80007C0
F80007C0
F80007C0
F80007C0
F80007C0
F80007C0
F80007C0
F80007C0
F80007C0
F80007C0
F80007C0
F80007C0
F80007C0
F80007C0
F80007C0
F80007C0
F80007C0
FC0007C0
FC000FC0
7E000FC0
7F003FC0
7FC0F7C0
3FFFF7C0
1FFFE7C0
0FFFC7C0
07FF87C0
00FE0000
ENDCHAR
STARTCHAR 016A
ENCODING 362
SWIDTH 593 0
DWIDTH 38 0
BBX 28 57 5 -1
BITMAP
07FFFE00
07FFFE00
07FFFE00
07FFFE00
00000000
00000000
00000000
00000000
00000000
00000000
00000000
FC0001F0
FC0001F0
FC0001F0
FC0001F0
FC0001F0
FC0001F0
FC0001F0
FC0001F0
FC0001F0
FC0001F0
FC0001F0
FC0001F0
FC0001F0
FC0001F0
FC0001F0
FC0001F0
FC0001F0
FC0001F0
FC0001F0
FC0001F0
FC0001F0
FC0001F0
FC0001F0
FC0001F0
FC0001F0
FC0001F0
FC0001F0
FC0001F0
FC0001F0
FC0001F0
FC0001F0
FC0001F0
FC0001F0
FC0001F0
7C0003F0
7C0003F0
7C0003E0
7E0003E0
7E0007E0
3F000FE0
3FC03FC0
1FFFFF80
0FFFFF80
07FFFF00
03FFFC00
007FE000
ENDCHAR
STARTCHAR 016B
ENCODING 363
SWIDTH 593 0
DWIDTH 38 0
BBX 26 46 6 -1
BITMAP
0FFFFC00
0FFFFC00
0FFFFC00
0FFFFC00
00000000
00000000
00000000
00000000
00000000
00000000
00000000
00000000
F80007C0
F80007C0
F80007C0
F80007C0
F80007C0
F80007C0
F80007C0
F80007C0
F80007C0
F80007C0
F80007C0
F80007C0
F80007C0
F80007C0
F80007C0
F80007C0
F80007C0
F80007C0
F80007C0
F80007C0
F80007C0
F80007C0
F80007C0
F80007C0
FC0007C0
FC000FC0
7E000FC0
7F003FC0
7FC0F7C0
3FFFF7C0
1FFFE7C0
0FFFC7C0
07FF87C0
00FE0000
ENDCHAR
STARTCHAR 016C
ENCODING 364
SWIDTH 593 0
DWIDTH 38 0
BBX 28 61 5 -1
BITMAP
02000400
0F000F80
0F800F00
07801F00
07C03E00
07E03E00
03F0FC00
01FFFC00
00FFF800
007FE000
001F8000
00000000
00000000
00000000
00000000
FC0001F0
FC0001F0
FC0001F0
FC0001F0
FC0001F0
FC0001F0
FC0001F0
FC0001F0
FC0001F0
FC0001F0
FC0001F0
FC0001F0
FC0001F0
FC0001F0
FC0001F0
FC0001F0
FC0001F0
FC0001F0
FC0001F0
FC0001F0
FC0001F0
FC0001F0
FC0001F0
FC0001F0
FC0001F0
FC0001F0
FC0001F0
FC0001F0
FC0001F0
FC0001F0
FC0001F0
FC0001F0
FC0001F0
FC0001F0
7C0003F0
7C0003F0
7C0003E0
7E0003E0
7E0007E0
3F000FE0
3FC03FC0
1FFFFF80
0FFFFF80
07FFFF00
03FFFC00
007FE000
ENDCHAR
STARTCHAR 016D
ENCODING 365
SWIDTH 593 0
DWIDTH 38 0
BBX 26 50 6 -1
BITMAP
04000800
1E001E00
1F001E00
1F003E00
0F807C00
0FC07C00
07E1F800
03FFF800
03FFF000
00FFC000
003F0000
00000000
00000000
00000000
00000000
00000000
F80007C0
F80007C0
F80007C0
F80007C0
F80007C0
F80007C0
F80007C0
F80007C0
F80007C0
F80007C0
F80007C0
F80007C0
F80007C0
F80007C0
F80007C0
F80007C0
F80007C0
F80007C0
F80007C0
F80007C0
F80007C0
F80007C0
F80007C0
F80007C0
FC0007C0
FC000FC0
7E000FC0
7F003FC0
7FC0F7C0
3FFFF7C0
1FFFE7C0
0FFFC7C0
07FF87C0
00FE0000
ENDCHAR
STARTCHAR 016E
ENCODING 366
SWIDTH 593 0
DWIDTH 38 0
BBX 28 64 5 -1
BITMAP
001F8000
003FE000
007FF000
00F0F800
01E07800
01E03800
01C03C00
01C03C00
01C03C00
01E03800
01E07800
00F0F800
007FF000
003FE000
001F8000
00000000
00000000
00000000
FC0001F0
FC0001F0
FC0001F0
FC0001F0
FC0001F0
FC0001F0
FC0001F0
FC0001F0
FC0001F0
FC0001F0
FC0001F0
FC0001F0
FC0001F0
FC0001F0
FC0001F0
FC0001F0
FC0001F0
FC0001F0
FC0001F0
FC0001F0
FC0001F0
FC0001F0
FC0001F0
FC0001F0
FC0001F0
FC0001F0
FC0001F0
FC0001F0
FC0001F0
FC0001F0
FC0001F0
FC0001F0
FC0001F0
FC0001F0
7C0003F0
7C0003F0
7C0003E0
7E0003E0
7E0007E0
3F000FE0
3FC03FC0
1FFFFF80
0FFFFF80
07FFFF00
03FFFC00
007FE000
ENDCHAR
STARTCHAR 016F
ENCODING 367
SWIDTH 593 0
DWIDTH 38 0
BBX 26 53 6 -1
BITMAP
003F0000
00FFC000
01FFE000
01E1E000
03C0F000
03C07000
03807000
03807800
03807000
03807000
03C0F000
01E1E000
01FFE000
00FFC000
003F0000
00000000
00000000
00000000
00000000
F80007C0
F80007C0
F80007C0
F80007C0
F80007C0
F80007C0
F80007C0
F80007C0
F80007C0
F80007C0
F80007C0
F80007C0
F80007C0
F80007C0
F80007C0
F80007C0
F80007C0
F80007C0
F80007C0
F80007C0
F80007C0
F80007C0
F80007C0
F80007C0
FC0007C0
FC000FC0
7E000FC0
7F003FC0
7FC0F7C0
3FFFF7C0
1FFFE7C0
0FFFC7C0
07FF87C0
00FE0000
ENDCHAR
STARTCHAR 0170
ENCODING 368
SWIDTH 593 0
DWIDTH 38 0
BBX 28 61 5 -1
BITMAP
001C0300
001F07C0
003F07E0
003E0F80
007E0F80
007C1F00
00F81E00
00F83E00
01F03C00
01E07800
03E07800
00C01000
00000000
00000000
00000000
FC0001F0
FC0001F0
FC0001F0
FC0001F0
FC0001F0
FC0001F0
FC0001F0
FC0001F0
FC0001F0
FC0001F0
FC0001F0
FC0001F0
FC0001F0
FC0001F0
FC0001F0
FC0001F0
FC0001F0
FC0001F0
FC0001F0
FC0001F0
FC0001F0
FC0001F0
FC0001F0
FC0001F0
FC0001F0
FC0001F0
FC0001F0
FC0001F0
FC0001F0
FC0001F0
FC0001F0
FC0001F0
FC0001F0
FC0001F0
7C0003F0
7C0003F0
7C0003E0
7E0003E0
7E0007E0
3F000FE0
3FC03FC0
1FFFFF80
0FFFFF80
07FFFF00
03FFFC00
007FE000
ENDCHAR
STARTCHAR 0171
ENCODING 369
SWIDTH 593 0
DWIDTH 38 0
BBX 26 51 6 -1
BITMAP
00300600
003E0F80
007E0F80
007C1F00
00F81F00
00F83E00
01F03C00
01E07C00
03E07800
03C0F000
0780F000
01802000
00000000
00000000
00000000
00000000
00000000
F80007C0
F80007C0
F80007C0
F80007C0
F80007C0
F80007C0
F80007C0
F80007C0
F80007C0
F80007C0
F80007C0
F80007C0
F80007C0
F80007C0
F80007C0
F80007C0
F80007C0
F80007C0
F80007C0
F80007C0
F80007C0
F80007C0
F80007C0
F80007C0
FC0007C0
FC000FC0
7E000FC0
7F003FC0
7FC0F7C0
3FFFF7C0
1FFFE7C0
0FFFC7C0
07FF87C0
00FE0000
ENDCHAR
STARTCHAR 0172
ENCODING 370
SWIDTH 593 0
DWIDTH 38 0
BBX 28 58 5 -13
BITMAP
FC0001F0
FC0001F0
FC0001F0
FC0001F0
FC0001F0
FC0001F0
FC0001F0
FC0001F0
FC0001F0
FC0001F0
FC0001F0
FC0001F0
FC0001F0
FC0001F0
FC0001F0
FC0001F0
FC0001F0
FC0001F0
FC0001F0
FC0001F0
FC0001F0
FC0001F0
FC0001F0
FC0001F0
FC0001F0
FC0001F0
FC0001F0
FC0001F0
FC0001F0
FC0001F0
FC0001F0
FC0001F0
FC0001F0
FC0001F0
7C0003F0
7C0003F0
7C0003E0
7E0003E0
7E0007E0
3F000FC0
3FC03FC0
1FFFFF80
0FFFFF00
07FFFE00
03FFFC00
007FF800
0000F000
0003C000
00078000
001F0000
001E0000
003C0000
003C0000
003C1000
003E1800
001FFC00
001FFE00
0003F000
ENDCHAR
STARTCHAR 0173
ENCODING 371
SWIDTH 593 0
DWIDTH 38 0
BBX 27 46 6 -13
BITMAP
F80007C0
F80007C0
F80007C0
F80007C0
F80007C0
F80007C0
F80007C0
F80007C0
F80007C0
F80007C0
F80007C0
F80007C0
F80007C0
F80007C0
F80007C0
F80007C0
F80007C0
F80007C0
F80007C0
F80007C0
F80007C0
F80007C0
F80007C0
F80007C0
FC0007C0
FC000FC0
7E000FC0
7F003FC0
7FC0F7C0
3FFFF7C0
1FFFE7C0
0FFFC7C0
07FF83C0
00FE0F80
00001F00
00007E00
0000F800
0000F000
0001F000
0001E000
0001E000
0001E080
0001F0C0
0001FFE0
0000FFE0
00003F80
ENDCHAR
STARTCHAR 0174
ENCODING 372
SWIDTH 593 0
DWIDTH 38 0
BBX 34 60 2 0
BITMAP
0003F80000
0007FC0000
000FFC0000
001FFE0000
003F3F0000
003E1F8000
007C0FC000
00F807C000
01F003E000
01E001F000
0040008000
0000000000
0000000000
0000000000
0000000000
F8000007C0
F8000007C0
F8000007C0
78000007C0
78000007C0
78000007C0
7C000007C0
7C000007C0
7C00000780
7C00000780
7C00000780
7C00000780
7C03F00780
7C03F80F80
7C03F80F80
7C07F80F80
3C07F80F80
3C07F80F80
3C07FC0F80
3C07BC0F80
3E0FBC0F80
3E0F3C0F00
3E0F3E0F00
3E0F3E0F00
3E0F1E0F00
3E1E1E0F00
3E1E1E0F00
3E1E1F1F00
3E1E0F1F00
1E3E0F1F00
1E3C0F1F00
1E3C0F1F00
1E3C0F9F00
1E3C079F00
1F7C079E00
1F78079E00
1F7807DE00
1F7807DE00
1F7803DE00
1FF803FE00
1FF003FE00
1FF003FE00
0FF003FE00
0FF001FE00
0FF001FE00
ENDCHAR
STARTCHAR 0175
ENCODING 373
SWIDTH 593 0
DWIDTH 38 0
BBX 34 49 2 0
BITMAP
0003F80000
0007FC0000
000FFC0000
001FFE0000
003F3F0000
003E1F8000
007C0FC000
00F807C000
01F003E000
01E001F000
0040008000
0000000000
0000000000
0000000000
0000000000
0000000000
F803F003C0
F803F003C0
F803F803C0
F803F803C0
7803F807C0
7807B807C0
7807B807C0
7807BC0780
7C073C0780
7C073C0780
3C0F3C0780
3C0F1C0780
3C0F1E0F80
3C0E1E0F00
3C0E1E0F00
3C1E1E0F00
3E1E0E0F00
1E1E0E0F00
1E1C0F0F00
1E1C0F0F00
1E3C0F1E00
1E3C071E00
1E3C071E00
0F38079E00
0F38079E00
0F78079E00
0F78039C00
0F7803BC00
0F7803FC00
0FF003FC00
07F003FC00
07F003FC00
07F001FC00
ENDCHAR
STARTCHAR 0176
ENCODING 374
SWIDTH 593 0
DWIDTH 38 0
BBX 36 60 1 0
BITMAP
0001FC0000
0003FE0000
0007FE0000
000FFF0000
001F9F8000
001F0FC000
003E07E000
007C03E000
00F801F000
00F000F800
0020004000
0000000000
0000000000
0000000000
0000000000
FE000003F0
7E000007E0
7F000007E0
3F00000FC0
1F80000FC0
1F80001F80
0FC0001F80
0FC0003F00
07E0003F00
07E0007E00
03F0007C00
01F800FC00
01F801F800
00FC01F800
00FC03F000
007E03F000
007E07E000
003F07C000
001F0FC000
001F8F8000
000F9F8000
000FDF0000
0007FF0000
0007FE0000
0003FC0000
0003FC0000
0001F80000
0000F80000
0000F80000
0000F80000
0000F80000
0000F80000
0000F80000
0000F80000
0000F80000
0000F80000
0000F80000
0000F80000
0000F80000
0000F80000
0000F80000
0000F80000
0000F80000
0000F80000
0000F80000
ENDCHAR
STARTCHAR 0177
ENCODING 375
SWIDTH 593 0
DWIDTH 38 0
BBX 32 62 3 -13
BITMAP
0007F000
000FF800
001FF800
003FFC00
007E7E00
007C3F00
00F81F80
01F00F80
03E007C0
03C003E0
00800100
00000000
00000000
00000000
00000000
00000000
FC00001F
7C00003E
7E00003E
3E00007E
3E00007C
1F00007C
1F0000F8
1F8000F8
0F8001F8
0F8001F0
07C001F0
07C003E0
03E003E0
03E007E0
03E007C0
01F007C0
01F00F80
00F80F80
00F81F80
00F81F00
007C1F00
007C3E00
003E3E00
003E3C00
003E7C00
001F7C00
001FF800
000FF800
000FF000
000FF000
0007F000
0007E000
0003E000
0007C000
0007C000
000FC000
000F8000
001F8000
001F0000
001F0000
003F0000
3FFE0000
3FFE0000
3FFC0000
3FF80000
3FE00000
ENDCHAR
STARTCHAR 0178
ENCODING 376
SWIDTH 593 0
DWIDTH 38 0
BBX 36 57 1 0
BITMAP
003E03E000
007F07E000
007F07F000
007F0FF000
007F07F000
007F07E000
003E03C000
0000000000
0000000000
0000000000
0000000000
0000000000
FE000003F0
7E000007E0
7F000007E0
3F00000FC0
1F80000FC0
1F80001F80
0FC0001F80
0FC0003F00
07E0003F00
07E0007E00
03F0007C00
01F800FC00
01F801F800
00FC01F800
00FC03F000
007E03F000
007E07E000
003F07C000
001F0FC000
001F8F8000
000F9F8000
000FDF0000
0007FF0000
0007FE0000
0003FC0000
0003FC0000
0001F80000
0000F80000
0000F80000
0000F80000
0000F80000
0000F80000
0000F80000
0000F80000
0000F80000
0000F80000
0000F80000
0000F80000
0000F80000
0000F80000
0000F80000
0000F80000
0000F80000
0000F80000
0000F80000
ENDCHAR
STARTCHAR 0179
ENCODING 377
SWIDTH 593 0
DWIDTH 38 0
BBX 32 60 3 0
BITMAP
00003800
00003E00
00007E00
00007C00
0000FC00
0000F800
0001F000
0001F000
0003E000
0003C000
0007C000
00008000
00000000
00000000
00000000
7FFFFFFE
7FFFFFFE
7FFFFFFE
7FFFFFFE
7FFFFFFE
0000007E
000000FC
000000FC
000001F8
000003F0
000007E0
000007E0
00000FC0
00001F80
00003F00
00003F00
00007E00
0000FC00
0000FC00
0001F800
0003F000
0007E000
0007E000
000FC000
001F8000
003F0000
003F0000
007E0000
00FC0000
00FC0000
01F80000
03F00000
07E00000
07E00000
0FC00000
1F800000
1F000000
3F000000
7E000000
FC000000
FFFFFFFF
FFFFFFFF
FFFFFFFF
FFFFFFFF
FFFFFFFF
ENDCHAR
STARTCHAR 017A
ENCODING 378
SWIDTH 593 0
DWIDTH 38 0
BBX 28 49 5 0
BITMAP
0000E000
0000F800
0001F800
0001F000
0003F000
0003E000
0007C000
0007C000
000F8000
000F0000
001F0000
00020000
00000000
00000000
00000000
00000000
7FFFFFE0
7FFFFFE0
7FFFFFE0
7FFFFFE0
7FFFFFE0
000007E0
00000FC0
00001F80
00003F80
00007F00
00007E00
0000FC00
0001F800
0003F000
0007E000
000FC000
001F8000
003F0000
007E0000
00FC0000
01F80000
03F00000
07E00000
0FC00000
1F800000
3F000000
7E000000
FE000000
FFFFFFF0
FFFFFFF0
FFFFFFF0
FFFFFFF0
FFFFFFF0
ENDCHAR
STARTCHAR 017B
ENCODING 379
SWIDTH 593 0
DWIDTH 38 0
BBX 32 58 3 0
BITMAP
0003E000
0007F000
000FF000
000FF000
000FF000
000FF000
0007F000
0003E000
00000000
00000000
00000000
00000000
00000000
7FFFFFFE
7FFFFFFE
7FFFFFFE
7FFFFFFE
7FFFFFFE
0000007E
000000FC
000000FC
000001F8
000003F0
000007E0
000007E0
00000FC0
00001F80
00003F00
00003F00
00007E00
0000FC00
0000FC00
0001F800
0003F000
0007E000
0007E000
000FC000
001F8000
003F0000
003F0000
007E0000
00FC0000
00FC0000
01F80000
03F00000
07E00000
07E00000
0FC00000
1F800000
1F000000
3F000000
7E000000
FC000000
FFFFFFFF
FFFFFFFF
FFFFFFFF
FFFFFFFF
FFFFFFFF
ENDCHAR
STARTCHAR 017C
ENCODING 380
SWIDTH 593 0
DWIDTH 38 0
BBX 28 47 5 0
BITMAP
000F8000
001FC000
003FC000
003FC000
003FC000
003FC000
001FC000
000F8000
00000000
00000000
00000000
00000000
00000000
00000000
7FFFFFE0
7FFFFFE0
7FFFFFE0
7FFFFFE0
7FFFFFE0
000007E0
00000FC0
00001F80
00003F80
00007F00
00007E00
0000FC00
0001F800
0003F000
0007E000
000FC000
001F8000
003F0000
007E0000
00FC0000
01F80000
03F00000
07E00000
0FC00000
1F800000
3F000000
7E000000
FE000000
FFFFFFF0
FFFFFFF0
FFFFFFF0
FFFFFFF0
FFFFFFF0
ENDCHAR
STARTCHAR 017D
ENCODING 381
SWIDTH 593 0
DWIDTH 38 0
BBX 32 60 3 0
BITMAP
00800100
01C003C0
03E007E0
01F00F80
00F81F80
007C3F00
007E7E00
003FFC00
001FF800
000FF800
0007F000
00000000
00000000
00000000
00000000
7FFFFFFE
7FFFFFFE
7FFFFFFE
7FFFFFFE
7FFFFFFE
0000007E
000000FC
000000FC
000001F8
000003F0
000007E0
000007E0
00000FC0
00001F80
00003F00
00003F00
00007E00
0000FC00
0000FC00
0001F800
0003F000
0007E000
0007E000
000FC000
001F8000
003F0000
003F0000
007E0000
00FC0000
00FC0000
01F80000
03F00000
07E00000
07E00000
0FC00000
1F800000
1F000000
3F000000
7E000000
FC000000
FFFFFFFF
FFFFFFFF
FFFFFFFF
FFFFFFFF
FFFFFFFF
ENDCHAR
STARTCHAR 017E
ENCODING 382
SWIDTH 593 0
DWIDTH 38 0
BBX 28 49 5 0
BITMAP
02000600
07000F00
0F801F80
07C03E00
03E07E00
01F0FC00
01F9F800
00FFF000
007FE000
003FE000
001FC000
00000000
00000000
00000000
00000000
00000000
7FFFFFE0
7FFFFFE0
7FFFFFE0
7FFFFFE0
7FFFFFE0
000007E0
00000FC0
00001F80
00003F80
00007F00
00007E00
0000FC00
0001F800
0003F000
0007E000
000FC000
001F8000
003F0000
007E0000
00FC0000
01F80000
03F00000
07E00000
0FC00000
1F800000
3F000000
7E000000
FE000000
FFFFFFF0
FFFFFFF0
FFFFFFF0
FFFFFFF0
FFFFFFF0
ENDCHAR
STARTCHAR 017F
ENCODING 383
SWIDTH 593 0
DWIDTH 38 0
BBX 30 47 5 0
BITMAP
0000FFFC
0003FFFC
0007FFFC
000FFFFC
000FFFFC
000F8000
001F8000
001F8000
001F8000
001F8000
001F8000
001F8000
001F8000
001F8000
FFFF8000
FFFF8000
FFFF8000
FFFF8000
FFFF8000
001F8000
001F8000
001F8000
001F8000
001F8000
001F8000
001F8000
001F8000
001F8000
001F8000
001F8000
001F8000
001F8000
001F8000
001F8000
001F8000
001F8000
001F8000
001F8000
001F8000
001F8000
001F8000
001F8000
FFFFFFF0
FFFFFFF0
FFFFFFF0
FFFFFFF0
FFFFFFF0
ENDCHAR
STARTCHAR 018F
ENCODING 399
SWIDTH 593 0
DWIDTH 38 0
BBX 31 46 4 -1
BITMAP
001FE000
00FFFC00
03FFFF00
07FFFF80
0FFFFFC0
1FE03FE0
3F800FE0
3F0007F0
7E0003F0
7C0001F8
FC0000F8
F80000FC
380000FC
080000FC
0000007C
0000007C
0000007C
0000007E
0000007E
0000007E
0000007E
0000007E
FFFFFFFE
FFFFFFFE
FFFFFFFE
FFFFFFFE
FFFFFFFE
F800007E
F800007E
F800007C
F800007C
F800007C
FC00007C
7C0000FC
7C0000F8
7C0000F8
7E0001F8
3F0001F0
3F0003F0
1FC007E0
0FF01FE0
0FFFFFC0
07FFFF80
01FFFF00
00FFFC00
001FF000
ENDCHAR
STARTCHAR 0192
ENCODING 402
SWIDTH 593 0
DWIDTH 38 0
BBX 42 58 -3 -13
BITMAP
0000001FFFC0
0000007FFFC0
000000FFFFC0
000001FFFFC0
000001FFFF80
000003F00000
000003E00000
000003E00000
000003E00000
000003E00000
000003E00000
000007E00000
000007C00000
000007C00000
000007C00000
000007C00000
007FFFFFFC00
00FFFFFFF800
00FFFFFFF800
00FFFFFFF800
00FFFFFFF800
00000F800000
00000F800000
00001F800000
00001F000000
00001F000000
00001F000000
00001F000000
00001F000000
00003F000000
00003E000000
00003E000000
00003E000000
00003E000000
00003E000000
00007E000000
00007C000000
00007C000000
00007C000000
00007C000000
00007C000000
0000FC000000
0000F8000000
0000F8000000
0000F8000000
0000F8000000
0000F8000000
0001F8000000
0001F0000000
0001F0000000
0001F0000000
0001F0000000
0001F0000000
7FFFE0000000
7FFFE0000000
7FFFC0000000
FFFF80000000
FFFE00000000
ENDCHAR
STARTCHAR 01A0
ENCODING 416
SWIDTH 593 0
DWIDTH 38 0
BBX 31 52 4 -1
BITMAP
0000001E
0000001E
0000001E
0000001E
0000001E
0000001E
001FFFFE
00FFFFFE
01FFFFFE
07FFFFFC
0FFFFFC0
0FF03FE0
1FC00FE0
3F8003F0
3F0003F0
3E0001F8
7E0000F8
7C0000FC
7C0000FC
FC00007C
FC00007C
F800007C
F800007C
F800007E
F800007E
F800007E
F800007E
F800007E
F800007E
F800007E
F800007E
F800007E
F800007E
F800007E
F800007E
F800007C
F800007C
FC00007C
FC00007C
7C0000FC
7C0000F8
7E0000F8
3E0001F8
3F0003F0
3F8003F0
1FC00FE0
0FF03FE0
0FFFFFC0
07FFFF80
01FFFF00
00FFFC00
001FF000
ENDCHAR
STARTCHAR 01A1
ENCODING 417
SWIDTH 593 0
DWIDTH 38 0
BBX 31 41 4 -1
BITMAP
0000003E
0000003E
0000003E
0000003E
0000003E
0000003E
001FE03E
00FFFFFC
01FFFFFC
07FFFFF8
0FFFFFC0
0FF01FE0
1FC007E0
3F0003F0
3E0001F0
7E0000F8
7C0000F8
7C0000F8
7C00007C
FC00007C
FC00007C
FC00007C
FC00007C
FC00007C
FC00007C
FC00007C
FC00007C
FC00007C
7C00007C
7C0000F8
7C0000F8
7E0000F8
3E0001F0
3F0003F0
1FC007E0
0FF01FE0
0FFFFFC0
07FFFF80
01FFFF00
00FFFC00
001FE000
ENDCHAR
STARTCHAR 01AF
ENCODING 431
SWIDTH 593 0
DWIDTH 38 0
BBX 33 53 5 -1
BITMAP
0000000780
0000000780
0000000780
0000000780
0000000780
0000000780
0000000780
FC0001FF80
FC0001FF80
FC0001FF00
FC0001F000
FC0001F000
FC0001F000
FC0001F000
FC0001F000
FC0001F000
FC0001F000
FC0001F000
FC0001F000
FC0001F000
FC0001F000
FC0001F000
FC0001F000
FC0001F000
FC0001F000
FC0001F000
FC0001F000
FC0001F000
FC0001F000
FC0001F000
FC0001F000
FC0001F000
FC0001F000
FC0001F000
FC0001F000
FC0001F000
FC0001F000
FC0001F000
FC0001F000
FC0001F000
FC0001F000
7C0003F000
7C0003F000
7C0003E000
7E0003E000
7E0007E000
3F000FE000
3FC03FC000
1FFFFF8000
0FFFFF8000
07FFFF0000
03FFFC0000
007FE00000
ENDCHAR
STARTCHAR 01B0
ENCODING 432
SWIDTH 593 0
DWIDTH 38 0
BBX 32 41 6 -1
BITMAP
0000001F
0000001F
0000001F
0000001F
0000001F
0000001F
0000001F
F80007FE
F80007FE
F80007FC
F80007C0
F80007C0
F80007C0
F80007C0
F80007C0
F80007C0
F80007C0
F80007C0
F80007C0
F80007C0
F80007C0
F80007C0
F80007C0
F80007C0
F80007C0
F80007C0
F80007C0
F80007C0
F80007C0
F80007C0
F80007C0
FC0007C0
FC000FC0
7E000FC0
7F003FC0
7FC0F7C0
3FFFF7C0
1FFFE7C0
0FFFC7C0
07FF87C0
00FE0000
ENDCHAR
STARTCHAR 01CD
ENCODING 461
SWIDTH 593 0
DWIDTH 38 0
BBX 34 60 2 0
BITMAP
0040008000
00E001E000
01F003F000
00F807C000
007C0FC000
003E1F8000
003F3F0000
001FFE0000
000FFC0000
0007FC0000
0003F80000
0000000000
0000000000
0000000000
0000000000
0003F80000
0007F80000
0007FC0000
0007FC0000
000FFC0000
000FFC0000
000FBE0000
001F3E0000
001F3E0000
001F1F0000
003E1F0000
003E1F0000
003E1F8000
003E0F8000
007C0F8000
007C0FC000
007C07C000
00F807C000
00F807C000
00F803E000
01F803E000
01F003E000
01F003F000
01F001F000
03E001F000
03E001F800
03E000F800
07FFFFF800
07FFFFF800
07FFFFFC00
0FFFFFFC00
0FFFFFFC00
0F80007E00
1F80007E00
1F80003E00
1F00003F00
1F00003F00
3F00001F00
3E00001F80
3E00001F80
7E00001F80
7E00000F80
7C00000FC0
FC00000FC0
FC000007C0
ENDCHAR
STARTCHAR 01CE
ENCODING 462
SWIDTH 593 0
DWIDTH 38 0
BBX 31 50 4 -1
BITMAP
02000400
07000F00
0F801F00
07C03E00
03E07C00
01F0FC00
01F9F800
00FFF000
007FE000
003FE000
001FC000
00000000
00000000
00000000
00000000
003FC000
01FFF800
07FFFE00
0FFFFF00
1FFFFF80
3FC07F80
3F001FC0
7E000FC0
1C0007C0
080007E0
000007E0
000007E0
000007E0
000007E0
000007E0
007FFFE0
07FFFFE0
0FFFFFE0
3FFFFFE0
3FC007E0
7E0007E0
7C0007E0
FC0007E0
FC0007E0
FC0007E0
FC0007E0
FC0007E0
FC000FE0
7E001BE0
7F80FBFE
3FFFF3FE
1FFFF1FE
0FFFE0FE
07FFC07E
01FE0000
ENDCHAR
STARTCHAR 01CF
ENCODING 463
SWIDTH 593 0
DWIDTH 38 0
BBX 28 60 5 0
BITMAP
02000400
07000F00
0F801F80
07C03E00
03E07E00
01F0FC00
01F9F800
00FFF000
007FE000
003FE000
001FC000
00000000
00000000
00000000
00000000
FFFFFFF0
FFFFFFF0
FFFFFFF0
FFFFFFF0
FFFFFFF0
000F8000
000F8000
000F8000
000F8000
000F8000
000F8000
000F8000
000F8000
000F8000
000F8000
000F8000
000F8000
000F8000
000F8000
000F8000
000F8000
000F8000
000F8000
000F8000
000F8000
000F8000
000F8000
000F8000
000F8000
000F8000
000F8000
000F8000
000F8000
000F8000
000F8000
000F8000
000F8000
000F8000
000F8000
000F8000
FFFFFFF0
FFFFFFF0
FFFFFFF0
FFFFFFF0
FFFFFFF0
ENDCHAR
STARTCHAR 01D0
ENCODING 464
SWIDTH 593 0
DWIDTH 38 0
BBX 28 49 7 0
BITMAP
02000600
07000F00
0F801F80
07C03E00
03E07E00
01F0FC00
00F9F800
00FFF000
007FE000
003FE000
001FC000
00000000
00000000
00000000
00000000
00000000
FFFF8000
FFFF8000
FFFF8000
FFFF8000
FFFF8000
000F8000
000F8000
000F8000
000F8000
000F8000
000F8000
000F8000
000F8000
000F8000
000F8000
000F8000
000F8000
000F8000
000F8000
000F8000
000F8000
000F8000
000F8000
000F8000
000F8000
000F8000
000F8000
000F8000
FFFFFFF0
FFFFFFF0
FFFFFFF0
FFFFFFF0
FFFFFFF0
ENDCHAR
STARTCHAR 01D1
ENCODING 465
SWIDTH 593 0
DWIDTH 38 0
BBX 31 61 4 -1
BITMAP
01000200
03800780
07C00FC0
03E01F00
01F03F00
00F87E00
00FCFC00
007FF800
003FF000
001FF000
000FE000
00000000
00000000
00000000
00000000
001FE000
00FFFC00
01FFFF00
07FFFF80
0FFFFFC0
0FF03FE0
1FC00FE0
3F8003F0
3F0003F0
3E0001F8
7E0000F8
7C0000F8
7C0000FC
FC00007C
FC00007C
F800007C
F800007C
F800007E
F800007E
F800007E
F800007E
F800007E
F800007E
F800007E
F800007E
F800007E
F800007E
F800007E
F800007E
F800007C
F800007C
FC00007C
FC00007C
7C0000FC
7C0000F8
7E0000F8
3E0001F8
3F0003F0
3F8003F0
1FC00FE0
0FF03FE0
0FFFFFC0
07FFFF80
01FFFF00
00FFFC00
001FF000
ENDCHAR
STARTCHAR 01D2
ENCODING 466
SWIDTH 593 0
DWIDTH 38 0
BBX 30 50 4 -1
BITMAP
01000300
03800780
07C00FC0
03E01F00
01F03F00
00F87E00
00FCFC00
007FF800
003FF000
001FF000
000FE000
00000000
00000000
00000000
00000000
001FE000
00FFFC00
01FFFF00
07FFFF80
0FFFFFC0
0FF01FE0
1FC007E0
3F0003F0
3E0001F0
7E0000F8
7C0000F8
7C0000F8
7C00007C
FC00007C
FC00007C
FC00007C
FC00007C
FC00007C
FC00007C
FC00007C
FC00007C
FC00007C
7C00007C
7C0000F8
7C0000F8
7E0000F8
3E0001F0
3F0003F0
1FC007E0
0FF01FE0
0FFFFFC0
07FFFF80
01FFFF00
00FFFC00
001FE000
ENDCHAR
STARTCHAR 01D3
ENCODING 467
SWIDTH 593 0
DWIDTH 38 0
BBX 28 61 5 -1
BITMAP
02000400
07000F00
0F801F80
07C03E00
03E07E00
01F0FC00
01F9F800
00FFF000
007FE000
003FE000
001FC000
00000000
00000000
00000000
00000000
FC0001F0
FC0001F0
FC0001F0
FC0001F0
FC0001F0
FC0001F0
FC0001F0
FC0001F0
FC0001F0
FC0001F0
FC0001F0
FC0001F0
FC0001F0
FC0001F0
FC0001F0
FC0001F0
FC0001F0
FC0001F0
FC0001F0
FC0001F0
FC0001F0
FC0001F0
FC0001F0
FC0001F0
FC0001F0
FC0001F0
FC0001F0
FC0001F0
FC0001F0
FC0001F0
FC0001F0
FC0001F0
FC0001F0
FC0001F0
7C0003F0
7C0003F0
7C0003E0
7E0003E0
7E0007E0
3F000FE0
3FC03FC0
1FFFFF80
0FFFFF80
07FFFF00
03FFFC00
007FE000
ENDCHAR
STARTCHAR 01D4
ENCODING 468
SWIDTH 593 0
DWIDTH 38 0
BBX 26 50 6 -1
BITMAP
04000800
1E001E00
1F003E00
0F807C00
07C0F800
03E1F800
03F3F000
01FFE000
00FFC000
007F8000
007F8000
00000000
00000000
00000000
00000000
00000000
F80007C0
F80007C0
F80007C0
F80007C0
F80007C0
F80007C0
F80007C0
F80007C0
F80007C0
F80007C0
F80007C0
F80007C0
F80007C0
F80007C0
F80007C0
F80007C0
F80007C0
F80007C0
F80007C0
F80007C0
F80007C0
F80007C0
F80007C0
F80007C0
FC0007C0
FC000FC0
7E000FC0
7F003FC0
7FC0F7C0
3FFFF7C0
1FFFE7C0
0FFFC7C0
07FF87C0
00FE0000
ENDCHAR
STARTCHAR 01D5
ENCODING 469
SWIDTH 593 0
DWIDTH 38 0
BBX 28 64 5 -1
BITMAP
07FFFE00
07FFFE00
07FFFE00
07FFFE00
00000000
00000000
00000000
03C03E00
07E07F00
0FE07F00
0FF07F00
0FE07F00
07E07F00
07C03E00
00000000
00000000
00000000
00000000
FC0001F0
FC0001F0
FC0001F0
FC0001F0
FC0001F0
FC0001F0
FC0001F0
FC0001F0
FC0001F0
FC0001F0
FC0001F0
FC0001F0
FC0001F0
FC0001F0
FC0001F0
FC0001F0
FC0001F0
FC0001F0
FC0001F0
FC0001F0
FC0001F0
FC0001F0
FC0001F0
FC0001F0
FC0001F0
FC0001F0
FC0001F0
FC0001F0
FC0001F0
FC0001F0
FC0001F0
FC0001F0
FC0001F0
FC0001F0
7C0003F0
7C0003F0
7C0003E0
7E0003E0
7E0007E0
3F000FE0
3FC03FC0
1FFFFF80
0FFFFF80
07FFFF00
03FFFC00
007FE000
ENDCHAR
STARTCHAR 01D6
ENCODING 470
SWIDTH 593 0
DWIDTH 38 0
BBX 26 53 6 -1
BITMAP
0FFFFC00
0FFFFC00
0FFFFC00
0FFFFC00
00000000
00000000
00000000
0F807C00
1FC0FE00
1FC0FE00
1FC0FE00
1FC0FE00
1FC0FE00
0F807C00
00000000
00000000
00000000
00000000
00000000
F80007C0
F80007C0
F80007C0
F80007C0
F80007C0
F80007C0
F80007C0
F80007C0
F80007C0
F80007C0
F80007C0
F80007C0
F80007C0
F80007C0
F80007C0
F80007C0
F80007C0
F80007C0
F80007C0
F80007C0
F80007C0
F80007C0
F80007C0
F80007C0
FC0007C0
FC000FC0
7E000FC0
7F003FC0
7FC0F7C0
3FFFF7C0
1FFFE7C0
0FFFC7C0
07FF87C0
00FE0000
ENDCHAR
STARTCHAR 01D7
ENCODING 471
SWIDTH 593 0
DWIDTH 38 0
BBX 28 70 5 -1
BITMAP
00004000
00007000
0000FC00
0000F800
0001F000
0001F000
0003E000
0003C000
0007C000
00078000
000F0000
00070000
00000000
03C03E00
07E07F00
0FE07F00
0FF07F00
0FE07F00
07E07F00
07C03E00
00000000
00000000
00000000
00000000
FC0001F0
FC0001F0
FC0001F0
FC0001F0
FC0001F0
FC0001F0
FC0001F0
FC0001F0
FC0001F0
FC0001F0
FC0001F0
FC0001F0
FC0001F0
FC0001F0
FC0001F0
FC0001F0
FC0001F0
FC0001F0
FC0001F0
FC0001F0
FC0001F0
FC0001F0
FC0001F0
FC0001F0
FC0001F0
FC0001F0
FC0001F0
FC0001F0
FC0001F0
FC0001F0
FC0001F0
FC0001F0
FC0001F0
FC0001F0
7C0003F0
7C0003F0
7C0003E0
7E0003E0
7E0007E0
3F000FE0
3FC03FC0
1FFFFF80
0FFFFF80
07FFFF00
03FFFC00
007FE000
ENDCHAR
STARTCHAR 01D8
ENCODING 472
SWIDTH 593 0
DWIDTH 38 0
BBX 26 59 6 -1
BITMAP
00008000
0001E000
0001F800
0003F000
0003E000
0007C000
0007C000
000F8000
000F0000
001F0000
001E0000
000C0000
00000000
0F807C00
1FC0FE00
1FC0FE00
1FC0FE00
1FC0FE00
1FC0FE00
0F807C00
00000000
00000000
00000000
00000000
00000000
F80007C0
F80007C0
F80007C0
F80007C0
F80007C0
F80007C0
F80007C0
F80007C0
F80007C0
F80007C0
F80007C0
F80007C0
F80007C0
F80007C0
F80007C0
F80007C0
F80007C0
F80007C0
F80007C0
F80007C0
F80007C0
F80007C0
F80007C0
F80007C0
FC0007C0
FC000FC0
7E000FC0
7F003FC0
7FC0F7C0
3FFFF7C0
1FFFE7C0
0FFFC7C0
07FF87C0
00FE0000
ENDCHAR
STARTCHAR 01D9
ENCODING 473
SWIDTH 593 0
DWIDTH 38 0
BBX 28 70 5 -1
BITMAP
02000600
0F000F00
07801F00
07E03E00
03F07C00
01F8F800
00FDF800
007FF000
007FE000
003FC000
001F8000
00000000
00000000
03C03E00
07E07F00
0FE07F00
0FF07F00
0FE07F00
07E07F00
07C03E00
00000000
00000000
00000000
00000000
FC0001F0
FC0001F0
FC0001F0
FC0001F0
FC0001F0
FC0001F0
FC0001F0
FC0001F0
FC0001F0
FC0001F0
FC0001F0
FC0001F0
FC0001F0
FC0001F0
FC0001F0
FC0001F0
FC0001F0
FC0001F0
FC0001F0
FC0001F0
FC0001F0
FC0001F0
FC0001F0
FC0001F0
FC0001F0
FC0001F0
FC0001F0
FC0001F0
FC0001F0
FC0001F0
FC0001F0
FC0001F0
FC0001F0
FC0001F0
7C0003F0
7C0003F0
7C0003E0
7E0003E0
7E0007E0
3F000FE0
3FC03FC0
1FFFFF80
0FFFFF80
07FFFF00
03FFFC00
007FE000
ENDCHAR
STARTCHAR 01DA
ENCODING 474
SWIDTH 593 0
DWIDTH 38 0
BBX 26 59 6 -1
BITMAP
04000800
1E001E00
1F003E00
0F807C00
07C0F800
03E1F000
01F3E000
01FFE000
00FFC000
007F8000
003F0000
00000000
00000000
0F807C00
1FC0FE00
1FC0FE00
1FC0FE00
1FC0FE00
1FC0FE00
0F807C00
00000000
00000000
00000000
00000000
00000000
F80007C0
F80007C0
F80007C0
F80007C0
F80007C0
F80007C0
F80007C0
F80007C0
F80007C0
F80007C0
F80007C0
F80007C0
F80007C0
F80007C0
F80007C0
F80007C0
F80007C0
F80007C0
F80007C0
F80007C0
F80007C0
F80007C0
F80007C0
F80007C0
FC0007C0
FC000FC0
7E000FC0
7F003FC0
7FC0F7C0
3FFFF7C0
1FFFE7C0
0FFFC7C0
07FF87C0
00FE0000
ENDCHAR
STARTCHAR 01DB
ENCODING 475
SWIDTH 593 0
DWIDTH 38 0
BBX 28 70 5 -1
BITMAP
00200000
00F00000
01F00000
01F80000
00F80000
007C0000
007C0000
003E0000
001E0000
001F0000
000F0000
00068000
00000000
03C03E00
07E07F00
0FE07F00
0FF07F00
0FE07F00
07E07F00
07C03E00
00000000
00000000
00000000
00000000
FC0001F0
FC0001F0
FC0001F0
FC0001F0
FC0001F0
FC0001F0
FC0001F0
FC0001F0
FC0001F0
FC0001F0
FC0001F0
FC0001F0
FC0001F0
FC0001F0
FC0001F0
FC0001F0
FC0001F0
FC0001F0
FC0001F0
FC0001F0
FC0001F0
FC0001F0
FC0001F0
FC0001F0
FC0001F0
FC0001F0
FC0001F0
FC0001F0
FC0001F0
FC0001F0
FC0001F0
FC0001F0
FC0001F0
FC0001F0
7C0003F0
7C0003F0
7C0003E0
7E0003E0
7E0007E0
3F000FE0
3FC03FC0
1FFFFF80
0FFFFF80
07FFFF00
03FFFC00
007FE000
ENDCHAR
STARTCHAR 01DC
ENCODING 476
SWIDTH 593 0
DWIDTH 38 0
BBX 26 59 6 -1
BITMAP
00400000
01E00000
07E00000
03F00000
01F00000
00F80000
00F80000
007C0000
003C0000
003E0000
001E0000
000C0000
00000000
0F807C00
1FC0FE00
1FC0FE00
1FC0FE00
1FC0FE00
1FC0FE00
0F807C00
00000000
00000000
00000000
00000000
00000000
F80007C0
F80007C0
F80007C0
F80007C0
F80007C0
F80007C0
F80007C0
F80007C0
F80007C0
F80007C0
F80007C0
F80007C0
F80007C0
F80007C0
F80007C0
F80007C0
F80007C0
F80007C0
F80007C0
F80007C0
F80007C0
F80007C0
F80007C0
F80007C0
FC0007C0
FC000FC0
7E000FC0
7F003FC0
7FC0F7C0
3FFFF7C0
1FFFE7C0
0FFFC7C0
07FF87C0
00FE0000
ENDCHAR
STARTCHAR 01FA
ENCODING 506
SWIDTH 593 0
DWIDTH 38 0
BBX 34 71 2 0
BITMAP
00001C0000
00001F0000
00003E0000
00007C0000
0000780000
0000F00000
0001E00000
0000600000
0000000000
0003F00000
0007FC0000
000FFE0000
001E1F0000
003C0F0000
003C070000
0038078000
0038078000
0038078000
003C070000
003C0F0000
001E1F0000
000FFE0000
0007FC0000
0003F00000
0000000000
0000000000
0003F80000
0007F80000
0007FC0000
0007FC0000
000FFC0000
000FFC0000
000FBE0000
001F3E0000
001F3E0000
001F1F0000
003E1F0000
003E1F0000
003E1F8000
003E0F8000
007C0F8000
007C0FC000
007C07C000
00F807C000
00F807C000
00F803E000
01F803E000
01F003E000
01F003F000
01F001F000
03E001F000
03E001F800
03E000F800
07FFFFF800
07FFFFF800
07FFFFFC00
0FFFFFFC00
0FFFFFFC00
0F80007E00
1F80007E00
1F80003E00
1F00003F00
1F00003F00
3F00001F00
3E00001F80
3E00001F80
7E00001F80
7E00000F80
7C00000FC0
FC00000FC0
FC000007C0
ENDCHAR
STARTCHAR 01FB
ENCODING 507
SWIDTH 593 0
DWIDTH 38 0
BBX 31 62 4 -1
BITMAP
00004000
0000F000
0001F800
0001F000
0003E000
0007C000
00078000
000F0000
00020000
00000000
001F8000
003FE000
007FF000
00F0F000
01E07800
01E03800
01C03C00
01C03C00
01C03C00
01E03800
01E07800
00F0F000
007FF000
003FE000
001F8000
00000000
00000000
003FC000
01FFF800
07FFFE00
0FFFFF00
1FFFFF80
3FC07F80
3F001FC0
7E000FC0
1C0007C0
080007E0
000007E0
000007E0
000007E0
000007E0
000007E0
007FFFE0
07FFFFE0
0FFFFFE0
3FFFFFE0
3FC007E0
7E0007E0
7C0007E0
FC0007E0
FC0007E0
FC0007E0
FC0007E0
FC0007E0
FC000FE0
7E001BE0
7F80FBFE
3FFFF3FE
1FFFF1FE
0FFFE0FE
07FFC07E
01FE0000
ENDCHAR
STARTCHAR 01FC
ENCODING 508
SWIDTH 593 0
DWIDTH 38 0
BBX 35 60 1 0
BITMAP
0000003800
0000003E00
0000007E00
0000007C00
000000FC00
000000F800
000001F000
000001F000
000003E000
000003C000
000007C000
0000018000
0000000000
0000000000
0000000000
0007FFFFE0
0007FFFFE0
0007FFFFE0
000FFFFFE0
000F9FFFE0
000F9F0000
000F1F0000
001F1F0000
001F1F0000
001F1F0000
003E1F0000
003E1F0000
003E1F0000
007C1F0000
007C1F0000
007C1F0000
007C1F0000
00F81F0000
00F81F0000
00F81F0000
01F81FFFC0
01F01FFFC0
01F01FFFC0
01F01FFFC0
03E01FFFC0
03E01F0000
03E01F0000
07E01F0000
07FFFF0000
07FFFF0000
07FFFF0000
0FFFFF0000
0FFFFF0000
0F801F0000
1F801F0000
1F001F0000
1F001F0000
3F001F0000
3F001F0000
3E001F0000
3E001FFFE0
7E001FFFE0
7C001FFFE0
7C001FFFE0
FC001FFFE0
ENDCHAR
STARTCHAR 01FD
ENCODING 509
SWIDTH 593 0
DWIDTH 38 0
BBX 36 50 1 -1
BITMAP
00000E0000
00000F8000
00001F8000
00001F0000
00003F0000
00003E0000
00007C0000
00007C0000
0000F80000
0000F00000
0001F00000
0000200000
0000000000
0000000000
0000000000
01F801F800
07FE07FE00
1FFF0FFF80
3FFF9FFF80
3E0FDE0FC0
7C03FC03E0
7803F801E0
F801F801E0
1001F001F0
0001F000F0
0001F000F0
0001F000F0
0001F000F0
0001F000F0
0001F000F0
01FFFFFFF0
0FFFFFFFF0
1FFFFFFFF0
3FFFFFFFF0
7F01F00000
FC01F00000
F801F00000
F801F00000
F001F00000
F001F00000
F001F00100
F001F800E0
F803F801F0
F8037C03E0
F8077C03E0
7E1E3F0FC0
7FFE1FFF80
3FFC1FFF00
1FF807FE00
07E001F800
ENDCHAR
STARTCHAR 01FE
ENCODING 510
SWIDTH 593 0
DWIDTH 38 0
BBX 32 63 3 -3
BITMAP
00003800
00003E00
00007E00
00007C00
0000FC00
0000F800
0001F000
0001F000
0003E000
0003C000
0007C000
00008000
00000000
0000000C
0000000E
000FF01F
007FFE3F
00FFFFBE
03FFFFFC
07FFFFFC
07F81FF8
0FE007F8
1FC001F8
1F8001F8
1F0003FC
3F0007FC
3E0007FC
3E000FFE
7E000F3E
7E001F3E
7C003E3E
7C003E3E
7C007C3F
7C00783F
7C00F83F
7C01F03F
7C01F03F
7C03E03F
7C07C03F
7C07C03F
7C0F803F
7C0F003F
7C1F003F
7C3E003F
7C3E003E
7C7C003E
7E78003E
7EF8003E
3FF0007E
3FF0007E
3FE0007C
1FC000FC
1FC000F8
1FC001F8
0FE007F0
1FF81FF0
1FFFFFE0
3FFFFFC0
7EFFFF80
7C7FFE00
F80FF800
78000000
10000000
ENDCHAR
STARTCHAR 01FF
ENCODING 511
SWIDTH 593 0
DWIDTH 38 0
BBX 32 52 3 -3
BITMAP
00003800
00003E00
00007E00
00007C00
0000FC00
0000F800
0001F000
0001F000
0003E000
0003C000
0007C000
00008000
00000000
00000004
0000000E
000FF00F
007FFE1E
00FFFFBE
03FFFFFC
07FFFFF8
07F80FF0
0FE003F0
1F8003F8
1F0003F8
3F0007FC
3E000F7C
3E001F7C
3E003E7E
7E007C3E
7E00F83E
7E00F03E
7E01E03E
7E03E03E
7E07C03E
7E0F803E
7E1F003E
3E3E003E
3E3C003E
3E78007C
3EF8007C
1FF0007C
1FE000F8
1FC001F8
0FE003F0
0FF80FF0
1FFFFFE0
1FFFFFC0
3CFFFF80
7C3FFE00
F80FF000
70000000
20000000
ENDCHAR
STARTCHAR 0218
ENCODING 536
SWIDTH 593 0
DWIDTH 38 0
BBX 32 61 3 -16
BITMAP
001FF800
00FFFF00
03FFFFC0
07FFFFF0
0FFFFFF8
1FF00FFC
1FC001FE
3F8000FE
3F00003C
3E000018
3E000010
7E000000
7E000000
7E000000
3E000000
3F000000
3F000000
3F800000
1FE00000
1FFE0000
0FFFF000
07FFFF00
01FFFFC0
007FFFF0
000FFFF8
00003FFC
000003FC
000000FE
0000007E
0000003E
0000003F
0000003F
0000003F
0000003F
0000003F
1800003E
7C00007E
FE00007E
FF0000FE
7FC001FC
3FF00FF8
1FFFFFF8
07FFFFF0
03FFFFC0
00FFFF00
001FF800
00000000
00000000
00000000
0007F000
000FE000
000FE000
000FC000
000FC000
000F8000
000F8000
000F8000
001F0000
001F0000
001E0000
001E0000
ENDCHAR
STARTCHAR 0219
ENCODING 537
SWIDTH 593 0
DWIDTH 38 0
BBX 30 50 4 -16
BITMAP
001FF000
00FFFE00
03FFFF80
07FFFFE0
0FFFFFF0
1FE00FF8
1F8003F0
3F0000E0
3E000040
3E000000
3E000000
3F000000
3F000000
1FC00000
1FFE0000
0FFFF800
07FFFF00
03FFFFC0
00FFFFE0
0007FFF0
00000FF8
000001F8
000000F8
000000F8
000000FC
100000F8
380000F8
7E0000F8
FF0003F8
7FE00FF0
3FFFFFF0
0FFFFFE0
07FFFF80
01FFFF00
003FF000
00000000
00000000
00000000
001FC000
001FC000
001F8000
001F8000
001F8000
001F0000
001F0000
003E0000
003E0000
003E0000
003C0000
003C0000
ENDCHAR
STARTCHAR 021A
ENCODING 538
SWIDTH 593 0
DWIDTH 38 0
BBX 35 61 2 -16
BITMAP
FFFFFFFFE0
FFFFFFFFE0
FFFFFFFFE0
FFFFFFFFE0
FFFFFFFFE0
0001F00000
0001F00000
0001F00000
0001F00000
0001F00000
0001F00000
0001F00000
0001F00000
0001F00000
0001F00000
0001F00000
0001F00000
0001F00000
0001F00000
0001F00000
0001F00000
0001F00000
0001F00000
0001F00000
0001F00000
0001F00000
0001F00000
0001F00000
0001F00000
0001F00000
0001F00000
0001F00000
0001F00000
0001F00000
0001F00000
0001F00000
0001F00000
0001F00000
0001F00000
0001F00000
0001F00000
0001F00000
0001F00000
0001F00000
0001F00000
0000000000
0000000000
0000000000
0000000000
0003F80000
0003F00000
0007F00000
0007E00000
0007E00000
0007E00000
0007C00000
0007C00000
0007800000
000F800000
000F800000
000F000000
ENDCHAR
STARTCHAR 021B
ENCODING 539
SWIDTH 593 0
DWIDTH 38 0
BBX 32 61 2 -16
BITMAP
000F8000
000F8000
000F8000
000F8000
000F8000
000F8000
000F8000
000F8000
000F8000
000F8000
001F8000
001F8000
FFFFFFFF
FFFFFFFF
FFFFFFFF
FFFFFFFF
FFFFFFFF
001F8000
001F8000
001F8000
001F8000
001F8000
001F8000
001F8000
001F8000
001F8000
001F8000
001F8000
001F8000
001F8000
001F8000
001F8000
001F8000
001F8000
001F8000
001F8000
001F8000
001F8000
000F8000
000F8000
000FFFFF
000FFFFF
0007FFFF
0003FFFF
0000FFFF
00000000
00000000
00000000
00000000
00001FC0
00003F80
00003F80
00003F00
00003F00
00003E00
00003E00
00003E00
00007C00
00007C00
00007800
00007800
ENDCHAR
STARTCHAR 0237
ENCODING 567
SWIDTH 593 0
DWIDTH 38 0
BBX 22 46 6 -13
BITMAP
FFFFFC
FFFFFC
FFFFFC
FFFFFC
FFFFFC
00007C
00007C
00007C
00007C
00007C
00007C
00007C
00007C
00007C
00007C
00007C
00007C
00007C
00007C
00007C
00007C
00007C
00007C
00007C
00007C
00007C
00007C
00007C
00007C
00007C
00007C
00007C
00007C
00007C
00007C
00007C
00007C
00007C
00007C
00007C
000078
7FFFF8
7FFFF8
7FFFF0
7FFFE0
7FFFC0
ENDCHAR
STARTCHAR 0259
ENCODING 601
SWIDTH 593 0
DWIDTH 38 0
BBX 30 35 4 -1
BITMAP
003FE000
01FFFC00
03FFFE00
0FFFFF80
1FFFFFC0
1FE03FE0
3F800FE0
7E0003F0
1C0001F0
0C0001F8
000000F8
000000F8
0000007C
0000007C
0000007C
0000007C
FFFFFFFC
FFFFFFFC
FFFFFFFC
FFFFFFFC
FC00007C
FC00007C
7C00007C
7C0000F8
7C0000F8
7E0001F8
3F0001F0
3F0003F0
1FC00FE0
0FF03FE0
0FFFFFC0
07FFFF80
01FFFE00
00FFFC00
001FE000
ENDCHAR
STARTCHAR 02BB
ENCODING 699
SWIDTH 593 0
DWIDTH 38 0
BBX 8 12 16 38
BITMAP
0F
0F
1F
1F
1F
3E
3E
7E
7E
7E
FE
FE
ENDCHAR
STARTCHAR 02BC
ENCODING 700
SWIDTH 593 0
DWIDTH 38 0
BBX 7 12 12 35
BITMAP
7E
7E
FE
FC
FC
FC
FC
F8
F8
F8
F0
F0
ENDCHAR
STARTCHAR 02C6
ENCODING 710
SWIDTH 593 0
DWIDTH 38 0
BBX 21 11 9 38
BITMAP
01FC00
03FE00
07FE00
0FFF00
1F9F80
1F0FC0
3E07E0
7C03E0
F801F0
F000F8
200040
ENDCHAR
STARTCHAR 02C7
ENCODING 711
SWIDTH 593 0
DWIDTH 38 0
BBX 21 11 9 38
BITMAP
200060
7000F0
F801F8
7C03E0
3E07E0
1F0FC0
1F9F80
0FFF00
07FE00
03FE00
01FC00
ENDCHAR
STARTCHAR 02D8
ENCODING 728
SWIDTH 593 0
DWIDTH 38 0
BBX 21 11 9 38
BITMAP
200040
F000F8
F800F0
7801F0
7C03E0
7E03E0
3F0FC0
1FFFC0
0FFF80
07FE00
01F800
ENDCHAR
STARTCHAR 02D9
ENCODING 729
SWIDTH 593 0
DWIDTH 38 0
BBX 8 8 15 39
BITMAP
3E
7F
FF
FF
FF
FF
7F
3E
ENDCHAR
STARTCHAR 02DA
ENCODING 730
SWIDTH 593 0
DWIDTH 38 0
BBX 15 15 12 37
BITMAP
0FC0
1FF0
3FF8
787C
F03C
F01C
E01E
E01E
E01E
F01C
F03C
787C
3FF8
1FF0
0FC0
ENDCHAR
STARTCHAR 02DB
ENCODING 731
SWIDTH 593 0
DWIDTH 38 0
BBX 13 14 8 -13
BITMAP
01E0
01E0
0780
0F00
3E00
7C00
F800
F000
F000
F040
F860
FFF0
7FF8
1FC0
ENDCHAR
STARTCHAR 02DC
ENCODING 732
SWIDTH 593 0
DWIDTH 38 0
BBX 22 7 8 39
BITMAP
0F8000
3FF010
7FFC38
FFFFFC
707FF8
201FF0
0007E0
ENDCHAR
STARTCHAR 02DD
ENCODING 733
SWIDTH 593 0
DWIDTH 38 0
BBX 21 12 11 38
BITMAP
0700C0
07C1F0
0FC1F8
0F83E0
1F83E0
1F07C0
3E0780
3E0F80
7C0F00
781E00
F81E00
300400
ENDCHAR
STARTCHAR 0300
ENCODING 768
SWIDTH 0 0
DWIDTH 0 0
BBX 10 12 -7 37
BITMAP
1800
F800
FC00
7C00
3E00
3E00
1F00
0F00
0F80
0780
03C0
0300
ENDCHAR
STARTCHAR 0301
ENCODING 769
SWIDTH 0 0
DWIDTH 0 0
BBX 10 12 -3 37
BITMAP
0700
07C0
0FC0
0F80
1F80
1F00
3E00
3E00
7C00
7800
F800
3000
ENDCHAR
STARTCHAR 0302
ENCODING 770
SWIDTH 0 0
DWIDTH 0 0
BBX 20 11 -10 38
BITMAP
03FC00
03FC00
07FE00
0FFF00
1F9F80
1F0FC0
3E07C0
7C03E0
F801F0
F000F0
200040
ENDCHAR
STARTCHAR 0303
ENCODING 771
SWIDTH 0 0
DWIDTH 0 0
BBX 22 7 -11 39
BITMAP
0F8000
3FE010
7FFC38
FFFFFC
70FFF8
201FF0
0007C0
ENDCHAR
STARTCHAR 0304
ENCODING 772
SWIDTH 0 0
DWIDTH 0 0
BBX 18 4 -9 41
BITMAP
FFFFC0
FFFFC0
FFFFC0
FFFFC0
ENDCHAR
STARTCHAR 0306
ENCODING 774
SWIDTH 0 0
DWIDTH 0 0
BBX 20 11 -10 38
BITMAP
200040
F000F0
F800F0
F801F0
7C03E0
7E03E0
3F0FC0
1FFFC0
1FFF80
07FE00
01F800
ENDCHAR
STARTCHAR 0307
ENCODING 775
SWIDTH 0 0
DWIDTH 0 0
BBX 8 8 -4 39
BITMAP
3E
7F
FF
FF
FF
FF
7F
3E
ENDCHAR
STARTCHAR 0308
ENCODING 776
SWIDTH 0 0
DWIDTH 0 0
BBX 20 7 -10 39
BITMAP
3C03C0
7E07E0
FF0FF0
FF0FF0
FF0FF0
7E07E0
3C03C0
ENDCHAR
STARTCHAR 0309
ENCODING 777
SWIDTH 0 0
DWIDTH 0 0
BBX 11 12 -5 37
BITMAP
FF80
FFC0
FFE0
FFE0
01E0
03E0
03C0
07C0
0780
0F00
1F00
0600
ENDCHAR
STARTCHAR 030A
ENCODING 778
SWIDTH 0 0
DWIDTH 0 0
BBX 14 15 -7 37
BITMAP
0FC0
3FF0
7FF8
7878
F03C
E01C
E01C
E01C
E01C
E01C
F03C
7878
7FF8
3FF0
0FC0
ENDCHAR
STARTCHAR 030B
ENCODING 779
SWIDTH 0 0
DWIDTH 0 0
BBX 20 12 -8 38
BITMAP
0600C0
07C1F0
0FC1F0
0F83E0
1F03E0
1F07C0
3E0780
3C0F80
7C0F00
781E00
F01E00
300400
ENDCHAR
STARTCHAR 030C
ENCODING 780
SWIDTH 0 0
DWIDTH 0 0
BBX 20 11 -10 38
BITMAP
200040
F000F0
F801F0
7C03E0
3E07C0
1F0FC0
1F9F80
0FFF00
07FE00
03FC00
03FC00
ENDCHAR
STARTCHAR 0312
ENCODING 786
SWIDTH 0 0
DWIDTH 0 0
BBX 9 12 -4 38
BITMAP
0780
0780
0F80
0F80
1F80
1F00
1F00
3F00
3F00
7F00
7F00
FE00
ENDCHAR
STARTCHAR 0315
ENCODING 789
SWIDTH 0 0
DWIDTH 0 0
BBX 7 12 0 35
BITMAP
FE
FE
FC
FC
FC
FC
F8
F8
F8
F8
F0
F0
ENDCHAR
STARTCHAR 031B
ENCODING 795
SWIDTH 0 0
DWIDTH 0 0
BBX 10 10 -5 30
BITMAP
07C0
07C0
07C0
07C0
07C0
07C0
07C0
FFC0
FF80
FF00
ENDCHAR
STARTCHAR 0323
ENCODING 803
SWIDTH 0 0
DWIDTH 0 0
BBX 8 7 -4 -11
BITMAP
3C
7E
FF
FF
FF
7E
3C
ENDCHAR
STARTCHAR 0326
ENCODING 806
SWIDTH 0 0
DWIDTH 0 0
BBX 9 12 -5 -16
BITMAP
3F80
7F00
7F00
7E00
7E00
7C00
7C00
7C00
F800
F800
F000
F000
ENDCHAR
STARTCHAR 0327
ENCODING 807
SWIDTH 0 0
DWIDTH 0 0
BBX 14 14 -6 -13
BITMAP
0700
0F00
0E00
0E00
0E00
0FF0
17F8
007C
007C
003C
307C
7FF8
FFF8
3FE0
ENDCHAR
STARTCHAR 0328
ENCODING 808
SWIDTH 0 0
DWIDTH 0 0
BBX 13 14 -12 -13
BITMAP
00F0
01F0
03C0
0F80
1F00
3C00
7C00
7800
7800
F820
7C70
7FF8
3FF8
0FE0
ENDCHAR
STARTCHAR 03C0
ENCODING 960
SWIDTH 593 0
DWIDTH 38 0
BBX 35 33 1 0
BITMAP
FFFFFFFFE0
FFFFFFFFE0
FFFFFFFFE0
FFFFFFFFE0
FFFFFFFFE0
03E000F800
03E000F800
03E000F800
03E000F800
03E000F800
03E000F800
03E000F800
03E000F800
03E000F800
03E000F800
03E000F800
03E000F800
03E000F800
03E000F800
03E000F800
03E000F800
03E000F800
03E000F800
03E000F800
03E000F800
03E000F800
03E000F800
03E000F800
03E0007FE0
03E0007FE0
03E0003FE0
03E0003FE0
03E0000FE0
ENDCHAR
STARTCHAR 0400
ENCODING 1024
SWIDTH 593 0
DWIDTH 38 0
BBX 27 60 6 0
BITMAP
00600000
01F00000
03F00000
01F80000
00F80000
007C0000
007C0000
003E0000
001E0000
001F0000
000F0000
00040000
00000000
00000000
00000000
FFFFFFE0
FFFFFFE0
FFFFFFE0
FFFFFFE0
FFFFFFE0
F8000000
F8000000
F8000000
F8000000
F8000000
F8000000
F8000000
F8000000
F8000000
F8000000
F8000000
F8000000
F8000000
F8000000
F8000000
FFFFFFE0
FFFFFFE0
FFFFFFE0
FFFFFFE0
FFFFFFE0
F8000000
F8000000
F8000000
F8000000
F8000000
F8000000
F8000000
F8000000
F8000000
F8000000
F8000000
F8000000
F8000000
F8000000
F8000000
FFFFFFE0
FFFFFFE0
FFFFFFE0
FFFFFFE0
FFFFFFE0
ENDCHAR
STARTCHAR 0401
ENCODING 1025
SWIDTH 593 0
DWIDTH 38 0
BBX 27 57 6 0
BITMAP
07C07C00
0FE0FE00
0FE0FE00
0FE0FE00
0FE0FE00
0FE0FE00
07C07C00
00000000
00000000
00000000
00000000
00000000
FFFFFFE0
FFFFFFE0
FFFFFFE0
FFFFFFE0
FFFFFFE0
F8000000
F8000000
F8000000
F8000000
F8000000
F8000000
F8000000
F8000000
F8000000
F8000000
F8000000
F8000000
F8000000
F8000000
F8000000
FFFFFFE0
FFFFFFE0
FFFFFFE0
FFFFFFE0
FFFFFFE0
F8000000
F8000000
F8000000
F8000000
F8000000
F8000000
F8000000
F8000000
F8000000
F8000000
F8000000
F8000000
F8000000
F8000000
F8000000
FFFFFFE0
FFFFFFE0
FFFFFFE0
FFFFFFE0
FFFFFFE0
ENDCHAR
STARTCHAR 0402
ENCODING 1026
SWIDTH 593 0
DWIDTH 38 0
BBX 34 56 1 -11
BITMAP
FFFFFFC000
FFFFFFC000
FFFFFFC000
FFFFFFC000
FFFFFFC000
003E000000
003E000000
003E000000
003E000000
003E000000
003E000000
003E000000
003E000000
003E000000
003E000000
003E000000
003E000000
003E3FE000
003FFFF800
003FFFFE00
003FFFFF00
003FFFFF00
003FC07F80
003E001F80
003E000FC0
003E000FC0
003E000FC0
003E0007C0
003E0007C0
003E0007C0
003E0007C0
003E0007C0
003E0007C0
003E0007C0
003E0007C0
003E0007C0
003E0007C0
003E0007C0
003E0007C0
003E0007C0
003E0007C0
003E0007C0
003E0007C0
003E0007C0
003E0007C0
00000007C0
00000007C0
00000007C0
00000007C0
00000007C0
00000007C0
0001FFFFC0
0001FFFF80
0001FFFF80
0001FFFF00
0001FFFC00
ENDCHAR
STARTCHAR 0403
ENCODING 1027
SWIDTH 593 0
DWIDTH 38 0
BBX 25 60 8 0
BITMAP
00018000
0001F000
0003F000
0003E000
0007C000
0007C000
000F8000
000F0000
001F0000
001E0000
003C0000
000C0000
00000000
00000000
00000000
FFFFFF80
FFFFFF80
FFFFFF80
FFFFFF80
FFFFFF80
FC000000
FC000000
FC000000
FC000000
FC000000
FC000000
FC000000
FC000000
FC000000
FC000000
FC000000
FC000000
FC000000
FC000000
FC000000
FC000000
FC000000
FC000000
FC000000
FC000000
FC000000
FC000000
FC000000
FC000000
FC000000
FC000000
FC000000
FC000000
FC000000
FC000000
FC000000
FC000000
FC000000
FC000000
FC000000
FC000000
FC000000
FC000000
FC000000
FC000000
ENDCHAR
STARTCHAR 0404
ENCODING 1028
SWIDTH 593 0
DWIDTH 38 0
BBX 31 46 4 -1
BITMAP
000FF800
007FFE00
00FFFF80
03FFFFC0
07FFFFE0
07F80FF0
0FE003F8
1FC001F8
1F8000FC
3F00007C
3F00007E
3E000030
7E000000
7E000000
7C000000
7C000000
7C000000
7C000000
FC000000
FC000000
FFFFF800
FFFFF800
FFFFF800
FFFFF800
FFFFF800
FC000000
FC000000
FC000000
7C000000
7C000000
7C000000
7C000000
7E000000
7E000000
3E000030
3F00007C
3F00007E
1F8000FC
1FC001F8
0FE003F8
07F80FF0
07FFFFE0
03FFFFC0
00FFFF80
007FFE00
000FF800
ENDCHAR
STARTCHAR 0405
ENCODING 1029
SWIDTH 593 0
DWIDTH 38 0
BBX 32 46 3 -1
BITMAP
001FF800
00FFFF00
03FFFFC0
07FFFFF0
0FFFFFF8
1FF00FFC
1FC001FE
3F8000FE
3F00003C
3E000018
3E000010
7E000000
7E000000
7E000000
3E000000
3F000000
3F000000
3F800000
1FE00000
1FFE0000
0FFFF000
07FFFF00
01FFFFC0
007FFFF0
000FFFF8
00003FFC
000003FC
000000FE
0000007E
0000003E
0000003F
0000003F
0000003F
0000003F
0000003F
1800003E
7C00007E
FE00007E
FF0000FE
7FC001FC
3FF00FF8
1FFFFFF8
07FFFFF0
03FFFFC0
00FFFF00
001FF800
ENDCHAR
STARTCHAR 0406
ENCODING 1030
SWIDTH 593 0
DWIDTH 38 0
BBX 28 45 5 0
BITMAP
FFFFFFF0
FFFFFFF0
FFFFFFF0
FFFFFFF0
FFFFFFF0
000F8000
000F8000
000F8000
000F8000
000F8000
000F8000
000F8000
000F8000
000F8000
000F8000
000F8000
000F8000
000F8000
000F8000
000F8000
000F8000
000F8000
000F8000
000F8000
000F8000
000F8000
000F8000
000F8000
000F8000
000F8000
000F8000
000F8000
000F8000
000F8000
000F8000
000F8000
000F8000
000F8000
000F8000
000F8000
FFFFFFF0
FFFFFFF0
FFFFFFF0
FFFFFFF0
FFFFFFF0
ENDCHAR
STARTCHAR 0407
ENCODING 1031
SWIDTH 593 0
DWIDTH 38 0
BBX 28 57 5 0
BITMAP
03E03E00
07F07E00
07F07F00
07F0FF00
07F07F00
07F07E00
03E03C00
00000000
00000000
00000000
00000000
00000000
FFFFFFF0
FFFFFFF0
FFFFFFF0
FFFFFFF0
FFFFFFF0
000F8000
000F8000
000F8000
000F8000
000F8000
000F8000
000F8000
000F8000
000F8000
000F8000
000F8000
000F8000
000F8000
000F8000
000F8000
000F8000
000F8000
000F8000
000F8000
000F8000
000F8000
000F8000
000F8000
000F8000
000F8000
000F8000
000F8000
000F8000
000F8000
000F8000
000F8000
000F8000
000F8000
000F8000
000F8000
FFFFFFF0
FFFFFFF0
FFFFFFF0
FFFFFFF0
FFFFFFF0
ENDCHAR
STARTCHAR 0408
ENCODING 1032
SWIDTH 593 0
DWIDTH 38 0
BBX 26 46 5 -1
BITMAP
0FFFFFC0
0FFFFFC0
0FFFFFC0
0FFFFFC0
0FFFFFC0
00000FC0
00000FC0
00000FC0
00000FC0
00000FC0
00000FC0
00000FC0
00000FC0
00000FC0
00000FC0
00000FC0
00000FC0
00000FC0
00000FC0
00000FC0
00000FC0
00000FC0
00000FC0
00000FC0
00000FC0
00000FC0
00000FC0
00000FC0
00000FC0
00000FC0
00000FC0
00000FC0
00000FC0
00000FC0
00000FC0
F8000FC0
F8000F80
FC001F80
7E001F80
7F003F00
3FC0FF00
3FFFFE00
1FFFFC00
0FFFF800
03FFE000
007F8000
ENDCHAR
STARTCHAR 0409
ENCODING 1033
SWIDTH 593 0
DWIDTH 38 0
BBX 38 45 0 0
BITMAP
01FFFF8000
01FFFF8000
01FFFF8000
01FFFF8000
01FFFF8000
01F00F8000
01F00F8000
01F00F8000
01F00F8000
01F00F8000
01F00F8000
01F00F8000
01F00F8000
01F00F8000
01F00F8000
01F00F8000
01F00F8000
01F00F8000
01F00FFC00
01F00FFF80
01F00FFFC0
01F00FFFE0
01F00FFFF0
01F00F87F0
01F00F81F8
01F00F80F8
01F00F80FC
01F00F80FC
01F00F80FC
01F00F807C
03F00F807C
03F00F807C
03E00F807C
03E00F807C
03E00F807C
03E00F80FC
07E00F80FC
07C00F80F8
0FC00F81F8
1FC00F87F8
FF800FFFF0
FF000FFFE0
FE000FFFC0
FC000FFF00
F0000FFC00
ENDCHAR
STARTCHAR 040A
ENCODING 1034
SWIDTH 593 0
DWIDTH 38 0
BBX 35 45 3 0
BITMAP
F801F00000
F801F00000
F801F00000
F801F00000
F801F00000
F801F00000
F801F00000
F801F00000
F801F00000
F801F00000
F801F00000
F801F00000
F801F00000
F801F00000
F801F00000
F801F00000
F801F00000
F801F00000
F801FFE000
F801FFFC00
FFFFFFFE00
FFFFFFFF00
FFFFFFFF80
FFFFF03F80
FFFFF00FC0
F801F007C0
F801F007E0
F801F007E0
F801F007E0
F801F003E0
F801F003E0
F801F003E0
F801F003E0
F801F003E0
F801F003E0
F801F007E0
F801F007E0
F801F007C0
F801F00FC0
F801F03FC0
F801FFFF80
F801FFFF00
F801FFFE00
F801FFF800
F801FFE000
ENDCHAR
STARTCHAR 040B
ENCODING 1035
SWIDTH 593 0
DWIDTH 38 0
BBX 34 45 1 0
BITMAP
FFFFFFC000
FFFFFFC000
FFFFFFC000
FFFFFFC000
FFFFFFC000
003E000000
003E000000
003E000000
003E000000
003E000000
003E000000
003E000000
003E000000
003E000000
003E000000
003E000000
003E000000
003E3FE000
003FFFF800
003FFFFE00
003FFFFF00
003FFFFF00
003FC07F80
003E001F80
003E000FC0
003E000FC0
003E000FC0
003E0007C0
003E0007C0
003E0007C0
003E0007C0
003E0007C0
003E0007C0
003E0007C0
003E0007C0
003E0007C0
003E0007C0
003E0007C0
003E0007C0
003E0007C0
003E0007C0
003E0007C0
003E0007C0
003E0007C0
003E0007C0
ENDCHAR
STARTCHAR 040C
ENCODING 1036
SWIDTH 593 0
DWIDTH 38 0
BBX 30 60 5 0
BITMAP
0001C000
0001F000
0003F800
0003F000
0007E000
0007C000
000FC000
000F8000
001F0000
001F0000
003E0000
00040000
00000000
00000000
00000000
FC0001F8
FC0003F0
FC0003E0
FC0007E0
FC0007C0
FC000FC0
FC000F80
FC001F80
FC001F00
FC003F00
FC003E00
FC007E00
FC007C00
FC00FC00
FC00F800
FC01F800
FC01F000
FC03F000
FC03E000
FFFFE000
FFFFC000
FFFF0000
FFFFC000
FFFFE000
FC03E000
FC03F000
FC03F000
FC01F800
FC01F800
FC00FC00
FC00FC00
FC007C00
FC007E00
FC007E00
FC003F00
FC003F00
FC001F80
FC001F80
FC000F80
FC000FC0
FC000FFC
FC0007FC
FC0003FC
FC0003FC
FC0000FC
ENDCHAR
STARTCHAR 040D
ENCODING 1037
SWIDTH 593 0
DWIDTH 38 0
BBX 28 60 5 0
BITMAP
00300000
00F80000
01F80000
00FC0000
007C0000
007E0000
003E0000
001F0000
001F0000
000F8000
00078000
00060000
00000000
00000000
00000000
FC0001F0
FC0003F0
FC0003F0
FC0007F0
FC0007F0
FC000FF0
FC000FF0
FC001FF0
FC001FF0
FC003EF0
FC003EF0
FC007CF0
FC007CF0
FC00F9F0
FC00F9F0
FC01F1F0
FC01F1F0
FC03E1F0
FC03E1F0
FC07C1F0
FC07C1F0
FC0F81F0
FC0F81F0
F81F01F0
F81F01F0
F83E01F0
F83E01F0
F87C01F0
F87C01F0
F8F801F0
F8F801F0
F9F001F0
F9F001F0
FBE001F0
FBE001F0
FFC001F0
FFC001F0
FF8001F0
FF8001F0
FF0001F0
FF0001F0
FE0001F0
FE0001F0
FC0001F0
FC0001F0
ENDCHAR
STARTCHAR 040E
ENCODING 1038
SWIDTH 593 0
DWIDTH 38 0
BBX 33 60 3 0
BITMAP
00C0030000
03E003E000
03E007C000
01F007C000
01F0078000
00F00F8000
00F80F0000
007FFF0000
003FFE0000
001FFC0000
0007F00000
0000000000
0000000000
0000000000
0000000000
FC00001F80
FC00001F00
7E00001F00
7E00003F00
3F00003E00
3F00007E00
1F00007E00
1F80007C00
0F8000FC00
0FC000F800
0FC000F800
07C001F800
07E001F000
03E003F000
03F003F000
01F003E000
01F807E000
00F807C000
00F807C000
00FC0FC000
007C0F8000
007E1F8000
003E1F8000
003E1F0000
001F3F0000
001F3E0000
001FBE0000
000FFE0000
000FFC0000
0007FC0000
0007FC0000
0003F80000
0003F80000
0001F00000
0001F00000
0003F00000
0003E00000
0007E00000
0007E00000
0007C00000
03FFC00000
03FF800000
03FF800000
03FF000000
03FC000000
ENDCHAR
ENDFONT
